%TF.GenerationSoftware,KiCad,Pcbnew,7.0.1*%
%TF.CreationDate,2023-04-28T17:46:53+02:00*%
%TF.ProjectId,4_switch_pcb,345f7377-6974-4636-985f-7063622e6b69,rev?*%
%TF.SameCoordinates,Original*%
%TF.FileFunction,Soldermask,Bot*%
%TF.FilePolarity,Negative*%
%FSLAX46Y46*%
G04 Gerber Fmt 4.6, Leading zero omitted, Abs format (unit mm)*
G04 Created by KiCad (PCBNEW 7.0.1) date 2023-04-28 17:46:53*
%MOMM*%
%LPD*%
G01*
G04 APERTURE LIST*
G04 Aperture macros list*
%AMRoundRect*
0 Rectangle with rounded corners*
0 $1 Rounding radius*
0 $2 $3 $4 $5 $6 $7 $8 $9 X,Y pos of 4 corners*
0 Add a 4 corners polygon primitive as box body*
4,1,4,$2,$3,$4,$5,$6,$7,$8,$9,$2,$3,0*
0 Add four circle primitives for the rounded corners*
1,1,$1+$1,$2,$3*
1,1,$1+$1,$4,$5*
1,1,$1+$1,$6,$7*
1,1,$1+$1,$8,$9*
0 Add four rect primitives between the rounded corners*
20,1,$1+$1,$2,$3,$4,$5,0*
20,1,$1+$1,$4,$5,$6,$7,0*
20,1,$1+$1,$6,$7,$8,$9,0*
20,1,$1+$1,$8,$9,$2,$3,0*%
%AMRotRect*
0 Rectangle, with rotation*
0 The origin of the aperture is its center*
0 $1 length*
0 $2 width*
0 $3 Rotation angle, in degrees counterclockwise*
0 Add horizontal line*
21,1,$1,$2,0,0,$3*%
G04 Aperture macros list end*
%ADD10C,1.700000*%
%ADD11C,4.000000*%
%ADD12C,2.200000*%
%ADD13R,1.600000X1.600000*%
%ADD14R,1.200000X1.200000*%
%ADD15C,1.600000*%
%ADD16RoundRect,0.250000X0.450000X-0.350000X0.450000X0.350000X-0.450000X0.350000X-0.450000X-0.350000X0*%
%ADD17RoundRect,0.250000X-0.337500X-0.475000X0.337500X-0.475000X0.337500X0.475000X-0.337500X0.475000X0*%
%ADD18RoundRect,0.250000X0.337500X0.475000X-0.337500X0.475000X-0.337500X-0.475000X0.337500X-0.475000X0*%
%ADD19RotRect,1.400000X1.200000X45.000000*%
%ADD20R,1.500000X0.550000*%
%ADD21R,0.550000X1.500000*%
%ADD22RoundRect,0.250000X-0.475000X0.337500X-0.475000X-0.337500X0.475000X-0.337500X0.475000X0.337500X0*%
%ADD23R,1.400000X0.500000*%
%ADD24O,4.000000X1.500000*%
%ADD25R,0.800000X2.350000*%
%ADD26R,1.700000X1.000000*%
%ADD27O,1.600000X1.600000*%
%ADD28RoundRect,0.250000X0.350000X0.450000X-0.350000X0.450000X-0.350000X-0.450000X0.350000X-0.450000X0*%
%ADD29R,0.850000X0.850000*%
%ADD30O,0.850000X0.850000*%
%ADD31RoundRect,0.250000X0.475000X-0.337500X0.475000X0.337500X-0.475000X0.337500X-0.475000X-0.337500X0*%
G04 APERTURE END LIST*
D10*
%TO.C,SW5*%
X111918750Y-85725000D03*
D11*
X116998750Y-85725000D03*
D10*
X122078750Y-85725000D03*
D12*
X119538750Y-80645000D03*
X113188750Y-83185000D03*
%TD*%
D10*
%TO.C,SW3*%
X132873750Y-85725000D03*
D11*
X137953750Y-85725000D03*
D10*
X143033750Y-85725000D03*
D12*
X140493750Y-80645000D03*
X134143750Y-83185000D03*
%TD*%
D10*
%TO.C,SW4*%
X111918750Y-66675000D03*
D11*
X116998750Y-66675000D03*
D10*
X122078750Y-66675000D03*
D12*
X119538750Y-61595000D03*
X113188750Y-64135000D03*
%TD*%
D10*
%TO.C,SW2*%
X132873750Y-66675000D03*
D11*
X137953750Y-66675000D03*
D10*
X143033750Y-66675000D03*
D12*
X140493750Y-61595000D03*
X134143750Y-64135000D03*
%TD*%
D13*
%TO.C,D3*%
X113587500Y-90487500D03*
D14*
X115912500Y-90487500D03*
X119062500Y-90487500D03*
D15*
X121387500Y-90487500D03*
%TD*%
D13*
%TO.C,D2*%
X112940000Y-71120000D03*
D14*
X115265000Y-71120000D03*
X118415000Y-71120000D03*
D15*
X120740000Y-71120000D03*
%TD*%
D16*
%TO.C,R2*%
X151000000Y-68250000D03*
X151000000Y-66250000D03*
%TD*%
D17*
%TO.C,C8*%
X181962500Y-69500000D03*
X184037500Y-69500000D03*
%TD*%
D18*
%TO.C,C9*%
X175906250Y-69056250D03*
X173831250Y-69056250D03*
%TD*%
D19*
%TO.C,X1*%
X160656497Y-88212132D03*
X163343503Y-87787868D03*
X161787868Y-89343503D03*
X162212132Y-86656497D03*
%TD*%
D20*
%TO.C,U1*%
X167625000Y-72200000D03*
X167625000Y-73000000D03*
X167625000Y-73800000D03*
X167625000Y-74600000D03*
X167625000Y-75400000D03*
X167625000Y-76200000D03*
X167625000Y-77000000D03*
X167625000Y-77800000D03*
X167625000Y-78600000D03*
X167625000Y-79400000D03*
X167625000Y-80200000D03*
D21*
X165925000Y-81900000D03*
X165125000Y-81900000D03*
X164325000Y-81900000D03*
X163525000Y-81900000D03*
X162725000Y-81900000D03*
X161925000Y-81900000D03*
X161125000Y-81900000D03*
X160325000Y-81900000D03*
X159525000Y-81900000D03*
X158725000Y-81900000D03*
X157925000Y-81900000D03*
D20*
X156225000Y-80200000D03*
X156225000Y-79400000D03*
X156225000Y-78600000D03*
X156225000Y-77800000D03*
X156225000Y-77000000D03*
X156225000Y-76200000D03*
X156225000Y-75400000D03*
X156225000Y-74600000D03*
X156225000Y-73800000D03*
X156225000Y-73000000D03*
X156225000Y-72200000D03*
D21*
X157925000Y-70500000D03*
X158725000Y-70500000D03*
X159525000Y-70500000D03*
X160325000Y-70500000D03*
X161125000Y-70500000D03*
X161925000Y-70500000D03*
X162725000Y-70500000D03*
X163525000Y-70500000D03*
X164325000Y-70500000D03*
X165125000Y-70500000D03*
X165925000Y-70500000D03*
%TD*%
D18*
%TO.C,C6*%
X167787500Y-64293750D03*
X165712500Y-64293750D03*
%TD*%
D22*
%TO.C,C1*%
X168068750Y-87068750D03*
X168068750Y-89143750D03*
%TD*%
D16*
%TO.C,R1*%
X185250000Y-62750000D03*
X185250000Y-60750000D03*
%TD*%
D23*
%TO.C,J1*%
X182880000Y-75400000D03*
X182880000Y-76200000D03*
X182880000Y-77000000D03*
X182880000Y-77800000D03*
X182880000Y-78600000D03*
D24*
X185280000Y-73350000D03*
D25*
X188080000Y-74325000D03*
X188080000Y-79675000D03*
D24*
X185280000Y-80650000D03*
%TD*%
D26*
%TO.C,SW1*%
X179150000Y-59600000D03*
X172850000Y-59600000D03*
X179150000Y-63400000D03*
X172850000Y-63400000D03*
%TD*%
D22*
%TO.C,C2*%
X156162500Y-87068750D03*
X156162500Y-89143750D03*
%TD*%
D27*
%TO.C,J2*%
X179210000Y-89210000D03*
D13*
X179210000Y-91750000D03*
D27*
X181750000Y-89210000D03*
X181750000Y-91750000D03*
X184290000Y-89210000D03*
X184290000Y-91750000D03*
%TD*%
D28*
%TO.C,R4*%
X178212500Y-73818750D03*
X176212500Y-73818750D03*
%TD*%
D18*
%TO.C,C3*%
X176081250Y-83081250D03*
X174006250Y-83081250D03*
%TD*%
D13*
%TO.C,D4*%
X135018750Y-90487500D03*
D14*
X137343750Y-90487500D03*
X140493750Y-90487500D03*
D15*
X142818750Y-90487500D03*
%TD*%
D29*
%TO.C,J3*%
X159842000Y-63510000D03*
D30*
X161052000Y-63500000D03*
X162252000Y-63500000D03*
%TD*%
D28*
%TO.C,R3*%
X178212500Y-77568750D03*
X176212500Y-77568750D03*
%TD*%
D22*
%TO.C,C7*%
X152400000Y-79925000D03*
X152400000Y-82000000D03*
%TD*%
D31*
%TO.C,C4*%
X152000000Y-75825000D03*
X152000000Y-73750000D03*
%TD*%
D18*
%TO.C,C5*%
X156856250Y-64293750D03*
X154781250Y-64293750D03*
%TD*%
D13*
%TO.C,D1*%
X133260000Y-71120000D03*
D14*
X135585000Y-71120000D03*
X138735000Y-71120000D03*
D15*
X141060000Y-71120000D03*
%TD*%
M02*
