M48
; DRILL file {KiCad 7.0.1} date Fri Apr 28 17:47:27 2023
; FORMAT={-:-/ absolute / inch / decimal}
; #@! TF.CreationDate,2023-04-28T17:47:27+02:00
; #@! TF.GenerationSoftware,Kicad,Pcbnew,7.0.1
; #@! TF.FileFunction,Plated,1,2,PTH
FMAT,2
INCH
; #@! TA.AperFunction,Plated,PTH,ViaDrill
T1C0.0157
; #@! TA.AperFunction,Plated,PTH,ComponentDrill
T2C0.0197
; #@! TA.AperFunction,Plated,PTH,ComponentDrill
T3C0.0276
; #@! TA.AperFunction,Plated,PTH,ComponentDrill
T4C0.0591
%
G90
G05
T1
X5.9Y-3.3035
X6.0736Y-2.9862
X6.37Y-3.02
X6.39Y-3.32
X6.47Y-2.83
X6.4798Y-3.3202
X6.5295Y-2.9672
X6.66Y-2.9655
X6.7244Y-2.8677
X6.7256Y-3.0307
X6.87Y-3.34
X7.02Y-3.41
X7.2Y-3.41
T2
X6.293Y-2.5004
X6.3406Y-2.5
X6.3879Y-2.5
T3
X4.4465Y-2.8
X4.4719Y-3.5625
X4.7535Y-2.8
X4.779Y-3.5625
X5.2465Y-2.8
X5.3157Y-3.5625
X5.5535Y-2.8
X5.6228Y-3.5625
T4
X4.4562Y-2.525
X4.4562Y-3.275
X4.7062Y-2.425
X4.7062Y-3.175
X5.2812Y-2.525
X5.2812Y-3.275
X5.5312Y-2.425
X5.5312Y-3.175
T3
G00X7.3437Y-2.8878
M15
G01X7.2453Y-2.8878
M16
G05
G00X7.3437Y-3.1752
M15
G01X7.2453Y-3.1752
M16
G05
T0
M30
