%TF.GenerationSoftware,KiCad,Pcbnew,7.0.1*%
%TF.CreationDate,2023-04-28T17:46:53+02:00*%
%TF.ProjectId,4_switch_pcb,345f7377-6974-4636-985f-7063622e6b69,rev?*%
%TF.SameCoordinates,Original*%
%TF.FileFunction,Legend,Top*%
%TF.FilePolarity,Positive*%
%FSLAX46Y46*%
G04 Gerber Fmt 4.6, Leading zero omitted, Abs format (unit mm)*
G04 Created by KiCad (PCBNEW 7.0.1) date 2023-04-28 17:46:53*
%MOMM*%
%LPD*%
G01*
G04 APERTURE LIST*
%ADD10C,0.150000*%
%ADD11C,0.120000*%
G04 APERTURE END LIST*
D10*
%TO.C,SW5*%
X115665417Y-78266000D02*
X115808274Y-78313619D01*
X115808274Y-78313619D02*
X116046369Y-78313619D01*
X116046369Y-78313619D02*
X116141607Y-78266000D01*
X116141607Y-78266000D02*
X116189226Y-78218380D01*
X116189226Y-78218380D02*
X116236845Y-78123142D01*
X116236845Y-78123142D02*
X116236845Y-78027904D01*
X116236845Y-78027904D02*
X116189226Y-77932666D01*
X116189226Y-77932666D02*
X116141607Y-77885047D01*
X116141607Y-77885047D02*
X116046369Y-77837428D01*
X116046369Y-77837428D02*
X115855893Y-77789809D01*
X115855893Y-77789809D02*
X115760655Y-77742190D01*
X115760655Y-77742190D02*
X115713036Y-77694571D01*
X115713036Y-77694571D02*
X115665417Y-77599333D01*
X115665417Y-77599333D02*
X115665417Y-77504095D01*
X115665417Y-77504095D02*
X115713036Y-77408857D01*
X115713036Y-77408857D02*
X115760655Y-77361238D01*
X115760655Y-77361238D02*
X115855893Y-77313619D01*
X115855893Y-77313619D02*
X116093988Y-77313619D01*
X116093988Y-77313619D02*
X116236845Y-77361238D01*
X116570179Y-77313619D02*
X116808274Y-78313619D01*
X116808274Y-78313619D02*
X116998750Y-77599333D01*
X116998750Y-77599333D02*
X117189226Y-78313619D01*
X117189226Y-78313619D02*
X117427322Y-77313619D01*
X118284464Y-77313619D02*
X117808274Y-77313619D01*
X117808274Y-77313619D02*
X117760655Y-77789809D01*
X117760655Y-77789809D02*
X117808274Y-77742190D01*
X117808274Y-77742190D02*
X117903512Y-77694571D01*
X117903512Y-77694571D02*
X118141607Y-77694571D01*
X118141607Y-77694571D02*
X118236845Y-77742190D01*
X118236845Y-77742190D02*
X118284464Y-77789809D01*
X118284464Y-77789809D02*
X118332083Y-77885047D01*
X118332083Y-77885047D02*
X118332083Y-78123142D01*
X118332083Y-78123142D02*
X118284464Y-78218380D01*
X118284464Y-78218380D02*
X118236845Y-78266000D01*
X118236845Y-78266000D02*
X118141607Y-78313619D01*
X118141607Y-78313619D02*
X117903512Y-78313619D01*
X117903512Y-78313619D02*
X117808274Y-78266000D01*
X117808274Y-78266000D02*
X117760655Y-78218380D01*
%TO.C,SW3*%
X136620417Y-78266000D02*
X136763274Y-78313619D01*
X136763274Y-78313619D02*
X137001369Y-78313619D01*
X137001369Y-78313619D02*
X137096607Y-78266000D01*
X137096607Y-78266000D02*
X137144226Y-78218380D01*
X137144226Y-78218380D02*
X137191845Y-78123142D01*
X137191845Y-78123142D02*
X137191845Y-78027904D01*
X137191845Y-78027904D02*
X137144226Y-77932666D01*
X137144226Y-77932666D02*
X137096607Y-77885047D01*
X137096607Y-77885047D02*
X137001369Y-77837428D01*
X137001369Y-77837428D02*
X136810893Y-77789809D01*
X136810893Y-77789809D02*
X136715655Y-77742190D01*
X136715655Y-77742190D02*
X136668036Y-77694571D01*
X136668036Y-77694571D02*
X136620417Y-77599333D01*
X136620417Y-77599333D02*
X136620417Y-77504095D01*
X136620417Y-77504095D02*
X136668036Y-77408857D01*
X136668036Y-77408857D02*
X136715655Y-77361238D01*
X136715655Y-77361238D02*
X136810893Y-77313619D01*
X136810893Y-77313619D02*
X137048988Y-77313619D01*
X137048988Y-77313619D02*
X137191845Y-77361238D01*
X137525179Y-77313619D02*
X137763274Y-78313619D01*
X137763274Y-78313619D02*
X137953750Y-77599333D01*
X137953750Y-77599333D02*
X138144226Y-78313619D01*
X138144226Y-78313619D02*
X138382322Y-77313619D01*
X138668036Y-77313619D02*
X139287083Y-77313619D01*
X139287083Y-77313619D02*
X138953750Y-77694571D01*
X138953750Y-77694571D02*
X139096607Y-77694571D01*
X139096607Y-77694571D02*
X139191845Y-77742190D01*
X139191845Y-77742190D02*
X139239464Y-77789809D01*
X139239464Y-77789809D02*
X139287083Y-77885047D01*
X139287083Y-77885047D02*
X139287083Y-78123142D01*
X139287083Y-78123142D02*
X139239464Y-78218380D01*
X139239464Y-78218380D02*
X139191845Y-78266000D01*
X139191845Y-78266000D02*
X139096607Y-78313619D01*
X139096607Y-78313619D02*
X138810893Y-78313619D01*
X138810893Y-78313619D02*
X138715655Y-78266000D01*
X138715655Y-78266000D02*
X138668036Y-78218380D01*
%TO.C,SW4*%
X115665417Y-59216000D02*
X115808274Y-59263619D01*
X115808274Y-59263619D02*
X116046369Y-59263619D01*
X116046369Y-59263619D02*
X116141607Y-59216000D01*
X116141607Y-59216000D02*
X116189226Y-59168380D01*
X116189226Y-59168380D02*
X116236845Y-59073142D01*
X116236845Y-59073142D02*
X116236845Y-58977904D01*
X116236845Y-58977904D02*
X116189226Y-58882666D01*
X116189226Y-58882666D02*
X116141607Y-58835047D01*
X116141607Y-58835047D02*
X116046369Y-58787428D01*
X116046369Y-58787428D02*
X115855893Y-58739809D01*
X115855893Y-58739809D02*
X115760655Y-58692190D01*
X115760655Y-58692190D02*
X115713036Y-58644571D01*
X115713036Y-58644571D02*
X115665417Y-58549333D01*
X115665417Y-58549333D02*
X115665417Y-58454095D01*
X115665417Y-58454095D02*
X115713036Y-58358857D01*
X115713036Y-58358857D02*
X115760655Y-58311238D01*
X115760655Y-58311238D02*
X115855893Y-58263619D01*
X115855893Y-58263619D02*
X116093988Y-58263619D01*
X116093988Y-58263619D02*
X116236845Y-58311238D01*
X116570179Y-58263619D02*
X116808274Y-59263619D01*
X116808274Y-59263619D02*
X116998750Y-58549333D01*
X116998750Y-58549333D02*
X117189226Y-59263619D01*
X117189226Y-59263619D02*
X117427322Y-58263619D01*
X118236845Y-58596952D02*
X118236845Y-59263619D01*
X117998750Y-58216000D02*
X117760655Y-58930285D01*
X117760655Y-58930285D02*
X118379702Y-58930285D01*
%TO.C,SW2*%
X136620417Y-59216000D02*
X136763274Y-59263619D01*
X136763274Y-59263619D02*
X137001369Y-59263619D01*
X137001369Y-59263619D02*
X137096607Y-59216000D01*
X137096607Y-59216000D02*
X137144226Y-59168380D01*
X137144226Y-59168380D02*
X137191845Y-59073142D01*
X137191845Y-59073142D02*
X137191845Y-58977904D01*
X137191845Y-58977904D02*
X137144226Y-58882666D01*
X137144226Y-58882666D02*
X137096607Y-58835047D01*
X137096607Y-58835047D02*
X137001369Y-58787428D01*
X137001369Y-58787428D02*
X136810893Y-58739809D01*
X136810893Y-58739809D02*
X136715655Y-58692190D01*
X136715655Y-58692190D02*
X136668036Y-58644571D01*
X136668036Y-58644571D02*
X136620417Y-58549333D01*
X136620417Y-58549333D02*
X136620417Y-58454095D01*
X136620417Y-58454095D02*
X136668036Y-58358857D01*
X136668036Y-58358857D02*
X136715655Y-58311238D01*
X136715655Y-58311238D02*
X136810893Y-58263619D01*
X136810893Y-58263619D02*
X137048988Y-58263619D01*
X137048988Y-58263619D02*
X137191845Y-58311238D01*
X137525179Y-58263619D02*
X137763274Y-59263619D01*
X137763274Y-59263619D02*
X137953750Y-58549333D01*
X137953750Y-58549333D02*
X138144226Y-59263619D01*
X138144226Y-59263619D02*
X138382322Y-58263619D01*
X138715655Y-58358857D02*
X138763274Y-58311238D01*
X138763274Y-58311238D02*
X138858512Y-58263619D01*
X138858512Y-58263619D02*
X139096607Y-58263619D01*
X139096607Y-58263619D02*
X139191845Y-58311238D01*
X139191845Y-58311238D02*
X139239464Y-58358857D01*
X139239464Y-58358857D02*
X139287083Y-58454095D01*
X139287083Y-58454095D02*
X139287083Y-58549333D01*
X139287083Y-58549333D02*
X139239464Y-58692190D01*
X139239464Y-58692190D02*
X138668036Y-59263619D01*
X138668036Y-59263619D02*
X139287083Y-59263619D01*
D11*
%TO.C,SW5*%
X110013750Y-78740000D02*
X123983750Y-78740000D01*
X110013750Y-92710000D02*
X110013750Y-78740000D01*
X123983750Y-78740000D02*
X123983750Y-92710000D01*
X123983750Y-92710000D02*
X110013750Y-92710000D01*
%TO.C,SW3*%
X130968750Y-78740000D02*
X144938750Y-78740000D01*
X130968750Y-92710000D02*
X130968750Y-78740000D01*
X144938750Y-78740000D02*
X144938750Y-92710000D01*
X144938750Y-92710000D02*
X130968750Y-92710000D01*
%TO.C,SW4*%
X110013750Y-59690000D02*
X123983750Y-59690000D01*
X110013750Y-73660000D02*
X110013750Y-59690000D01*
X123983750Y-59690000D02*
X123983750Y-73660000D01*
X123983750Y-73660000D02*
X110013750Y-73660000D01*
%TO.C,SW2*%
X130968750Y-59690000D02*
X144938750Y-59690000D01*
X130968750Y-73660000D02*
X130968750Y-59690000D01*
X144938750Y-59690000D02*
X144938750Y-73660000D01*
X144938750Y-73660000D02*
X130968750Y-73660000D01*
%TD*%
M02*
