%TF.GenerationSoftware,KiCad,Pcbnew,7.0.1*%
%TF.CreationDate,2023-04-28T17:46:53+02:00*%
%TF.ProjectId,4_switch_pcb,345f7377-6974-4636-985f-7063622e6b69,rev?*%
%TF.SameCoordinates,Original*%
%TF.FileFunction,Copper,L2,Bot*%
%TF.FilePolarity,Positive*%
%FSLAX46Y46*%
G04 Gerber Fmt 4.6, Leading zero omitted, Abs format (unit mm)*
G04 Created by KiCad (PCBNEW 7.0.1) date 2023-04-28 17:46:53*
%MOMM*%
%LPD*%
G01*
G04 APERTURE LIST*
G04 Aperture macros list*
%AMRoundRect*
0 Rectangle with rounded corners*
0 $1 Rounding radius*
0 $2 $3 $4 $5 $6 $7 $8 $9 X,Y pos of 4 corners*
0 Add a 4 corners polygon primitive as box body*
4,1,4,$2,$3,$4,$5,$6,$7,$8,$9,$2,$3,0*
0 Add four circle primitives for the rounded corners*
1,1,$1+$1,$2,$3*
1,1,$1+$1,$4,$5*
1,1,$1+$1,$6,$7*
1,1,$1+$1,$8,$9*
0 Add four rect primitives between the rounded corners*
20,1,$1+$1,$2,$3,$4,$5,0*
20,1,$1+$1,$4,$5,$6,$7,0*
20,1,$1+$1,$6,$7,$8,$9,0*
20,1,$1+$1,$8,$9,$2,$3,0*%
%AMRotRect*
0 Rectangle, with rotation*
0 The origin of the aperture is its center*
0 $1 length*
0 $2 width*
0 $3 Rotation angle, in degrees counterclockwise*
0 Add horizontal line*
21,1,$1,$2,0,0,$3*%
G04 Aperture macros list end*
%TA.AperFunction,ComponentPad*%
%ADD10C,2.200000*%
%TD*%
%TA.AperFunction,ComponentPad*%
%ADD11R,1.600000X1.600000*%
%TD*%
%TA.AperFunction,SMDPad,CuDef*%
%ADD12R,2.500000X0.500000*%
%TD*%
%TA.AperFunction,SMDPad,CuDef*%
%ADD13R,1.200000X1.200000*%
%TD*%
%TA.AperFunction,ComponentPad*%
%ADD14C,1.600000*%
%TD*%
%TA.AperFunction,SMDPad,CuDef*%
%ADD15RoundRect,0.250000X0.450000X-0.350000X0.450000X0.350000X-0.450000X0.350000X-0.450000X-0.350000X0*%
%TD*%
%TA.AperFunction,SMDPad,CuDef*%
%ADD16RoundRect,0.250000X-0.337500X-0.475000X0.337500X-0.475000X0.337500X0.475000X-0.337500X0.475000X0*%
%TD*%
%TA.AperFunction,SMDPad,CuDef*%
%ADD17RoundRect,0.250000X0.337500X0.475000X-0.337500X0.475000X-0.337500X-0.475000X0.337500X-0.475000X0*%
%TD*%
%TA.AperFunction,SMDPad,CuDef*%
%ADD18RotRect,1.400000X1.200000X45.000000*%
%TD*%
%TA.AperFunction,SMDPad,CuDef*%
%ADD19R,1.500000X0.550000*%
%TD*%
%TA.AperFunction,SMDPad,CuDef*%
%ADD20R,0.550000X1.500000*%
%TD*%
%TA.AperFunction,SMDPad,CuDef*%
%ADD21RoundRect,0.250000X-0.475000X0.337500X-0.475000X-0.337500X0.475000X-0.337500X0.475000X0.337500X0*%
%TD*%
%TA.AperFunction,SMDPad,CuDef*%
%ADD22R,1.400000X0.500000*%
%TD*%
%TA.AperFunction,ComponentPad*%
%ADD23O,4.000000X1.500000*%
%TD*%
%TA.AperFunction,SMDPad,CuDef*%
%ADD24R,0.800000X2.350000*%
%TD*%
%TA.AperFunction,SMDPad,CuDef*%
%ADD25R,1.700000X1.000000*%
%TD*%
%TA.AperFunction,SMDPad,CuDef*%
%ADD26O,1.600000X1.600000*%
%TD*%
%TA.AperFunction,SMDPad,CuDef*%
%ADD27R,1.600000X1.600000*%
%TD*%
%TA.AperFunction,SMDPad,CuDef*%
%ADD28RoundRect,0.250000X0.350000X0.450000X-0.350000X0.450000X-0.350000X-0.450000X0.350000X-0.450000X0*%
%TD*%
%TA.AperFunction,ComponentPad*%
%ADD29R,0.850000X0.850000*%
%TD*%
%TA.AperFunction,ComponentPad*%
%ADD30O,0.850000X0.850000*%
%TD*%
%TA.AperFunction,SMDPad,CuDef*%
%ADD31RoundRect,0.250000X0.475000X-0.337500X0.475000X0.337500X-0.475000X0.337500X-0.475000X-0.337500X0*%
%TD*%
%TA.AperFunction,ViaPad*%
%ADD32C,0.800000*%
%TD*%
%TA.AperFunction,Conductor*%
%ADD33C,0.250000*%
%TD*%
G04 APERTURE END LIST*
D10*
%TO.P,SW5,1,1*%
%TO.N,Net-(D3-A)*%
X119538750Y-80645000D03*
%TO.P,SW5,2,2*%
%TO.N,/col1*%
X113188750Y-83185000D03*
%TD*%
%TO.P,SW3,1,1*%
%TO.N,Net-(D4-A)*%
X140493750Y-80645000D03*
%TO.P,SW3,2,2*%
%TO.N,/col1*%
X134143750Y-83185000D03*
%TD*%
%TO.P,SW4,1,1*%
%TO.N,Net-(D2-A)*%
X119538750Y-61595000D03*
%TO.P,SW4,2,2*%
%TO.N,/col0*%
X113188750Y-64135000D03*
%TD*%
%TO.P,SW2,1,1*%
%TO.N,Net-(D1-A)*%
X140493750Y-61595000D03*
%TO.P,SW2,2,2*%
%TO.N,/col0*%
X134143750Y-64135000D03*
%TD*%
D11*
%TO.P,D3,1,K*%
%TO.N,/row1*%
X113587500Y-90487500D03*
D12*
X114787500Y-90487500D03*
D13*
X115912500Y-90487500D03*
%TO.P,D3,2,A*%
%TO.N,Net-(D3-A)*%
X119062500Y-90487500D03*
D12*
X120187500Y-90487500D03*
D14*
X121387500Y-90487500D03*
%TD*%
D11*
%TO.P,D2,1,K*%
%TO.N,/row1*%
X112940000Y-71120000D03*
D12*
X114140000Y-71120000D03*
D13*
X115265000Y-71120000D03*
%TO.P,D2,2,A*%
%TO.N,Net-(D2-A)*%
X118415000Y-71120000D03*
D12*
X119540000Y-71120000D03*
D14*
X120740000Y-71120000D03*
%TD*%
D15*
%TO.P,R2,1*%
%TO.N,Net-(U1-~{HWB}{slash}PE2)*%
X151000000Y-68250000D03*
%TO.P,R2,2*%
%TO.N,GND*%
X151000000Y-66250000D03*
%TD*%
D16*
%TO.P,C8,1*%
%TO.N,VCC*%
X181962500Y-69500000D03*
%TO.P,C8,2*%
%TO.N,GND*%
X184037500Y-69500000D03*
%TD*%
D17*
%TO.P,C9,1*%
%TO.N,VCC*%
X175906250Y-69056250D03*
%TO.P,C9,2*%
%TO.N,Net-(U1-VBUS)*%
X173831250Y-69056250D03*
%TD*%
D18*
%TO.P,X1,1,1*%
%TO.N,Net-(U1-XTAL1)*%
X160656497Y-88212132D03*
%TO.P,X1,2,2*%
%TO.N,Net-(U1-XTAL2)*%
X163343503Y-87787868D03*
%TO.P,X1,3*%
%TO.N,GND*%
X161787868Y-89343503D03*
X162212132Y-86656497D03*
%TD*%
D19*
%TO.P,U1,1,PE6*%
%TO.N,unconnected-(U1-PE6-Pad1)*%
X167625000Y-72200000D03*
%TO.P,U1,2,UVCC*%
%TO.N,VCC*%
X167625000Y-73000000D03*
%TO.P,U1,3,D-*%
%TO.N,Net-(U1-D-)*%
X167625000Y-73800000D03*
%TO.P,U1,4,D+*%
%TO.N,Net-(U1-D+)*%
X167625000Y-74600000D03*
%TO.P,U1,5,UGND*%
%TO.N,GND*%
X167625000Y-75400000D03*
%TO.P,U1,6,UCAP*%
%TO.N,Net-(U1-UCAP)*%
X167625000Y-76200000D03*
%TO.P,U1,7,VBUS*%
%TO.N,Net-(U1-VBUS)*%
X167625000Y-77000000D03*
%TO.P,U1,8,PB0*%
%TO.N,unconnected-(U1-PB0-Pad8)*%
X167625000Y-77800000D03*
%TO.P,U1,9,PB1*%
%TO.N,Net-(J2-SCK)*%
X167625000Y-78600000D03*
%TO.P,U1,10,PB2*%
%TO.N,Net-(J2-MOSI)*%
X167625000Y-79400000D03*
%TO.P,U1,11,PB3*%
%TO.N,Net-(J2-MISO)*%
X167625000Y-80200000D03*
D20*
%TO.P,U1,12,PB7*%
%TO.N,Net-(J2-~{RST})*%
X165925000Y-81900000D03*
%TO.P,U1,13,~{RESET}*%
%TO.N,Net-(U1-~{RESET})*%
X165125000Y-81900000D03*
%TO.P,U1,14,VCC*%
%TO.N,VCC*%
X164325000Y-81900000D03*
%TO.P,U1,15,GND*%
%TO.N,GND*%
X163525000Y-81900000D03*
%TO.P,U1,16,XTAL2*%
%TO.N,Net-(U1-XTAL2)*%
X162725000Y-81900000D03*
%TO.P,U1,17,XTAL1*%
%TO.N,Net-(U1-XTAL1)*%
X161925000Y-81900000D03*
%TO.P,U1,18,PD0*%
%TO.N,/row0*%
X161125000Y-81900000D03*
%TO.P,U1,19,PD1*%
%TO.N,/row1*%
X160325000Y-81900000D03*
%TO.P,U1,20,PD2*%
%TO.N,/col0*%
X159525000Y-81900000D03*
%TO.P,U1,21,PD3*%
%TO.N,/col1*%
X158725000Y-81900000D03*
%TO.P,U1,22,PD5*%
%TO.N,unconnected-(U1-PD5-Pad22)*%
X157925000Y-81900000D03*
D19*
%TO.P,U1,23,GND*%
%TO.N,GND*%
X156225000Y-80200000D03*
%TO.P,U1,24,AVCC*%
%TO.N,VCC*%
X156225000Y-79400000D03*
%TO.P,U1,25,PD4*%
%TO.N,unconnected-(U1-PD4-Pad25)*%
X156225000Y-78600000D03*
%TO.P,U1,26,PD6*%
%TO.N,unconnected-(U1-PD6-Pad26)*%
X156225000Y-77800000D03*
%TO.P,U1,27,PD7*%
%TO.N,unconnected-(U1-PD7-Pad27)*%
X156225000Y-77000000D03*
%TO.P,U1,28,PB4*%
%TO.N,unconnected-(U1-PB4-Pad28)*%
X156225000Y-76200000D03*
%TO.P,U1,29,PB5*%
%TO.N,unconnected-(U1-PB5-Pad29)*%
X156225000Y-75400000D03*
%TO.P,U1,30,PB6*%
%TO.N,unconnected-(U1-PB6-Pad30)*%
X156225000Y-74600000D03*
%TO.P,U1,31,PC6*%
%TO.N,unconnected-(U1-PC6-Pad31)*%
X156225000Y-73800000D03*
%TO.P,U1,32,PC7*%
%TO.N,unconnected-(U1-PC7-Pad32)*%
X156225000Y-73000000D03*
%TO.P,U1,33,~{HWB}/PE2*%
%TO.N,Net-(U1-~{HWB}{slash}PE2)*%
X156225000Y-72200000D03*
D20*
%TO.P,U1,34,VCC*%
%TO.N,VCC*%
X157925000Y-70500000D03*
%TO.P,U1,35,GND*%
%TO.N,GND*%
X158725000Y-70500000D03*
%TO.P,U1,36,PF7*%
%TO.N,Net-(J3-Pin_1)*%
X159525000Y-70500000D03*
%TO.P,U1,37,PF6*%
%TO.N,Net-(J3-Pin_2)*%
X160325000Y-70500000D03*
%TO.P,U1,38,PF5*%
%TO.N,Net-(J3-Pin_3)*%
X161125000Y-70500000D03*
%TO.P,U1,39,PF4*%
%TO.N,unconnected-(U1-PF4-Pad39)*%
X161925000Y-70500000D03*
%TO.P,U1,40,PF1*%
%TO.N,unconnected-(U1-PF1-Pad40)*%
X162725000Y-70500000D03*
%TO.P,U1,41,PF0*%
%TO.N,unconnected-(U1-PF0-Pad41)*%
X163525000Y-70500000D03*
%TO.P,U1,42,AREF*%
%TO.N,unconnected-(U1-AREF-Pad42)*%
X164325000Y-70500000D03*
%TO.P,U1,43,GND*%
%TO.N,GND*%
X165125000Y-70500000D03*
%TO.P,U1,44,AVCC*%
%TO.N,VCC*%
X165925000Y-70500000D03*
%TD*%
D17*
%TO.P,C6,1*%
%TO.N,VCC*%
X167787500Y-64293750D03*
%TO.P,C6,2*%
%TO.N,GND*%
X165712500Y-64293750D03*
%TD*%
D21*
%TO.P,C1,1*%
%TO.N,Net-(U1-XTAL2)*%
X168068750Y-87068750D03*
%TO.P,C1,2*%
%TO.N,GND*%
X168068750Y-89143750D03*
%TD*%
D15*
%TO.P,R1,1*%
%TO.N,VCC*%
X185250000Y-62750000D03*
%TO.P,R1,2*%
%TO.N,Net-(U1-~{RESET})*%
X185250000Y-60750000D03*
%TD*%
D22*
%TO.P,J1,1,VBUS*%
%TO.N,VCC*%
X182880000Y-75400000D03*
%TO.P,J1,2,D-*%
%TO.N,Net-(J1-D-)*%
X182880000Y-76200000D03*
%TO.P,J1,3,D+*%
%TO.N,Net-(J1-D+)*%
X182880000Y-77000000D03*
%TO.P,J1,4,ID*%
%TO.N,unconnected-(J1-ID-Pad4)*%
X182880000Y-77800000D03*
%TO.P,J1,5,GND*%
%TO.N,GND*%
X182880000Y-78600000D03*
D23*
%TO.P,J1,6,Shield*%
X185280000Y-73350000D03*
D24*
X188080000Y-74325000D03*
X188080000Y-79675000D03*
D23*
X185280000Y-80650000D03*
%TD*%
D25*
%TO.P,SW1,1,1*%
%TO.N,GND*%
X179150000Y-59600000D03*
X172850000Y-59600000D03*
%TO.P,SW1,2,2*%
%TO.N,Net-(U1-~{RESET})*%
X179150000Y-63400000D03*
X172850000Y-63400000D03*
%TD*%
D21*
%TO.P,C2,1*%
%TO.N,Net-(U1-XTAL1)*%
X156162500Y-87068750D03*
%TO.P,C2,2*%
%TO.N,GND*%
X156162500Y-89143750D03*
%TD*%
D26*
%TO.P,J2,1,MISO*%
%TO.N,Net-(J2-MISO)*%
X179210000Y-89210000D03*
D27*
%TO.P,J2,2,VCC*%
%TO.N,VCC*%
X179210000Y-91750000D03*
D26*
%TO.P,J2,3,SCK*%
%TO.N,Net-(J2-SCK)*%
X181750000Y-89210000D03*
%TO.P,J2,4,MOSI*%
%TO.N,Net-(J2-MOSI)*%
X181750000Y-91750000D03*
%TO.P,J2,5,~{RST}*%
%TO.N,Net-(J2-~{RST})*%
X184290000Y-89210000D03*
%TO.P,J2,6,GND*%
%TO.N,GND*%
X184290000Y-91750000D03*
%TD*%
D28*
%TO.P,R4,1*%
%TO.N,Net-(J1-D-)*%
X178212500Y-73818750D03*
%TO.P,R4,2*%
%TO.N,Net-(U1-D-)*%
X176212500Y-73818750D03*
%TD*%
D17*
%TO.P,C3,1*%
%TO.N,GND*%
X176081250Y-83081250D03*
%TO.P,C3,2*%
%TO.N,Net-(U1-UCAP)*%
X174006250Y-83081250D03*
%TD*%
D11*
%TO.P,D4,1,K*%
%TO.N,/row0*%
X135018750Y-90487500D03*
D12*
X136218750Y-90487500D03*
D13*
X137343750Y-90487500D03*
%TO.P,D4,2,A*%
%TO.N,Net-(D4-A)*%
X140493750Y-90487500D03*
D12*
X141618750Y-90487500D03*
D14*
X142818750Y-90487500D03*
%TD*%
D29*
%TO.P,J3,1,Pin_1*%
%TO.N,Net-(J3-Pin_1)*%
X159842000Y-63510000D03*
D30*
%TO.P,J3,2,Pin_2*%
%TO.N,Net-(J3-Pin_2)*%
X161052000Y-63500000D03*
%TO.P,J3,3,Pin_3*%
%TO.N,Net-(J3-Pin_3)*%
X162252000Y-63500000D03*
%TD*%
D28*
%TO.P,R3,1*%
%TO.N,Net-(J1-D+)*%
X178212500Y-77568750D03*
%TO.P,R3,2*%
%TO.N,Net-(U1-D+)*%
X176212500Y-77568750D03*
%TD*%
D21*
%TO.P,C7,1*%
%TO.N,VCC*%
X152400000Y-79925000D03*
%TO.P,C7,2*%
%TO.N,GND*%
X152400000Y-82000000D03*
%TD*%
D31*
%TO.P,C4,1*%
%TO.N,VCC*%
X152000000Y-75825000D03*
%TO.P,C4,2*%
%TO.N,GND*%
X152000000Y-73750000D03*
%TD*%
D17*
%TO.P,C5,1*%
%TO.N,VCC*%
X156856250Y-64293750D03*
%TO.P,C5,2*%
%TO.N,GND*%
X154781250Y-64293750D03*
%TD*%
D11*
%TO.P,D1,1,K*%
%TO.N,/row0*%
X133260000Y-71120000D03*
D12*
X134460000Y-71120000D03*
D13*
X135585000Y-71120000D03*
%TO.P,D1,2,A*%
%TO.N,Net-(D1-A)*%
X138735000Y-71120000D03*
D12*
X139860000Y-71120000D03*
D14*
X141060000Y-71120000D03*
%TD*%
D32*
%TO.N,GND*%
X164587701Y-84332299D03*
X174498000Y-84836000D03*
X169164000Y-75324500D03*
X162306000Y-84328000D03*
X164338000Y-71882000D03*
%TO.N,VCC*%
X154270000Y-75850000D03*
X165849500Y-75368000D03*
X161798000Y-76708000D03*
%TO.N,Net-(U1-VBUS)*%
X170800000Y-72840000D03*
X170830000Y-76980000D03*
%TO.N,Net-(J2-~{RST})*%
X178308000Y-86614000D03*
X182880000Y-86614000D03*
%TO.N,/col0*%
X149860000Y-83909500D03*
%TD*%
D33*
%TO.N,Net-(U1-XTAL2)*%
X163838478Y-87292893D02*
X163838478Y-84063478D01*
X163343503Y-87787868D02*
X163838478Y-87292893D01*
X162725000Y-82950000D02*
X162725000Y-81900000D01*
X163838478Y-84063478D02*
X162725000Y-82950000D01*
X168068750Y-87068750D02*
X167349632Y-87787868D01*
X167349632Y-87787868D02*
X163343503Y-87787868D01*
%TO.N,GND*%
X163525000Y-82900000D02*
X164587701Y-83962701D01*
X174498000Y-84664500D02*
X176081250Y-83081250D01*
X156225000Y-80249000D02*
X156099000Y-80375000D01*
X164338000Y-71882000D02*
X164743000Y-71882000D01*
X167625000Y-75400000D02*
X169088500Y-75400000D01*
X162306000Y-86562629D02*
X162212132Y-86656497D01*
X162099264Y-86769365D02*
X162099264Y-89032107D01*
X174498000Y-84836000D02*
X174498000Y-84664500D01*
X162212132Y-86656497D02*
X162099264Y-86769365D01*
X162099264Y-89032107D02*
X161787868Y-89343503D01*
X159107000Y-71882000D02*
X164338000Y-71882000D01*
X149860000Y-82042000D02*
X149860000Y-75890000D01*
X165125000Y-71500000D02*
X165125000Y-70500000D01*
X164587701Y-83962701D02*
X164587701Y-84332299D01*
X169088500Y-75400000D02*
X169164000Y-75324500D01*
X152400000Y-82000000D02*
X149902000Y-82000000D01*
X149902000Y-82000000D02*
X149860000Y-82042000D01*
X162306000Y-84328000D02*
X162306000Y-86562629D01*
X158725000Y-70500000D02*
X158725000Y-71500000D01*
X154025000Y-80375000D02*
X152400000Y-82000000D01*
X163525000Y-81900000D02*
X163525000Y-82900000D01*
X156225000Y-80200000D02*
X156225000Y-80249000D01*
X158725000Y-71500000D02*
X159107000Y-71882000D01*
X149860000Y-75890000D02*
X152000000Y-73750000D01*
X156099000Y-80375000D02*
X154025000Y-80375000D01*
X164743000Y-71882000D02*
X165125000Y-71500000D01*
%TO.N,Net-(U1-XTAL1)*%
X156162500Y-87068750D02*
X157305882Y-88212132D01*
X160656497Y-88212132D02*
X160656497Y-84043503D01*
X161925000Y-82775000D02*
X161925000Y-81900000D01*
X157305882Y-88212132D02*
X160656497Y-88212132D01*
X160656497Y-84043503D02*
X161925000Y-82775000D01*
%TO.N,Net-(U1-UCAP)*%
X168831250Y-83081250D02*
X166550000Y-80800000D01*
X174006250Y-83081250D02*
X168831250Y-83081250D01*
X166625000Y-76200000D02*
X167625000Y-76200000D01*
X166550000Y-76275000D02*
X166625000Y-76200000D01*
X166550000Y-80800000D02*
X166550000Y-76275000D01*
%TO.N,VCC*%
X155150000Y-79925000D02*
X155150000Y-79600000D01*
X175906250Y-67194250D02*
X175768000Y-67056000D01*
X165735000Y-75253500D02*
X165735000Y-73660000D01*
X152025000Y-75850000D02*
X152000000Y-75825000D01*
X154270000Y-75850000D02*
X152025000Y-75850000D01*
X164325000Y-72975000D02*
X164325000Y-77216000D01*
X163817000Y-76708000D02*
X164325000Y-77216000D01*
X181962500Y-69500000D02*
X176350000Y-69500000D01*
X152400000Y-79925000D02*
X155150000Y-79925000D01*
X165925000Y-70500000D02*
X165925000Y-71375000D01*
X155350000Y-79400000D02*
X156225000Y-79400000D01*
X167640000Y-83820000D02*
X170180000Y-86360000D01*
X170688000Y-71374000D02*
X169062000Y-73000000D01*
X170180000Y-86360000D02*
X170180000Y-88900000D01*
X175906250Y-69056250D02*
X175906250Y-67194250D01*
X152400000Y-76225000D02*
X152000000Y-75825000D01*
X169062000Y-73000000D02*
X167625000Y-73000000D01*
X152400000Y-79925000D02*
X152400000Y-76225000D01*
X164325000Y-81900000D02*
X164325000Y-83045000D01*
X161798000Y-76454000D02*
X161798000Y-76708000D01*
X182600000Y-75400000D02*
X182600000Y-70137500D01*
X164325000Y-77216000D02*
X164325000Y-81900000D01*
X165925000Y-71375000D02*
X164325000Y-72975000D01*
X155150000Y-79600000D02*
X155350000Y-79400000D01*
X166395000Y-73000000D02*
X167625000Y-73000000D01*
X181962500Y-66037500D02*
X181962500Y-69500000D01*
X164325000Y-83045000D02*
X165100000Y-83820000D01*
X165100000Y-83820000D02*
X167640000Y-83820000D01*
X161798000Y-76708000D02*
X163817000Y-76708000D01*
X165925000Y-66156250D02*
X165925000Y-70500000D01*
X170688000Y-68072000D02*
X170688000Y-71374000D01*
X165849500Y-75368000D02*
X165735000Y-75253500D01*
X156856250Y-64293750D02*
X157925000Y-65362500D01*
X171704000Y-67056000D02*
X170688000Y-68072000D01*
X173030000Y-91750000D02*
X179210000Y-91750000D01*
X157925000Y-65362500D02*
X157925000Y-70500000D01*
X182600000Y-70137500D02*
X181962500Y-69500000D01*
X157925000Y-72581000D02*
X161798000Y-76454000D01*
X175768000Y-67056000D02*
X171704000Y-67056000D01*
X176350000Y-69500000D02*
X175906250Y-69056250D01*
X165735000Y-73660000D02*
X166395000Y-73000000D01*
X170180000Y-88900000D02*
X173030000Y-91750000D01*
X157925000Y-70500000D02*
X157925000Y-72581000D01*
X167787500Y-64293750D02*
X165925000Y-66156250D01*
X185250000Y-62750000D02*
X181962500Y-66037500D01*
%TO.N,Net-(U1-VBUS)*%
X170810000Y-77000000D02*
X167625000Y-77000000D01*
X170830000Y-76980000D02*
X170810000Y-77000000D01*
X173831250Y-69056250D02*
X170800000Y-72087500D01*
X170800000Y-72087500D02*
X170800000Y-72840000D01*
%TO.N,/row0*%
X157743750Y-86156250D02*
X150063750Y-86156250D01*
X144526000Y-91694000D02*
X136225250Y-91694000D01*
X150063750Y-86156250D02*
X144526000Y-91694000D01*
X136225250Y-91694000D02*
X135018750Y-90487500D01*
X161125000Y-82775000D02*
X157743750Y-86156250D01*
X161125000Y-81900000D02*
X161125000Y-82775000D01*
%TO.N,/row1*%
X160325000Y-82938604D02*
X157557354Y-85706250D01*
X145433750Y-85706250D02*
X142240000Y-88900000D01*
X115252500Y-90487500D02*
X113587500Y-90487500D01*
X116840000Y-88900000D02*
X115252500Y-90487500D01*
X157557354Y-85706250D02*
X145433750Y-85706250D01*
X160325000Y-81900000D02*
X160325000Y-82938604D01*
X142240000Y-88900000D02*
X116840000Y-88900000D01*
%TO.N,Net-(J1-D-)*%
X180593750Y-76200000D02*
X178212500Y-73818750D01*
X182600000Y-76200000D02*
X180593750Y-76200000D01*
%TO.N,Net-(J1-D+)*%
X182600000Y-77000000D02*
X178781250Y-77000000D01*
X178781250Y-77000000D02*
X178212500Y-77568750D01*
%TO.N,Net-(J2-MISO)*%
X179210000Y-89210000D02*
X179210000Y-82690000D01*
X179210000Y-82690000D02*
X176720000Y-80200000D01*
X176720000Y-80200000D02*
X167625000Y-80200000D01*
%TO.N,Net-(J2-SCK)*%
X181750000Y-89210000D02*
X181750000Y-82690000D01*
X181750000Y-82690000D02*
X177660000Y-78600000D01*
X177660000Y-78600000D02*
X167625000Y-78600000D01*
%TO.N,Net-(J2-MOSI)*%
X180594000Y-90424000D02*
X181750000Y-91580000D01*
X181750000Y-91580000D02*
X181750000Y-91750000D01*
X180594000Y-82804000D02*
X180594000Y-90424000D01*
X177190000Y-79400000D02*
X180594000Y-82804000D01*
X167625000Y-79400000D02*
X177190000Y-79400000D01*
%TO.N,Net-(J2-~{RST})*%
X184150000Y-86614000D02*
X182880000Y-86614000D01*
X184290000Y-89210000D02*
X184290000Y-86754000D01*
X184290000Y-86754000D02*
X184150000Y-86614000D01*
X166356396Y-81900000D02*
X165925000Y-81900000D01*
X171070396Y-86614000D02*
X166356396Y-81900000D01*
X178308000Y-86614000D02*
X171070396Y-86614000D01*
%TO.N,Net-(J3-Pin_1)*%
X159525000Y-63827000D02*
X159842000Y-63510000D01*
X159525000Y-70500000D02*
X159525000Y-63827000D01*
%TO.N,Net-(J3-Pin_2)*%
X161052000Y-63500000D02*
X161052000Y-63800000D01*
X160528000Y-64324000D02*
X160528000Y-65786000D01*
X160325000Y-65989000D02*
X160325000Y-70500000D01*
X160528000Y-65786000D02*
X160325000Y-65989000D01*
X161052000Y-63800000D02*
X160528000Y-64324000D01*
%TO.N,Net-(J3-Pin_3)*%
X161125000Y-69625000D02*
X161125000Y-70500000D01*
X162252000Y-63500000D02*
X161290000Y-64462000D01*
X161290000Y-69460000D02*
X161125000Y-69625000D01*
X161290000Y-64462000D02*
X161290000Y-69460000D01*
%TO.N,Net-(U1-~{RESET})*%
X172850000Y-63400000D02*
X166550000Y-69700000D01*
X182600000Y-63400000D02*
X185250000Y-60750000D01*
X172850000Y-63400000D02*
X179150000Y-63400000D01*
X166550000Y-71575000D02*
X165124500Y-73000500D01*
X165124500Y-81899500D02*
X165125000Y-81900000D01*
X179150000Y-63400000D02*
X182600000Y-63400000D01*
X166550000Y-69700000D02*
X166550000Y-71575000D01*
X165124500Y-73000500D02*
X165124500Y-81899500D01*
%TO.N,Net-(U1-~{HWB}{slash}PE2)*%
X151000000Y-68250000D02*
X154950000Y-72200000D01*
X154950000Y-72200000D02*
X156225000Y-72200000D01*
%TO.N,Net-(U1-D+)*%
X173243750Y-74600000D02*
X167625000Y-74600000D01*
X176212500Y-77568750D02*
X173243750Y-74600000D01*
%TO.N,Net-(U1-D-)*%
X176212500Y-73818750D02*
X176193750Y-73800000D01*
X176193750Y-73800000D02*
X167625000Y-73800000D01*
%TO.N,/col0*%
X157480000Y-83820000D02*
X157030000Y-84270000D01*
X149860000Y-83820000D02*
X149860000Y-83909500D01*
X150310000Y-84270000D02*
X149860000Y-83820000D01*
X159525000Y-81900000D02*
X159525000Y-83102208D01*
X158807208Y-83820000D02*
X157480000Y-83820000D01*
X159525000Y-83102208D02*
X158807208Y-83820000D01*
X157030000Y-84270000D02*
X150310000Y-84270000D01*
%TO.N,/col1*%
X155395000Y-80825000D02*
X153924000Y-82296000D01*
X153924000Y-82296000D02*
X153924000Y-83058000D01*
X158650000Y-80825000D02*
X155395000Y-80825000D01*
X153924000Y-83058000D02*
X153797000Y-83185000D01*
X158725000Y-80900000D02*
X158650000Y-80825000D01*
X158725000Y-81900000D02*
X158725000Y-80900000D01*
X153797000Y-83185000D02*
X134143750Y-83185000D01*
%TD*%
%TA.AperFunction,Conductor*%
%TO.N,GND*%
G36*
X164626296Y-84249999D02*
G01*
X164675659Y-84280248D01*
X164685530Y-84290120D01*
X164688704Y-84292582D01*
X164697568Y-84300153D01*
X164729418Y-84330062D01*
X164739914Y-84335832D01*
X164746974Y-84339714D01*
X164763231Y-84350392D01*
X164779064Y-84362674D01*
X164791211Y-84367930D01*
X164819156Y-84380023D01*
X164829643Y-84385160D01*
X164867908Y-84406197D01*
X164887316Y-84411180D01*
X164905710Y-84417478D01*
X164924105Y-84425438D01*
X164967254Y-84432271D01*
X164978680Y-84434638D01*
X164994222Y-84438629D01*
X165020980Y-84445500D01*
X165020981Y-84445500D01*
X165041016Y-84445500D01*
X165060413Y-84447026D01*
X165080196Y-84450160D01*
X165123674Y-84446050D01*
X165135344Y-84445500D01*
X167329548Y-84445500D01*
X167377001Y-84454939D01*
X167417229Y-84481819D01*
X168706380Y-85770971D01*
X168737386Y-85822742D01*
X168740281Y-85883019D01*
X168714382Y-85937524D01*
X168665821Y-85973350D01*
X168606100Y-85982010D01*
X168593763Y-85980750D01*
X167543741Y-85980750D01*
X167440953Y-85991250D01*
X167274415Y-86046436D01*
X167125092Y-86138538D01*
X167001038Y-86262592D01*
X166908936Y-86411915D01*
X166853750Y-86578452D01*
X166844352Y-86670453D01*
X166843250Y-86681241D01*
X166843250Y-86921392D01*
X166843251Y-87038368D01*
X166826638Y-87100368D01*
X166781251Y-87145755D01*
X166719251Y-87162368D01*
X164587978Y-87162368D01*
X164525978Y-87145755D01*
X164480591Y-87100368D01*
X164463978Y-87038368D01*
X164463978Y-84367930D01*
X164477493Y-84311635D01*
X164515093Y-84267612D01*
X164568580Y-84245457D01*
X164626296Y-84249999D01*
G37*
%TD.AperFunction*%
%TA.AperFunction,Conductor*%
G36*
X176457001Y-80834939D02*
G01*
X176497229Y-80861819D01*
X178548181Y-82912771D01*
X178575061Y-82952999D01*
X178584500Y-83000452D01*
X178584500Y-85599027D01*
X178572421Y-85652410D01*
X178538536Y-85695393D01*
X178489447Y-85719601D01*
X178434719Y-85720317D01*
X178402648Y-85713500D01*
X178402646Y-85713500D01*
X178213354Y-85713500D01*
X178213352Y-85713500D01*
X178028197Y-85752855D01*
X177855272Y-85829847D01*
X177803500Y-85867462D01*
X177702129Y-85941112D01*
X177696401Y-85947473D01*
X177654688Y-85977780D01*
X177604253Y-85988500D01*
X171380848Y-85988500D01*
X171333395Y-85979061D01*
X171293167Y-85952181D01*
X169259418Y-83918431D01*
X169229168Y-83869068D01*
X169224626Y-83811352D01*
X169246781Y-83757865D01*
X169290804Y-83720265D01*
X169347099Y-83706750D01*
X172838449Y-83706750D01*
X172888664Y-83717373D01*
X172930276Y-83747421D01*
X172956154Y-83791745D01*
X172980482Y-83865160D01*
X172983936Y-83875584D01*
X173076038Y-84024907D01*
X173200092Y-84148961D01*
X173213074Y-84156968D01*
X173349416Y-84241064D01*
X173460229Y-84277784D01*
X173515952Y-84296249D01*
X173526452Y-84297321D01*
X173618741Y-84306750D01*
X174393758Y-84306749D01*
X174496547Y-84296249D01*
X174663084Y-84241064D01*
X174812406Y-84148962D01*
X174936462Y-84024906D01*
X174938502Y-84021597D01*
X174983606Y-83978416D01*
X175044039Y-83962690D01*
X175104473Y-83978411D01*
X175149581Y-84021593D01*
X175151432Y-84024594D01*
X175275404Y-84148566D01*
X175424627Y-84240607D01*
X175591053Y-84295756D01*
X175693771Y-84306250D01*
X175831250Y-84306250D01*
X175831250Y-83331250D01*
X176331250Y-83331250D01*
X176331250Y-84306249D01*
X176468729Y-84306249D01*
X176571445Y-84295756D01*
X176737872Y-84240607D01*
X176887095Y-84148566D01*
X177011066Y-84024595D01*
X177103107Y-83875372D01*
X177158256Y-83708946D01*
X177168750Y-83606229D01*
X177168750Y-83331250D01*
X176331250Y-83331250D01*
X175831250Y-83331250D01*
X175831250Y-81856251D01*
X175693771Y-81856251D01*
X175591054Y-81866743D01*
X175424627Y-81921892D01*
X175275404Y-82013933D01*
X175151433Y-82137904D01*
X175149580Y-82140909D01*
X175104471Y-82184088D01*
X175044039Y-82199809D01*
X174983607Y-82184084D01*
X174938502Y-82140902D01*
X174936653Y-82137904D01*
X174936462Y-82137594D01*
X174936460Y-82137592D01*
X174936459Y-82137590D01*
X174812407Y-82013538D01*
X174663084Y-81921436D01*
X174496547Y-81866250D01*
X174398654Y-81856250D01*
X176331250Y-81856250D01*
X176331250Y-82831250D01*
X177168749Y-82831250D01*
X177168749Y-82556271D01*
X177158256Y-82453554D01*
X177103107Y-82287127D01*
X177011066Y-82137904D01*
X176887095Y-82013933D01*
X176737872Y-81921892D01*
X176571446Y-81866743D01*
X176468729Y-81856250D01*
X176331250Y-81856250D01*
X174398654Y-81856250D01*
X174393759Y-81855750D01*
X173618741Y-81855750D01*
X173515953Y-81866250D01*
X173349415Y-81921436D01*
X173200092Y-82013538D01*
X173076038Y-82137592D01*
X172983936Y-82286915D01*
X172983936Y-82286916D01*
X172962723Y-82350934D01*
X172956155Y-82370754D01*
X172930276Y-82415079D01*
X172888664Y-82445127D01*
X172838449Y-82455750D01*
X169141702Y-82455750D01*
X169094249Y-82446311D01*
X169054021Y-82419431D01*
X167821771Y-81187180D01*
X167791521Y-81137817D01*
X167786979Y-81080101D01*
X167809134Y-81026614D01*
X167853157Y-80989014D01*
X167909452Y-80975499D01*
X168422870Y-80975499D01*
X168422872Y-80975499D01*
X168482483Y-80969091D01*
X168617331Y-80918796D01*
X168708919Y-80850232D01*
X168744071Y-80831846D01*
X168783230Y-80825500D01*
X176409548Y-80825500D01*
X176457001Y-80834939D01*
G37*
%TD.AperFunction*%
%TA.AperFunction,Conductor*%
G36*
X162325181Y-83434771D02*
G01*
X163176659Y-84286249D01*
X163203539Y-84326477D01*
X163212978Y-84373930D01*
X163212978Y-85660924D01*
X163199463Y-85717219D01*
X163161863Y-85761242D01*
X163108376Y-85783397D01*
X163050660Y-85778855D01*
X163001297Y-85748605D01*
X162602575Y-85349883D01*
X162555944Y-85312305D01*
X162425158Y-85252576D01*
X162282843Y-85232116D01*
X162140528Y-85252576D01*
X162009740Y-85312305D01*
X161963109Y-85349883D01*
X161493678Y-85819316D01*
X161444315Y-85849566D01*
X161386599Y-85854108D01*
X161333112Y-85831953D01*
X161295512Y-85787930D01*
X161281997Y-85731635D01*
X161281997Y-84353955D01*
X161291436Y-84306502D01*
X161318316Y-84266274D01*
X162149819Y-83434771D01*
X162205406Y-83402677D01*
X162269594Y-83402677D01*
X162325181Y-83434771D01*
G37*
%TD.AperFunction*%
%TA.AperFunction,Conductor*%
G36*
X154541842Y-80564015D02*
G01*
X154585865Y-80601615D01*
X154608020Y-80655102D01*
X154603478Y-80712818D01*
X154573228Y-80762181D01*
X153809198Y-81526208D01*
X153755349Y-81557822D01*
X153692921Y-81559185D01*
X153637744Y-81529949D01*
X153603811Y-81477531D01*
X153559357Y-81343377D01*
X153467316Y-81194154D01*
X153343344Y-81070182D01*
X153340343Y-81068331D01*
X153297161Y-81023223D01*
X153281440Y-80962789D01*
X153297166Y-80902356D01*
X153340347Y-80857252D01*
X153343656Y-80855212D01*
X153467712Y-80731156D01*
X153542808Y-80609404D01*
X153587916Y-80566223D01*
X153648348Y-80550500D01*
X154485547Y-80550500D01*
X154541842Y-80564015D01*
G37*
%TD.AperFunction*%
%TA.AperFunction,Conductor*%
G36*
X172980751Y-75234939D02*
G01*
X173020979Y-75261819D01*
X175075681Y-77316521D01*
X175102561Y-77356749D01*
X175112000Y-77404202D01*
X175112000Y-77652889D01*
X175112001Y-77850500D01*
X175095388Y-77912500D01*
X175050001Y-77957887D01*
X174988001Y-77974500D01*
X171374843Y-77974500D01*
X171315106Y-77959162D01*
X171270146Y-77916942D01*
X171251088Y-77858286D01*
X171262644Y-77797703D01*
X171301958Y-77750182D01*
X171435870Y-77652889D01*
X171562533Y-77512216D01*
X171657179Y-77348284D01*
X171665435Y-77322876D01*
X171715674Y-77168256D01*
X171735460Y-76980000D01*
X171715674Y-76791744D01*
X171678482Y-76677278D01*
X171657179Y-76611715D01*
X171562533Y-76447783D01*
X171435870Y-76307110D01*
X171282730Y-76195848D01*
X171109802Y-76118855D01*
X170924648Y-76079500D01*
X170924646Y-76079500D01*
X170735354Y-76079500D01*
X170735352Y-76079500D01*
X170550197Y-76118855D01*
X170377269Y-76195848D01*
X170224131Y-76307109D01*
X170200392Y-76333474D01*
X170158677Y-76363780D01*
X170108243Y-76374500D01*
X168999500Y-76374500D01*
X168937500Y-76357887D01*
X168892113Y-76312500D01*
X168875500Y-76250500D01*
X168875499Y-75877131D01*
X168875499Y-75877128D01*
X168869091Y-75817517D01*
X168869090Y-75817515D01*
X168868380Y-75810908D01*
X168868380Y-75784399D01*
X168875000Y-75722823D01*
X168875000Y-75650000D01*
X168856410Y-75650000D01*
X168800906Y-75636884D01*
X168757144Y-75600311D01*
X168732548Y-75567455D01*
X168641459Y-75499266D01*
X168604886Y-75455503D01*
X168591770Y-75399998D01*
X168604887Y-75344494D01*
X168641455Y-75300736D01*
X168708921Y-75250230D01*
X168744071Y-75231845D01*
X168783230Y-75225500D01*
X172933298Y-75225500D01*
X172980751Y-75234939D01*
G37*
%TD.AperFunction*%
%TA.AperFunction,Conductor*%
G36*
X158780503Y-71479886D02*
G01*
X158824266Y-71516459D01*
X158892455Y-71607548D01*
X158925311Y-71632144D01*
X158961884Y-71675906D01*
X158975000Y-71731410D01*
X158975000Y-71750000D01*
X159047823Y-71750000D01*
X159109398Y-71743380D01*
X159135908Y-71743381D01*
X159176715Y-71747767D01*
X159202127Y-71750500D01*
X159847872Y-71750499D01*
X159907483Y-71744091D01*
X159907484Y-71744090D01*
X159911748Y-71743632D01*
X159938258Y-71743633D01*
X159942516Y-71744090D01*
X159942517Y-71744091D01*
X160002127Y-71750500D01*
X160647872Y-71750499D01*
X160707483Y-71744091D01*
X160707484Y-71744090D01*
X160711748Y-71743632D01*
X160738258Y-71743633D01*
X160742516Y-71744090D01*
X160742517Y-71744091D01*
X160802127Y-71750500D01*
X161447872Y-71750499D01*
X161507483Y-71744091D01*
X161507484Y-71744090D01*
X161511748Y-71743632D01*
X161538258Y-71743633D01*
X161542516Y-71744090D01*
X161542517Y-71744091D01*
X161602127Y-71750500D01*
X162247872Y-71750499D01*
X162307483Y-71744091D01*
X162307484Y-71744090D01*
X162311748Y-71743632D01*
X162338258Y-71743633D01*
X162342516Y-71744090D01*
X162342517Y-71744091D01*
X162402127Y-71750500D01*
X163047872Y-71750499D01*
X163107483Y-71744091D01*
X163107484Y-71744090D01*
X163111748Y-71743632D01*
X163138258Y-71743633D01*
X163142516Y-71744090D01*
X163142517Y-71744091D01*
X163202127Y-71750500D01*
X163847872Y-71750499D01*
X163907483Y-71744091D01*
X163907484Y-71744090D01*
X163911748Y-71743632D01*
X163938258Y-71743633D01*
X163942516Y-71744090D01*
X163942517Y-71744091D01*
X164002127Y-71750500D01*
X164365547Y-71750499D01*
X164421841Y-71764014D01*
X164465864Y-71801613D01*
X164488019Y-71855101D01*
X164483477Y-71912817D01*
X164453227Y-71962180D01*
X163941208Y-72474199D01*
X163925110Y-72487096D01*
X163877096Y-72538225D01*
X163874391Y-72541017D01*
X163854874Y-72560534D01*
X163852415Y-72563705D01*
X163844842Y-72572572D01*
X163814935Y-72604420D01*
X163805285Y-72621974D01*
X163794609Y-72638228D01*
X163782326Y-72654063D01*
X163764975Y-72694158D01*
X163759838Y-72704644D01*
X163738802Y-72742907D01*
X163733821Y-72762309D01*
X163727520Y-72780711D01*
X163719561Y-72799102D01*
X163712728Y-72842242D01*
X163710360Y-72853674D01*
X163699500Y-72895978D01*
X163699500Y-72916016D01*
X163697973Y-72935415D01*
X163694840Y-72955194D01*
X163698950Y-72998675D01*
X163699500Y-73010344D01*
X163699500Y-75958500D01*
X163682887Y-76020500D01*
X163637500Y-76065887D01*
X163575500Y-76082500D01*
X162501747Y-76082500D01*
X162451312Y-76071780D01*
X162409598Y-76041473D01*
X162403871Y-76035112D01*
X162277574Y-75943352D01*
X162250731Y-75923849D01*
X162188056Y-75895944D01*
X162094547Y-75854311D01*
X162057305Y-75828714D01*
X158586819Y-72358228D01*
X158559939Y-72318000D01*
X158550500Y-72270547D01*
X158550500Y-71658230D01*
X158556845Y-71619071D01*
X158575232Y-71583920D01*
X158625736Y-71516455D01*
X158669494Y-71479887D01*
X158724998Y-71466770D01*
X158780503Y-71479886D01*
G37*
%TD.AperFunction*%
%TA.AperFunction,Conductor*%
G36*
X189421535Y-56659104D02*
G01*
X189466920Y-56704471D01*
X189483550Y-56766450D01*
X189484000Y-57872781D01*
X189484000Y-95887500D01*
X189467387Y-95949500D01*
X189422000Y-95994887D01*
X189360000Y-96011500D01*
X105279199Y-96011500D01*
X105217430Y-95995020D01*
X105172080Y-95949961D01*
X105155202Y-95888300D01*
X105136926Y-93055468D01*
X105125829Y-91335369D01*
X112287000Y-91335369D01*
X112293409Y-91394983D01*
X112343704Y-91529831D01*
X112429954Y-91645046D01*
X112545169Y-91731296D01*
X112680017Y-91781591D01*
X112739627Y-91788000D01*
X114435372Y-91787999D01*
X114494983Y-91781591D01*
X114629831Y-91731296D01*
X114745046Y-91645046D01*
X114831296Y-91529831D01*
X114831296Y-91529828D01*
X114841980Y-91515558D01*
X114844459Y-91517413D01*
X114856320Y-91499420D01*
X114905942Y-91470869D01*
X114963100Y-91467652D01*
X115015610Y-91490453D01*
X115070169Y-91531296D01*
X115205017Y-91581591D01*
X115264627Y-91588000D01*
X116560372Y-91587999D01*
X116619983Y-91581591D01*
X116754831Y-91531296D01*
X116870046Y-91445046D01*
X116956296Y-91329831D01*
X117006591Y-91194983D01*
X117013000Y-91135373D01*
X117012999Y-89839628D01*
X117006591Y-89780017D01*
X116990425Y-89736675D01*
X116982643Y-89690392D01*
X116992620Y-89644530D01*
X117018929Y-89605661D01*
X117062775Y-89561817D01*
X117103003Y-89534938D01*
X117150454Y-89525500D01*
X117884745Y-89525500D01*
X117942220Y-89539624D01*
X117986601Y-89578780D01*
X118007778Y-89634047D01*
X118000927Y-89692830D01*
X117978654Y-89752549D01*
X117968409Y-89780016D01*
X117962000Y-89839630D01*
X117962000Y-91135369D01*
X117964204Y-91155866D01*
X117968409Y-91194983D01*
X118018704Y-91329831D01*
X118104954Y-91445046D01*
X118220169Y-91531296D01*
X118355017Y-91581591D01*
X118414627Y-91588000D01*
X119710372Y-91587999D01*
X119769983Y-91581591D01*
X119904831Y-91531296D01*
X120020046Y-91445046D01*
X120106296Y-91329831D01*
X120110459Y-91318668D01*
X120136897Y-91276431D01*
X120177828Y-91248011D01*
X120226642Y-91237999D01*
X120260837Y-91237999D01*
X120318094Y-91252010D01*
X120362411Y-91290875D01*
X120387453Y-91326639D01*
X120548361Y-91487547D01*
X120608748Y-91529830D01*
X120734764Y-91618067D01*
X120734765Y-91618067D01*
X120734766Y-91618068D01*
X120941004Y-91714239D01*
X121160808Y-91773135D01*
X121311936Y-91786357D01*
X121387499Y-91792968D01*
X121387499Y-91792967D01*
X121387500Y-91792968D01*
X121614192Y-91773135D01*
X121833996Y-91714239D01*
X122040234Y-91618068D01*
X122226639Y-91487547D01*
X122387547Y-91326639D01*
X122518068Y-91140234D01*
X122614239Y-90933996D01*
X122673135Y-90714192D01*
X122692968Y-90487500D01*
X122673135Y-90260808D01*
X122614239Y-90041004D01*
X122518068Y-89834766D01*
X122438145Y-89720623D01*
X122415985Y-89657610D01*
X122429731Y-89592243D01*
X122475392Y-89543491D01*
X122539720Y-89525500D01*
X133594250Y-89525500D01*
X133656250Y-89542113D01*
X133701637Y-89587500D01*
X133718250Y-89649500D01*
X133718250Y-91335369D01*
X133724659Y-91394983D01*
X133774954Y-91529831D01*
X133861204Y-91645046D01*
X133976419Y-91731296D01*
X134111267Y-91781591D01*
X134170877Y-91788000D01*
X135383297Y-91787999D01*
X135430750Y-91797438D01*
X135470978Y-91824318D01*
X135724447Y-92077787D01*
X135737348Y-92093889D01*
X135739462Y-92095874D01*
X135739464Y-92095877D01*
X135779834Y-92133787D01*
X135788490Y-92141916D01*
X135791286Y-92144626D01*
X135810780Y-92164120D01*
X135813954Y-92166582D01*
X135822818Y-92174153D01*
X135854668Y-92204062D01*
X135865164Y-92209832D01*
X135872224Y-92213714D01*
X135888481Y-92224392D01*
X135904314Y-92236674D01*
X135920435Y-92243649D01*
X135944406Y-92254023D01*
X135954893Y-92259160D01*
X135993158Y-92280197D01*
X136012566Y-92285180D01*
X136030960Y-92291478D01*
X136049355Y-92299438D01*
X136092504Y-92306271D01*
X136103930Y-92308638D01*
X136118358Y-92312343D01*
X136146230Y-92319500D01*
X136146231Y-92319500D01*
X136166266Y-92319500D01*
X136185663Y-92321026D01*
X136205446Y-92324160D01*
X136248924Y-92320050D01*
X136260594Y-92319500D01*
X144443256Y-92319500D01*
X144463762Y-92321764D01*
X144466665Y-92321672D01*
X144466667Y-92321673D01*
X144533872Y-92319561D01*
X144537768Y-92319500D01*
X144565349Y-92319500D01*
X144565350Y-92319500D01*
X144569319Y-92318998D01*
X144580965Y-92318080D01*
X144624627Y-92316709D01*
X144643859Y-92311120D01*
X144662918Y-92307174D01*
X144670091Y-92306268D01*
X144682792Y-92304664D01*
X144723407Y-92288582D01*
X144734444Y-92284803D01*
X144776390Y-92272618D01*
X144793629Y-92262422D01*
X144811102Y-92253862D01*
X144829732Y-92246486D01*
X144865064Y-92220814D01*
X144874830Y-92214400D01*
X144912418Y-92192171D01*
X144912417Y-92192171D01*
X144912420Y-92192170D01*
X144926585Y-92178004D01*
X144941373Y-92165373D01*
X144957587Y-92153594D01*
X144985438Y-92119926D01*
X144993279Y-92111309D01*
X146735780Y-90368809D01*
X161116116Y-90368809D01*
X161397424Y-90650116D01*
X161444055Y-90687694D01*
X161574841Y-90747423D01*
X161717156Y-90767883D01*
X161859471Y-90747423D01*
X161990259Y-90687694D01*
X162036890Y-90650116D01*
X162388908Y-90298097D01*
X161787867Y-89697056D01*
X161787866Y-89697056D01*
X161116116Y-90368808D01*
X161116116Y-90368809D01*
X146735780Y-90368809D01*
X147710839Y-89393750D01*
X154937501Y-89393750D01*
X154937501Y-89531229D01*
X154947993Y-89633945D01*
X155003142Y-89800372D01*
X155095183Y-89949595D01*
X155219154Y-90073566D01*
X155368377Y-90165607D01*
X155534803Y-90220756D01*
X155637521Y-90231250D01*
X155912500Y-90231250D01*
X155912500Y-89393750D01*
X156412500Y-89393750D01*
X156412500Y-90231249D01*
X156687479Y-90231249D01*
X156790195Y-90220756D01*
X156956622Y-90165607D01*
X157105845Y-90073566D01*
X157229816Y-89949595D01*
X157321857Y-89800372D01*
X157377006Y-89633946D01*
X157387500Y-89531229D01*
X157387500Y-89393750D01*
X156412500Y-89393750D01*
X155912500Y-89393750D01*
X154937501Y-89393750D01*
X147710839Y-89393750D01*
X150286521Y-86818069D01*
X150326750Y-86791189D01*
X150374203Y-86781750D01*
X154813000Y-86781750D01*
X154875000Y-86798363D01*
X154920387Y-86843750D01*
X154937000Y-86905750D01*
X154937000Y-87456258D01*
X154947500Y-87559046D01*
X155002686Y-87725584D01*
X155094788Y-87874907D01*
X155218840Y-87998959D01*
X155218842Y-87998960D01*
X155218844Y-87998962D01*
X155222152Y-88001002D01*
X155265334Y-88046107D01*
X155281059Y-88106539D01*
X155265338Y-88166971D01*
X155222159Y-88212080D01*
X155219154Y-88213933D01*
X155095183Y-88337904D01*
X155003142Y-88487127D01*
X154947993Y-88653553D01*
X154937500Y-88756271D01*
X154937500Y-88893750D01*
X157387499Y-88893750D01*
X157407298Y-88873951D01*
X157447526Y-88847071D01*
X157494979Y-88837632D01*
X159532872Y-88837632D01*
X159580325Y-88847071D01*
X159620553Y-88873951D01*
X159948468Y-89201865D01*
X160265731Y-89519128D01*
X160291164Y-89539624D01*
X160312414Y-89556749D01*
X160360854Y-89578871D01*
X160397023Y-89603983D01*
X160422136Y-89640151D01*
X160443675Y-89687314D01*
X160481254Y-89733946D01*
X160762563Y-90015255D01*
X161700187Y-89077631D01*
X161755774Y-89045537D01*
X161819962Y-89045537D01*
X161875549Y-89077631D01*
X162742462Y-89944544D01*
X163094481Y-89592525D01*
X163132059Y-89545894D01*
X163191788Y-89415106D01*
X163194858Y-89393750D01*
X166843751Y-89393750D01*
X166843751Y-89531229D01*
X166854243Y-89633945D01*
X166909392Y-89800372D01*
X167001433Y-89949595D01*
X167125404Y-90073566D01*
X167274627Y-90165607D01*
X167441053Y-90220756D01*
X167543771Y-90231250D01*
X167818750Y-90231250D01*
X167818750Y-89393750D01*
X168318750Y-89393750D01*
X168318750Y-90231249D01*
X168593729Y-90231249D01*
X168696445Y-90220756D01*
X168862872Y-90165607D01*
X169012095Y-90073566D01*
X169136066Y-89949595D01*
X169228107Y-89800372D01*
X169283256Y-89633946D01*
X169293750Y-89531229D01*
X169293750Y-89393750D01*
X168318750Y-89393750D01*
X167818750Y-89393750D01*
X166843751Y-89393750D01*
X163194858Y-89393750D01*
X163206574Y-89312257D01*
X163224996Y-89262863D01*
X163262273Y-89225586D01*
X163311665Y-89207164D01*
X163415250Y-89192272D01*
X163546165Y-89132484D01*
X163592848Y-89094865D01*
X164238025Y-88449686D01*
X164278253Y-88422807D01*
X164325706Y-88413368D01*
X166762113Y-88413368D01*
X166818568Y-88426965D01*
X166862643Y-88464775D01*
X166884670Y-88518505D01*
X166879819Y-88576372D01*
X166854243Y-88653553D01*
X166843750Y-88756271D01*
X166843750Y-88893750D01*
X169293749Y-88893750D01*
X169293749Y-88756271D01*
X169283256Y-88653554D01*
X169228107Y-88487127D01*
X169136066Y-88337904D01*
X169012094Y-88213932D01*
X169009093Y-88212081D01*
X168965911Y-88166973D01*
X168950190Y-88106539D01*
X168965916Y-88046106D01*
X169009097Y-88001002D01*
X169012406Y-87998962D01*
X169136462Y-87874906D01*
X169228564Y-87725584D01*
X169283749Y-87559047D01*
X169294250Y-87456259D01*
X169294249Y-86681242D01*
X169292988Y-86668900D01*
X169301647Y-86609180D01*
X169337472Y-86560618D01*
X169391978Y-86534717D01*
X169452255Y-86537612D01*
X169504027Y-86568618D01*
X169518181Y-86582772D01*
X169545061Y-86623000D01*
X169554500Y-86670453D01*
X169554500Y-88817256D01*
X169552235Y-88837762D01*
X169554439Y-88907873D01*
X169554500Y-88911768D01*
X169554500Y-88939349D01*
X169555003Y-88943334D01*
X169555918Y-88954967D01*
X169557290Y-88998626D01*
X169562879Y-89017860D01*
X169566825Y-89036916D01*
X169569335Y-89056792D01*
X169585414Y-89097404D01*
X169589197Y-89108451D01*
X169601382Y-89150391D01*
X169611580Y-89167635D01*
X169620136Y-89185100D01*
X169627514Y-89203732D01*
X169634068Y-89212753D01*
X169653180Y-89239059D01*
X169659593Y-89248822D01*
X169681826Y-89286416D01*
X169681829Y-89286419D01*
X169681830Y-89286420D01*
X169695995Y-89300585D01*
X169708627Y-89315375D01*
X169720406Y-89331587D01*
X169754058Y-89359426D01*
X169762699Y-89367289D01*
X172529197Y-92133787D01*
X172542098Y-92149889D01*
X172544212Y-92151874D01*
X172544214Y-92151877D01*
X172564690Y-92171105D01*
X172593240Y-92197916D01*
X172596036Y-92200626D01*
X172615530Y-92220120D01*
X172618704Y-92222582D01*
X172627568Y-92230153D01*
X172659418Y-92260062D01*
X172669914Y-92265832D01*
X172676974Y-92269714D01*
X172693231Y-92280392D01*
X172709064Y-92292674D01*
X172724693Y-92299437D01*
X172749156Y-92310023D01*
X172759643Y-92315160D01*
X172797908Y-92336197D01*
X172817316Y-92341180D01*
X172835710Y-92347478D01*
X172854105Y-92355438D01*
X172897254Y-92362271D01*
X172908680Y-92364638D01*
X172924222Y-92368629D01*
X172950980Y-92375500D01*
X172950981Y-92375500D01*
X172971016Y-92375500D01*
X172990413Y-92377026D01*
X173010196Y-92380160D01*
X173053674Y-92376050D01*
X173065344Y-92375500D01*
X177785501Y-92375500D01*
X177847501Y-92392113D01*
X177892888Y-92437500D01*
X177909501Y-92499500D01*
X177909501Y-92597872D01*
X177915909Y-92657483D01*
X177966204Y-92792331D01*
X178052454Y-92907546D01*
X178167669Y-92993796D01*
X178302517Y-93044091D01*
X178362127Y-93050500D01*
X180057872Y-93050499D01*
X180117483Y-93044091D01*
X180252331Y-92993796D01*
X180367546Y-92907546D01*
X180453796Y-92792331D01*
X180504091Y-92657483D01*
X180507862Y-92622405D01*
X180528239Y-92566486D01*
X180572328Y-92526501D01*
X180629969Y-92511667D01*
X180687882Y-92525400D01*
X180732725Y-92564537D01*
X180749951Y-92589138D01*
X180910859Y-92750046D01*
X181097264Y-92880567D01*
X181097265Y-92880567D01*
X181097266Y-92880568D01*
X181303504Y-92976739D01*
X181523308Y-93035635D01*
X181750000Y-93055468D01*
X181976692Y-93035635D01*
X182196496Y-92976739D01*
X182402734Y-92880568D01*
X182589139Y-92750047D01*
X182750047Y-92589139D01*
X182880568Y-92402734D01*
X182907893Y-92344134D01*
X182953649Y-92291959D01*
X183020274Y-92272539D01*
X183086899Y-92291958D01*
X183132657Y-92344133D01*
X183159866Y-92402482D01*
X183290341Y-92588819D01*
X183451180Y-92749658D01*
X183637519Y-92880134D01*
X183843673Y-92976266D01*
X184039999Y-93028871D01*
X184040000Y-93028872D01*
X184040000Y-92000000D01*
X184540000Y-92000000D01*
X184540000Y-93028871D01*
X184736326Y-92976266D01*
X184942480Y-92880134D01*
X185128819Y-92749658D01*
X185289658Y-92588819D01*
X185420134Y-92402480D01*
X185516266Y-92196326D01*
X185568872Y-92000000D01*
X184540000Y-92000000D01*
X184040000Y-92000000D01*
X184040000Y-91624000D01*
X184056613Y-91562000D01*
X184102000Y-91516613D01*
X184164000Y-91500000D01*
X185568872Y-91500000D01*
X185568871Y-91499999D01*
X185516266Y-91303673D01*
X185420134Y-91097519D01*
X185289658Y-90911180D01*
X185128819Y-90750341D01*
X184942482Y-90619866D01*
X184884133Y-90592657D01*
X184831958Y-90546899D01*
X184812539Y-90480274D01*
X184831959Y-90413649D01*
X184884134Y-90367893D01*
X184942734Y-90340568D01*
X185129139Y-90210047D01*
X185290047Y-90049139D01*
X185420568Y-89862734D01*
X185516739Y-89656496D01*
X185575635Y-89436692D01*
X185595468Y-89210000D01*
X185575635Y-88983308D01*
X185516739Y-88763504D01*
X185420568Y-88557266D01*
X185365459Y-88478562D01*
X185290046Y-88370859D01*
X185129140Y-88209953D01*
X184968377Y-88097387D01*
X184929511Y-88053069D01*
X184915500Y-87995812D01*
X184915500Y-86836744D01*
X184917764Y-86816237D01*
X184917202Y-86798363D01*
X184915561Y-86746127D01*
X184915500Y-86742232D01*
X184915500Y-86714653D01*
X184914997Y-86710672D01*
X184914080Y-86699019D01*
X184913579Y-86683067D01*
X184912709Y-86655373D01*
X184907120Y-86636140D01*
X184903174Y-86617082D01*
X184900664Y-86597206D01*
X184884588Y-86556604D01*
X184880804Y-86545553D01*
X184874859Y-86525092D01*
X184868618Y-86503610D01*
X184858414Y-86486355D01*
X184849861Y-86468895D01*
X184842486Y-86450269D01*
X184842486Y-86450268D01*
X184816808Y-86414925D01*
X184810401Y-86405171D01*
X184803358Y-86393262D01*
X184788170Y-86367580D01*
X184774006Y-86353416D01*
X184761368Y-86338619D01*
X184749594Y-86322413D01*
X184715944Y-86294574D01*
X184707303Y-86286712D01*
X184650803Y-86230212D01*
X184637903Y-86214111D01*
X184586774Y-86166097D01*
X184583977Y-86163386D01*
X184564470Y-86143879D01*
X184561290Y-86141412D01*
X184552424Y-86133839D01*
X184520582Y-86103938D01*
X184503024Y-86094285D01*
X184486764Y-86083604D01*
X184470936Y-86071327D01*
X184430851Y-86053980D01*
X184420361Y-86048841D01*
X184382091Y-86027802D01*
X184362691Y-86022821D01*
X184344284Y-86016519D01*
X184325897Y-86008562D01*
X184282758Y-86001729D01*
X184271324Y-85999361D01*
X184229019Y-85988500D01*
X184208984Y-85988500D01*
X184189586Y-85986973D01*
X184181125Y-85985633D01*
X184169805Y-85983840D01*
X184169804Y-85983840D01*
X184136751Y-85986964D01*
X184126325Y-85987950D01*
X184114656Y-85988500D01*
X183583747Y-85988500D01*
X183533312Y-85977780D01*
X183491598Y-85947473D01*
X183485871Y-85941112D01*
X183332730Y-85829849D01*
X183332729Y-85829848D01*
X183332727Y-85829847D01*
X183159802Y-85752855D01*
X182974648Y-85713500D01*
X182974646Y-85713500D01*
X182785354Y-85713500D01*
X182785352Y-85713500D01*
X182600199Y-85752854D01*
X182549935Y-85775234D01*
X182489771Y-85785572D01*
X182431965Y-85765949D01*
X182390527Y-85721122D01*
X182375500Y-85661954D01*
X182375500Y-82772740D01*
X182377763Y-82752236D01*
X182375561Y-82682144D01*
X182375500Y-82678250D01*
X182375500Y-82650657D01*
X182375500Y-82650650D01*
X182374995Y-82646653D01*
X182374080Y-82635023D01*
X182372709Y-82591372D01*
X182367119Y-82572134D01*
X182363174Y-82553082D01*
X182362792Y-82550061D01*
X182360664Y-82533208D01*
X182344578Y-82492581D01*
X182340805Y-82481560D01*
X182328617Y-82439610D01*
X182318421Y-82422369D01*
X182309863Y-82404902D01*
X182302486Y-82386268D01*
X182276798Y-82350912D01*
X182270409Y-82341184D01*
X182248170Y-82303579D01*
X182234006Y-82289415D01*
X182221369Y-82274620D01*
X182209595Y-82258414D01*
X182199424Y-82250000D01*
X182175935Y-82230568D01*
X182167305Y-82222714D01*
X180844592Y-80900001D01*
X182802448Y-80900001D01*
X182806414Y-80929272D01*
X182875944Y-81143265D01*
X182982569Y-81341407D01*
X183122853Y-81517318D01*
X183292299Y-81665359D01*
X183485451Y-81780762D01*
X183696111Y-81859825D01*
X183917497Y-81900000D01*
X185030000Y-81900000D01*
X185530000Y-81900000D01*
X186586131Y-81900000D01*
X186754100Y-81884882D01*
X186970995Y-81825022D01*
X187173712Y-81727399D01*
X187355745Y-81595144D01*
X187511239Y-81432510D01*
X187528943Y-81405690D01*
X187573670Y-81364807D01*
X187632431Y-81350000D01*
X187830000Y-81350000D01*
X187830000Y-79925000D01*
X188330000Y-79925000D01*
X188330000Y-81350000D01*
X188527824Y-81350000D01*
X188587375Y-81343597D01*
X188722089Y-81293352D01*
X188837188Y-81207188D01*
X188923352Y-81092089D01*
X188973597Y-80957375D01*
X188980000Y-80897824D01*
X188980000Y-79925000D01*
X188330000Y-79925000D01*
X187830000Y-79925000D01*
X187830000Y-78000000D01*
X188330000Y-78000000D01*
X188330000Y-79425000D01*
X188980000Y-79425000D01*
X188980000Y-78452176D01*
X188973597Y-78392624D01*
X188923352Y-78257910D01*
X188837188Y-78142811D01*
X188722089Y-78056647D01*
X188587375Y-78006402D01*
X188527824Y-78000000D01*
X188330000Y-78000000D01*
X187830000Y-78000000D01*
X187632176Y-78000000D01*
X187572624Y-78006402D01*
X187437910Y-78056647D01*
X187322811Y-78142811D01*
X187236647Y-78257910D01*
X187186402Y-78392624D01*
X187180000Y-78452176D01*
X187180000Y-79379830D01*
X187165846Y-79437361D01*
X187126616Y-79481758D01*
X187071265Y-79502887D01*
X187012430Y-79495923D01*
X186863890Y-79440175D01*
X186642503Y-79400000D01*
X185530000Y-79400000D01*
X185530000Y-81900000D01*
X185030000Y-81900000D01*
X185030000Y-80900000D01*
X182802450Y-80900000D01*
X182802448Y-80900001D01*
X180844592Y-80900001D01*
X180344590Y-80399999D01*
X182804915Y-80399999D01*
X182804916Y-80400000D01*
X185030000Y-80400000D01*
X185030000Y-79400000D01*
X184040573Y-79400000D01*
X183975406Y-79381495D01*
X183929689Y-79331504D01*
X183917067Y-79264947D01*
X183941306Y-79201689D01*
X184023352Y-79092088D01*
X184073597Y-78957375D01*
X184080000Y-78897824D01*
X184080000Y-78850000D01*
X183130000Y-78850000D01*
X183130000Y-79350000D01*
X183311037Y-79350000D01*
X183370774Y-79365338D01*
X183415734Y-79407557D01*
X183434792Y-79466214D01*
X183423236Y-79526796D01*
X183383923Y-79574318D01*
X183204254Y-79704855D01*
X183048758Y-79867491D01*
X182924806Y-80055271D01*
X182836374Y-80262166D01*
X182804915Y-80399999D01*
X180344590Y-80399999D01*
X178848193Y-78903602D01*
X178818747Y-78856632D01*
X178818021Y-78850000D01*
X181680000Y-78850000D01*
X181680000Y-78897824D01*
X181686402Y-78957375D01*
X181736647Y-79092089D01*
X181822811Y-79207188D01*
X181937910Y-79293352D01*
X182072624Y-79343597D01*
X182132176Y-79350000D01*
X182630000Y-79350000D01*
X182630000Y-78850000D01*
X181680000Y-78850000D01*
X178818021Y-78850000D01*
X178812713Y-78801525D01*
X178831294Y-78749295D01*
X178870778Y-78710382D01*
X178881829Y-78703565D01*
X178881834Y-78703564D01*
X179031156Y-78611462D01*
X179155212Y-78487406D01*
X179247314Y-78338084D01*
X179302499Y-78171547D01*
X179313000Y-78068759D01*
X179313000Y-77749500D01*
X179329613Y-77687500D01*
X179375000Y-77642113D01*
X179437000Y-77625500D01*
X181555500Y-77625500D01*
X181617500Y-77642113D01*
X181662887Y-77687500D01*
X181679500Y-77749500D01*
X181679500Y-78097869D01*
X181685938Y-78157758D01*
X181693689Y-78200714D01*
X181686807Y-78238857D01*
X181680000Y-78302176D01*
X181680000Y-78350000D01*
X181717305Y-78350000D01*
X181772809Y-78363116D01*
X181816571Y-78399688D01*
X181822452Y-78407545D01*
X181882072Y-78452176D01*
X181937669Y-78493796D01*
X182072517Y-78544091D01*
X182132127Y-78550500D01*
X183627872Y-78550499D01*
X183687483Y-78544091D01*
X183822331Y-78493796D01*
X183937546Y-78407546D01*
X183943429Y-78399688D01*
X183987191Y-78363116D01*
X184042695Y-78350000D01*
X184080000Y-78350000D01*
X184080000Y-78302176D01*
X184073192Y-78238851D01*
X184066310Y-78200712D01*
X184074060Y-78157766D01*
X184074090Y-78157485D01*
X184074091Y-78157483D01*
X184080500Y-78097873D01*
X184080499Y-77502128D01*
X184074091Y-77442517D01*
X184074089Y-77442512D01*
X184073858Y-77440360D01*
X184066577Y-77399999D01*
X184073858Y-77359644D01*
X184074090Y-77357485D01*
X184074091Y-77357483D01*
X184080500Y-77297873D01*
X184080499Y-76702128D01*
X184074091Y-76642517D01*
X184074089Y-76642512D01*
X184073858Y-76640360D01*
X184066577Y-76599999D01*
X184073858Y-76559644D01*
X184074090Y-76557485D01*
X184074091Y-76557483D01*
X184080500Y-76497873D01*
X184080499Y-75902128D01*
X184074091Y-75842517D01*
X184074090Y-75842515D01*
X184073859Y-75840362D01*
X184066576Y-75799997D01*
X184073858Y-75759647D01*
X184075746Y-75742089D01*
X184080500Y-75697873D01*
X184080499Y-75102128D01*
X184074091Y-75042517D01*
X184023796Y-74907669D01*
X183941929Y-74798309D01*
X183917691Y-74735053D01*
X183930313Y-74668496D01*
X183976030Y-74618505D01*
X184041197Y-74600000D01*
X185030000Y-74600000D01*
X185030000Y-72100000D01*
X185530000Y-72100000D01*
X185530000Y-74600000D01*
X186586131Y-74600000D01*
X186754100Y-74584882D01*
X186970995Y-74525022D01*
X187002199Y-74509996D01*
X187062953Y-74497911D01*
X187121972Y-74516722D01*
X187164528Y-74561735D01*
X187180000Y-74621716D01*
X187180000Y-75547824D01*
X187186402Y-75607375D01*
X187236647Y-75742089D01*
X187322811Y-75857188D01*
X187437910Y-75943352D01*
X187572624Y-75993597D01*
X187632176Y-76000000D01*
X187830000Y-76000000D01*
X187830000Y-74575000D01*
X188330000Y-74575000D01*
X188330000Y-76000000D01*
X188527824Y-76000000D01*
X188587375Y-75993597D01*
X188722089Y-75943352D01*
X188837188Y-75857188D01*
X188923352Y-75742089D01*
X188973597Y-75607375D01*
X188980000Y-75547824D01*
X188980000Y-74575000D01*
X188330000Y-74575000D01*
X187830000Y-74575000D01*
X187830000Y-72650000D01*
X188330000Y-72650000D01*
X188330000Y-74075000D01*
X188980000Y-74075000D01*
X188980000Y-73102176D01*
X188973597Y-73042624D01*
X188923352Y-72907910D01*
X188837188Y-72792811D01*
X188722089Y-72706647D01*
X188587375Y-72656402D01*
X188527824Y-72650000D01*
X188330000Y-72650000D01*
X187830000Y-72650000D01*
X187630292Y-72650000D01*
X187576490Y-72637720D01*
X187533344Y-72603312D01*
X187437143Y-72482678D01*
X187267700Y-72334640D01*
X187074548Y-72219237D01*
X186863888Y-72140174D01*
X186642503Y-72100000D01*
X185530000Y-72100000D01*
X185030000Y-72100000D01*
X183973869Y-72100000D01*
X183805899Y-72115117D01*
X183589004Y-72174977D01*
X183403301Y-72264407D01*
X183342547Y-72276492D01*
X183283528Y-72257681D01*
X183240972Y-72212668D01*
X183225500Y-72152687D01*
X183225500Y-70779591D01*
X183239097Y-70723135D01*
X183276907Y-70679061D01*
X183330637Y-70657034D01*
X183388504Y-70661885D01*
X183547303Y-70714506D01*
X183650021Y-70725000D01*
X183787500Y-70725000D01*
X183787500Y-69750000D01*
X184287500Y-69750000D01*
X184287500Y-70724999D01*
X184424979Y-70724999D01*
X184527695Y-70714506D01*
X184694122Y-70659357D01*
X184843345Y-70567316D01*
X184967316Y-70443345D01*
X185059357Y-70294122D01*
X185114506Y-70127696D01*
X185125000Y-70024979D01*
X185125000Y-69750000D01*
X184287500Y-69750000D01*
X183787500Y-69750000D01*
X183787500Y-68275001D01*
X183650021Y-68275001D01*
X183547304Y-68285493D01*
X183380877Y-68340642D01*
X183231654Y-68432683D01*
X183107683Y-68556654D01*
X183105830Y-68559659D01*
X183060721Y-68602838D01*
X183000289Y-68618559D01*
X182939857Y-68602834D01*
X182894752Y-68559652D01*
X182892903Y-68556654D01*
X182892712Y-68556344D01*
X182892710Y-68556342D01*
X182892709Y-68556340D01*
X182768657Y-68432288D01*
X182646904Y-68357191D01*
X182603723Y-68312084D01*
X182594075Y-68275000D01*
X184287500Y-68275000D01*
X184287500Y-69250000D01*
X185124999Y-69250000D01*
X185124999Y-68975021D01*
X185114506Y-68872304D01*
X185059357Y-68705877D01*
X184967316Y-68556654D01*
X184843345Y-68432683D01*
X184694122Y-68340642D01*
X184527696Y-68285493D01*
X184424979Y-68275000D01*
X184287500Y-68275000D01*
X182594075Y-68275000D01*
X182588000Y-68251652D01*
X182588000Y-66347952D01*
X182597439Y-66300499D01*
X182624319Y-66260271D01*
X184997772Y-63886818D01*
X185038000Y-63859938D01*
X185085453Y-63850499D01*
X185750009Y-63850499D01*
X185801402Y-63845249D01*
X185852797Y-63839999D01*
X186019334Y-63784814D01*
X186168656Y-63692712D01*
X186292712Y-63568656D01*
X186384814Y-63419334D01*
X186439999Y-63252797D01*
X186450500Y-63150009D01*
X186450499Y-62349992D01*
X186447829Y-62323859D01*
X186439999Y-62247203D01*
X186388275Y-62091111D01*
X186384814Y-62080666D01*
X186292712Y-61931344D01*
X186199047Y-61837679D01*
X186166955Y-61782094D01*
X186166955Y-61717906D01*
X186199047Y-61662320D01*
X186292712Y-61568656D01*
X186384814Y-61419334D01*
X186439999Y-61252797D01*
X186450500Y-61150009D01*
X186450499Y-60349992D01*
X186439999Y-60247203D01*
X186384814Y-60080666D01*
X186292712Y-59931344D01*
X186292711Y-59931342D01*
X186168657Y-59807288D01*
X186019334Y-59715186D01*
X185852797Y-59660000D01*
X185750009Y-59649500D01*
X184749991Y-59649500D01*
X184647203Y-59660000D01*
X184480665Y-59715186D01*
X184331342Y-59807288D01*
X184207288Y-59931342D01*
X184115186Y-60080665D01*
X184060000Y-60247202D01*
X184049500Y-60349991D01*
X184049500Y-61014546D01*
X184040061Y-61061999D01*
X184013181Y-61102227D01*
X182377228Y-62738181D01*
X182337000Y-62765061D01*
X182289547Y-62774500D01*
X180573466Y-62774500D01*
X180524653Y-62764488D01*
X180483723Y-62736070D01*
X180457284Y-62693833D01*
X180443796Y-62657669D01*
X180357546Y-62542454D01*
X180242331Y-62456204D01*
X180107483Y-62405909D01*
X180047873Y-62399500D01*
X180047869Y-62399500D01*
X178252130Y-62399500D01*
X178192515Y-62405909D01*
X178057669Y-62456204D01*
X177942454Y-62542454D01*
X177856204Y-62657669D01*
X177842716Y-62693833D01*
X177816277Y-62736070D01*
X177775347Y-62764488D01*
X177726534Y-62774500D01*
X174273466Y-62774500D01*
X174224653Y-62764488D01*
X174183723Y-62736070D01*
X174157284Y-62693833D01*
X174143796Y-62657669D01*
X174057546Y-62542454D01*
X173942331Y-62456204D01*
X173807483Y-62405909D01*
X173747873Y-62399500D01*
X173747869Y-62399500D01*
X171952130Y-62399500D01*
X171892515Y-62405909D01*
X171757669Y-62456204D01*
X171642454Y-62542454D01*
X171556204Y-62657668D01*
X171506122Y-62791944D01*
X171505909Y-62792517D01*
X171501217Y-62836164D01*
X171499500Y-62852131D01*
X171499500Y-63814546D01*
X171490061Y-63861999D01*
X171463180Y-63902227D01*
X169051985Y-66313424D01*
X166762181Y-68603228D01*
X166712818Y-68633478D01*
X166655102Y-68638020D01*
X166601615Y-68615865D01*
X166564015Y-68571842D01*
X166550500Y-68515547D01*
X166550500Y-66466702D01*
X166559939Y-66419249D01*
X166586819Y-66379021D01*
X167410271Y-65555568D01*
X167450499Y-65528688D01*
X167497952Y-65519249D01*
X168175009Y-65519249D01*
X168226402Y-65513998D01*
X168277797Y-65508749D01*
X168444334Y-65453564D01*
X168593656Y-65361462D01*
X168717712Y-65237406D01*
X168809814Y-65088084D01*
X168864999Y-64921547D01*
X168875500Y-64818759D01*
X168875499Y-63768742D01*
X168864999Y-63665953D01*
X168809814Y-63499416D01*
X168717712Y-63350094D01*
X168717711Y-63350092D01*
X168593657Y-63226038D01*
X168444334Y-63133936D01*
X168277797Y-63078750D01*
X168175009Y-63068250D01*
X167399991Y-63068250D01*
X167297203Y-63078750D01*
X167130665Y-63133936D01*
X166981342Y-63226038D01*
X166857286Y-63350094D01*
X166855242Y-63353409D01*
X166810135Y-63396587D01*
X166749704Y-63412308D01*
X166689274Y-63396585D01*
X166644168Y-63353406D01*
X166642316Y-63350404D01*
X166518345Y-63226433D01*
X166369122Y-63134392D01*
X166202696Y-63079243D01*
X166099979Y-63068750D01*
X165962500Y-63068750D01*
X165962500Y-64419750D01*
X165945887Y-64481750D01*
X165900500Y-64527137D01*
X165838500Y-64543750D01*
X164625001Y-64543750D01*
X164625001Y-64818729D01*
X164635493Y-64921445D01*
X164690642Y-65087872D01*
X164782683Y-65237095D01*
X164906654Y-65361066D01*
X165055877Y-65453107D01*
X165222303Y-65508256D01*
X165325019Y-65518749D01*
X165378544Y-65518749D01*
X165434838Y-65532263D01*
X165478862Y-65569860D01*
X165501019Y-65623346D01*
X165496479Y-65681061D01*
X165466232Y-65730425D01*
X165454879Y-65741779D01*
X165452415Y-65744955D01*
X165444842Y-65753822D01*
X165414935Y-65785670D01*
X165405285Y-65803224D01*
X165394609Y-65819478D01*
X165382326Y-65835313D01*
X165364975Y-65875408D01*
X165359838Y-65885894D01*
X165338802Y-65924157D01*
X165333821Y-65943559D01*
X165327520Y-65961961D01*
X165319561Y-65980352D01*
X165312728Y-66023492D01*
X165310360Y-66034924D01*
X165299500Y-66077228D01*
X165299500Y-66097266D01*
X165297973Y-66116665D01*
X165294840Y-66136444D01*
X165298950Y-66179925D01*
X165299500Y-66191594D01*
X165299500Y-69341770D01*
X165293154Y-69380930D01*
X165274767Y-69416081D01*
X165224267Y-69483540D01*
X165180504Y-69520113D01*
X165125000Y-69533229D01*
X165069496Y-69520113D01*
X165025733Y-69483540D01*
X164957544Y-69392451D01*
X164924689Y-69367856D01*
X164888116Y-69324094D01*
X164875000Y-69268590D01*
X164875000Y-69250000D01*
X164802174Y-69250000D01*
X164740599Y-69256619D01*
X164714092Y-69256619D01*
X164671799Y-69252072D01*
X164647873Y-69249500D01*
X164647870Y-69249500D01*
X164002129Y-69249500D01*
X163938255Y-69256367D01*
X163911748Y-69256367D01*
X163871383Y-69252027D01*
X163847873Y-69249500D01*
X163847870Y-69249500D01*
X163202129Y-69249500D01*
X163138255Y-69256367D01*
X163111748Y-69256367D01*
X163071383Y-69252027D01*
X163047873Y-69249500D01*
X163047870Y-69249500D01*
X162402129Y-69249500D01*
X162338255Y-69256367D01*
X162311748Y-69256367D01*
X162271383Y-69252027D01*
X162247873Y-69249500D01*
X162247870Y-69249500D01*
X162247864Y-69249500D01*
X162039499Y-69249500D01*
X161977500Y-69232888D01*
X161932113Y-69187501D01*
X161915500Y-69125501D01*
X161915500Y-64772452D01*
X161924939Y-64724999D01*
X161951819Y-64684771D01*
X162174772Y-64461819D01*
X162215000Y-64434939D01*
X162262453Y-64425500D01*
X162349276Y-64425500D01*
X162539568Y-64385052D01*
X162539569Y-64385051D01*
X162539571Y-64385051D01*
X162717299Y-64305922D01*
X162874692Y-64191569D01*
X163004870Y-64046992D01*
X163006742Y-64043750D01*
X164625000Y-64043750D01*
X165462500Y-64043750D01*
X165462500Y-63068751D01*
X165325021Y-63068751D01*
X165222304Y-63079243D01*
X165055877Y-63134392D01*
X164906654Y-63226433D01*
X164782683Y-63350404D01*
X164690642Y-63499627D01*
X164635493Y-63666053D01*
X164625000Y-63768771D01*
X164625000Y-64043750D01*
X163006742Y-64043750D01*
X163102144Y-63878508D01*
X163162262Y-63693482D01*
X163182598Y-63500000D01*
X163162262Y-63306518D01*
X163102144Y-63121492D01*
X163071694Y-63068751D01*
X163004870Y-62953007D01*
X162874691Y-62808429D01*
X162717300Y-62694078D01*
X162539568Y-62614947D01*
X162349276Y-62574500D01*
X162349274Y-62574500D01*
X162154726Y-62574500D01*
X162154724Y-62574500D01*
X161964431Y-62614947D01*
X161786702Y-62694077D01*
X161724885Y-62738990D01*
X161677781Y-62759961D01*
X161626219Y-62759961D01*
X161579115Y-62738990D01*
X161517299Y-62694078D01*
X161516749Y-62693833D01*
X161339568Y-62614947D01*
X161149276Y-62574500D01*
X161149274Y-62574500D01*
X160954726Y-62574500D01*
X160954724Y-62574500D01*
X160764428Y-62614948D01*
X160648958Y-62666358D01*
X160584682Y-62676303D01*
X160524214Y-62652345D01*
X160509333Y-62641205D01*
X160509331Y-62641204D01*
X160374483Y-62590909D01*
X160314873Y-62584500D01*
X160314869Y-62584500D01*
X159369130Y-62584500D01*
X159309515Y-62590909D01*
X159174669Y-62641204D01*
X159059454Y-62727454D01*
X158973204Y-62842668D01*
X158922909Y-62977516D01*
X158916500Y-63037131D01*
X158916500Y-63660675D01*
X158914972Y-63680078D01*
X158912728Y-63694242D01*
X158910361Y-63705673D01*
X158899500Y-63747979D01*
X158899500Y-63768016D01*
X158897973Y-63787415D01*
X158894840Y-63807194D01*
X158898950Y-63850675D01*
X158899500Y-63862344D01*
X158899500Y-69341770D01*
X158893154Y-69380930D01*
X158874767Y-69416081D01*
X158824267Y-69483540D01*
X158780504Y-69520113D01*
X158725000Y-69533229D01*
X158669496Y-69520113D01*
X158625733Y-69483540D01*
X158575233Y-69416081D01*
X158556846Y-69380930D01*
X158550500Y-69341770D01*
X158550500Y-65445244D01*
X158552764Y-65424736D01*
X158552575Y-65418732D01*
X158550561Y-65354613D01*
X158550500Y-65350719D01*
X158550500Y-65323154D01*
X158550500Y-65323150D01*
X158549997Y-65319170D01*
X158549081Y-65307528D01*
X158547909Y-65270223D01*
X158547710Y-65263873D01*
X158542118Y-65244626D01*
X158538174Y-65225585D01*
X158535664Y-65205708D01*
X158519579Y-65165083D01*
X158515808Y-65154068D01*
X158503618Y-65112110D01*
X158493414Y-65094855D01*
X158484861Y-65077395D01*
X158477486Y-65058769D01*
X158477486Y-65058768D01*
X158451808Y-65023425D01*
X158445401Y-65013671D01*
X158423169Y-64976079D01*
X158409006Y-64961916D01*
X158396367Y-64947117D01*
X158384595Y-64930913D01*
X158350941Y-64903073D01*
X158342299Y-64895209D01*
X157980568Y-64533478D01*
X157953688Y-64493250D01*
X157944249Y-64445797D01*
X157944249Y-63768741D01*
X157933749Y-63665953D01*
X157901508Y-63568656D01*
X157878564Y-63499416D01*
X157786462Y-63350094D01*
X157786461Y-63350092D01*
X157662407Y-63226038D01*
X157513084Y-63133936D01*
X157346547Y-63078750D01*
X157243759Y-63068250D01*
X156468741Y-63068250D01*
X156365953Y-63078750D01*
X156199415Y-63133936D01*
X156050092Y-63226038D01*
X155926036Y-63350094D01*
X155923992Y-63353409D01*
X155878885Y-63396587D01*
X155818454Y-63412308D01*
X155758024Y-63396585D01*
X155712918Y-63353406D01*
X155711066Y-63350404D01*
X155587095Y-63226433D01*
X155437872Y-63134392D01*
X155271446Y-63079243D01*
X155168729Y-63068750D01*
X155031250Y-63068750D01*
X155031250Y-65518749D01*
X155168729Y-65518749D01*
X155271445Y-65508256D01*
X155437872Y-65453107D01*
X155587095Y-65361066D01*
X155711063Y-65237098D01*
X155712914Y-65234098D01*
X155758021Y-65190914D01*
X155818454Y-65175190D01*
X155878888Y-65190913D01*
X155923996Y-65234095D01*
X155926040Y-65237409D01*
X156050092Y-65361461D01*
X156050094Y-65361462D01*
X156199416Y-65453564D01*
X156287952Y-65482902D01*
X156365952Y-65508749D01*
X156376453Y-65509821D01*
X156468741Y-65519250D01*
X157145797Y-65519249D01*
X157193250Y-65528688D01*
X157233478Y-65555568D01*
X157263181Y-65585271D01*
X157290061Y-65625499D01*
X157299500Y-65672952D01*
X157299500Y-69341770D01*
X157293154Y-69380929D01*
X157274767Y-69416081D01*
X157206204Y-69507668D01*
X157155909Y-69642516D01*
X157149500Y-69702131D01*
X157149500Y-71300500D01*
X157132887Y-71362500D01*
X157087500Y-71407887D01*
X157025500Y-71424500D01*
X155427130Y-71424500D01*
X155367515Y-71430909D01*
X155222208Y-71485105D01*
X155152516Y-71490089D01*
X155091194Y-71456604D01*
X152236818Y-68602228D01*
X152209938Y-68562000D01*
X152200499Y-68514547D01*
X152200499Y-67849991D01*
X152189999Y-67747203D01*
X152174827Y-67701418D01*
X152134814Y-67580666D01*
X152076213Y-67485658D01*
X152042713Y-67431345D01*
X152010317Y-67398949D01*
X151948693Y-67337325D01*
X151916601Y-67281740D01*
X151916601Y-67217552D01*
X151948696Y-67161964D01*
X152042316Y-67068344D01*
X152134357Y-66919122D01*
X152189506Y-66752696D01*
X152200000Y-66649979D01*
X152200000Y-66500000D01*
X149800001Y-66500000D01*
X149800001Y-66649979D01*
X149810493Y-66752695D01*
X149865642Y-66919122D01*
X149957683Y-67068345D01*
X150051303Y-67161965D01*
X150083397Y-67217552D01*
X150083397Y-67281739D01*
X150051304Y-67337327D01*
X149957287Y-67431344D01*
X149865186Y-67580665D01*
X149810000Y-67747202D01*
X149799500Y-67849990D01*
X149799500Y-68650008D01*
X149810000Y-68752796D01*
X149865186Y-68919334D01*
X149957288Y-69068657D01*
X150081342Y-69192711D01*
X150081344Y-69192712D01*
X150230666Y-69284814D01*
X150295217Y-69306204D01*
X150397202Y-69339999D01*
X150406729Y-69340972D01*
X150499991Y-69350500D01*
X151164547Y-69350499D01*
X151212000Y-69359938D01*
X151252228Y-69386818D01*
X154449197Y-72583787D01*
X154462098Y-72599889D01*
X154464212Y-72601874D01*
X154464214Y-72601877D01*
X154511561Y-72646339D01*
X154513240Y-72647916D01*
X154516036Y-72650626D01*
X154535530Y-72670120D01*
X154538704Y-72672582D01*
X154547568Y-72680153D01*
X154579418Y-72710062D01*
X154589914Y-72715832D01*
X154596974Y-72719714D01*
X154613231Y-72730392D01*
X154629064Y-72742674D01*
X154645185Y-72749649D01*
X154669156Y-72760023D01*
X154679643Y-72765160D01*
X154717908Y-72786197D01*
X154737316Y-72791180D01*
X154755710Y-72797478D01*
X154774105Y-72805438D01*
X154817254Y-72812271D01*
X154828665Y-72814634D01*
X154870981Y-72825500D01*
X154870985Y-72825500D01*
X154881340Y-72828159D01*
X154929542Y-72852720D01*
X154962699Y-72895467D01*
X154974500Y-72948263D01*
X154974500Y-73322870D01*
X154981367Y-73386745D01*
X154981367Y-73413252D01*
X154974500Y-73477129D01*
X154974500Y-74122871D01*
X154981367Y-74186747D01*
X154981367Y-74213253D01*
X154974500Y-74277129D01*
X154974500Y-74922871D01*
X154981367Y-74986747D01*
X154981367Y-75013251D01*
X154980279Y-75023373D01*
X154957178Y-75083184D01*
X154907291Y-75123460D01*
X154843955Y-75133434D01*
X154784103Y-75110439D01*
X154772664Y-75102128D01*
X154722730Y-75065849D01*
X154722729Y-75065848D01*
X154722727Y-75065847D01*
X154549802Y-74988855D01*
X154364648Y-74949500D01*
X154364646Y-74949500D01*
X154175354Y-74949500D01*
X154175352Y-74949500D01*
X153990197Y-74988855D01*
X153817272Y-75065847D01*
X153793410Y-75083184D01*
X153664129Y-75177112D01*
X153658401Y-75183473D01*
X153616688Y-75213780D01*
X153566253Y-75224500D01*
X153263768Y-75224500D01*
X153203336Y-75208777D01*
X153158229Y-75165596D01*
X153067711Y-75018842D01*
X152943659Y-74894790D01*
X152940345Y-74892746D01*
X152897163Y-74847638D01*
X152881440Y-74787204D01*
X152897164Y-74726771D01*
X152940348Y-74681664D01*
X152943348Y-74679813D01*
X153067316Y-74555845D01*
X153159357Y-74406622D01*
X153214506Y-74240196D01*
X153225000Y-74137479D01*
X153225000Y-74000000D01*
X150775001Y-74000000D01*
X150775001Y-74137479D01*
X150785493Y-74240195D01*
X150840642Y-74406622D01*
X150932683Y-74555845D01*
X151056654Y-74679816D01*
X151059656Y-74681668D01*
X151102835Y-74726774D01*
X151118558Y-74787204D01*
X151102837Y-74847635D01*
X151059659Y-74892742D01*
X151056344Y-74894786D01*
X150932288Y-75018842D01*
X150840186Y-75168165D01*
X150785000Y-75334702D01*
X150774500Y-75437490D01*
X150774500Y-76212508D01*
X150785000Y-76315296D01*
X150840186Y-76481834D01*
X150932288Y-76631157D01*
X151056342Y-76755211D01*
X151056344Y-76755212D01*
X151205666Y-76847314D01*
X151317016Y-76884212D01*
X151372202Y-76902499D01*
X151474991Y-76913000D01*
X151650500Y-76913000D01*
X151712500Y-76929613D01*
X151757887Y-76975000D01*
X151774500Y-77037000D01*
X151774500Y-78757199D01*
X151763877Y-78807414D01*
X151733829Y-78849026D01*
X151689504Y-78874904D01*
X151656609Y-78885805D01*
X151605665Y-78902686D01*
X151456342Y-78994788D01*
X151332288Y-79118842D01*
X151240186Y-79268165D01*
X151185000Y-79434702D01*
X151174500Y-79537490D01*
X151174500Y-80312508D01*
X151185000Y-80415296D01*
X151240186Y-80581834D01*
X151332288Y-80731157D01*
X151456340Y-80855209D01*
X151456342Y-80855210D01*
X151456344Y-80855212D01*
X151459652Y-80857252D01*
X151502834Y-80902357D01*
X151518559Y-80962789D01*
X151502838Y-81023221D01*
X151459659Y-81068330D01*
X151456654Y-81070183D01*
X151332683Y-81194154D01*
X151240642Y-81343377D01*
X151185493Y-81509803D01*
X151175000Y-81612521D01*
X151175000Y-81750000D01*
X152526000Y-81750000D01*
X152588000Y-81766613D01*
X152633387Y-81812000D01*
X152650000Y-81874000D01*
X152650000Y-82126000D01*
X152633387Y-82188000D01*
X152588000Y-82233387D01*
X152526000Y-82250000D01*
X151175001Y-82250000D01*
X151175001Y-82387479D01*
X151178619Y-82422899D01*
X151166605Y-82490075D01*
X151120868Y-82540722D01*
X151055261Y-82559500D01*
X135699883Y-82559500D01*
X135652431Y-82550061D01*
X135612203Y-82523182D01*
X135585323Y-82482954D01*
X135574217Y-82456142D01*
X135506846Y-82346204D01*
X135442586Y-82241341D01*
X135278974Y-82049776D01*
X135087409Y-81886164D01*
X134872609Y-81754534D01*
X134756235Y-81706330D01*
X134639860Y-81658126D01*
X134394899Y-81599317D01*
X134143750Y-81579551D01*
X133892600Y-81599317D01*
X133647639Y-81658126D01*
X133414889Y-81754535D01*
X133200092Y-81886163D01*
X133008526Y-82049776D01*
X132844913Y-82241342D01*
X132713285Y-82456139D01*
X132616876Y-82688889D01*
X132558067Y-82933850D01*
X132545479Y-83093796D01*
X132538301Y-83185000D01*
X132543932Y-83256546D01*
X132558067Y-83436149D01*
X132616876Y-83681110D01*
X132631897Y-83717373D01*
X132713284Y-83913859D01*
X132844914Y-84128659D01*
X133008526Y-84320224D01*
X133120276Y-84415668D01*
X133156691Y-84468732D01*
X133161603Y-84532902D01*
X133133689Y-84590892D01*
X133080468Y-84627079D01*
X133016277Y-84631716D01*
X132978837Y-84624500D01*
X132978835Y-84624500D01*
X132821325Y-84624500D01*
X132723329Y-84633857D01*
X132664529Y-84639472D01*
X132462876Y-84698683D01*
X132276065Y-84794990D01*
X132110865Y-84924906D01*
X131973229Y-85083745D01*
X131868146Y-85265754D01*
X131799405Y-85464366D01*
X131769496Y-85672396D01*
X131769496Y-85672398D01*
X131774395Y-85775234D01*
X131779496Y-85882330D01*
X131829047Y-86086580D01*
X131916352Y-86277752D01*
X131998607Y-86393262D01*
X132038264Y-86448952D01*
X132190372Y-86593986D01*
X132242701Y-86627616D01*
X132367175Y-86707612D01*
X132397377Y-86719703D01*
X132562293Y-86785725D01*
X132690978Y-86810527D01*
X132768664Y-86825500D01*
X132768665Y-86825500D01*
X132926170Y-86825500D01*
X132926175Y-86825500D01*
X133082968Y-86810528D01*
X133284625Y-86751316D01*
X133471432Y-86655011D01*
X133636636Y-86525092D01*
X133774269Y-86366256D01*
X133879354Y-86184244D01*
X133948094Y-85985633D01*
X133978004Y-85777602D01*
X133968004Y-85567670D01*
X133918454Y-85363424D01*
X133912250Y-85349839D01*
X133831147Y-85172247D01*
X133709237Y-85001049D01*
X133657965Y-84952161D01*
X133624574Y-84897409D01*
X133623003Y-84833298D01*
X133653670Y-84776976D01*
X133708374Y-84743507D01*
X133772478Y-84741844D01*
X133892602Y-84770683D01*
X134143750Y-84790449D01*
X134394898Y-84770683D01*
X134639861Y-84711873D01*
X134872609Y-84615466D01*
X135087409Y-84483836D01*
X135278974Y-84320224D01*
X135442586Y-84128659D01*
X135574216Y-83913859D01*
X135576022Y-83909500D01*
X135585323Y-83887046D01*
X135612203Y-83846818D01*
X135652431Y-83819939D01*
X135699883Y-83810500D01*
X136393529Y-83810500D01*
X136450929Y-83824585D01*
X136495288Y-83863641D01*
X136516530Y-83918794D01*
X136509829Y-83977515D01*
X136476707Y-84026465D01*
X136332415Y-84156969D01*
X136137885Y-84387061D01*
X135975755Y-84641032D01*
X135848928Y-84914339D01*
X135759657Y-85202120D01*
X135745709Y-85284812D01*
X135709541Y-85499230D01*
X135700041Y-85783397D01*
X135699473Y-85800372D01*
X135729631Y-86100160D01*
X135799481Y-86393262D01*
X135907771Y-86674432D01*
X136052574Y-86938664D01*
X136200824Y-87139870D01*
X136231304Y-87181238D01*
X136440770Y-87397824D01*
X136677235Y-87584558D01*
X136936480Y-87738109D01*
X137213878Y-87855736D01*
X137213879Y-87855736D01*
X137213881Y-87855737D01*
X137277929Y-87873281D01*
X137504479Y-87935340D01*
X137803097Y-87975500D01*
X138028994Y-87975500D01*
X138028996Y-87975500D01*
X138254385Y-87960412D01*
X138377744Y-87935338D01*
X138549653Y-87900396D01*
X138834287Y-87801560D01*
X139103209Y-87665668D01*
X139351619Y-87495144D01*
X139575083Y-87293032D01*
X139769615Y-87062939D01*
X139931743Y-86808970D01*
X140058573Y-86535658D01*
X140147843Y-86247879D01*
X140197959Y-85950770D01*
X140208027Y-85649631D01*
X140177868Y-85349838D01*
X140108019Y-85056739D01*
X140067925Y-84952637D01*
X139999728Y-84775567D01*
X139854925Y-84511335D01*
X139809850Y-84450159D01*
X139676196Y-84268762D01*
X139466730Y-84052176D01*
X139440945Y-84031814D01*
X139403961Y-83983670D01*
X139394264Y-83923738D01*
X139414179Y-83866386D01*
X139458932Y-83825362D01*
X139517796Y-83810500D01*
X148832485Y-83810500D01*
X148890700Y-83825015D01*
X148935286Y-83865160D01*
X148955805Y-83921536D01*
X148969536Y-84052178D01*
X148974326Y-84097757D01*
X149032820Y-84277784D01*
X149127466Y-84441716D01*
X149254129Y-84582389D01*
X149407269Y-84693651D01*
X149580197Y-84770644D01*
X149765352Y-84810000D01*
X149957209Y-84810000D01*
X150006451Y-84820196D01*
X150029146Y-84830017D01*
X150039633Y-84835155D01*
X150063159Y-84848089D01*
X150109754Y-84892961D01*
X150127410Y-84955193D01*
X150111322Y-85017849D01*
X150065869Y-85063877D01*
X150003420Y-85080750D01*
X145516494Y-85080750D01*
X145495986Y-85078485D01*
X145425863Y-85080689D01*
X145421969Y-85080750D01*
X145394400Y-85080750D01*
X145390421Y-85081252D01*
X145378791Y-85082167D01*
X145335122Y-85083539D01*
X145315878Y-85089130D01*
X145296834Y-85093074D01*
X145276958Y-85095585D01*
X145236350Y-85111663D01*
X145225304Y-85115444D01*
X145183360Y-85127632D01*
X145183357Y-85127633D01*
X145166115Y-85137829D01*
X145148654Y-85146383D01*
X145130017Y-85153762D01*
X145094681Y-85179435D01*
X145084924Y-85185845D01*
X145047330Y-85208079D01*
X145033163Y-85222246D01*
X145018374Y-85234876D01*
X145002163Y-85246654D01*
X144974322Y-85280308D01*
X144966461Y-85288947D01*
X144344383Y-85911025D01*
X144291637Y-85942321D01*
X144230343Y-85944510D01*
X144175499Y-85917056D01*
X144140520Y-85866676D01*
X144133964Y-85805698D01*
X144138004Y-85777602D01*
X144128004Y-85567670D01*
X144078454Y-85363424D01*
X144072250Y-85349839D01*
X143991147Y-85172247D01*
X143869237Y-85001050D01*
X143869236Y-85001048D01*
X143717128Y-84856014D01*
X143661396Y-84820197D01*
X143540324Y-84742387D01*
X143384359Y-84679949D01*
X143345207Y-84664275D01*
X143345206Y-84664274D01*
X143345204Y-84664274D01*
X143138836Y-84624500D01*
X143138835Y-84624500D01*
X142981325Y-84624500D01*
X142883329Y-84633857D01*
X142824529Y-84639472D01*
X142622876Y-84698683D01*
X142436065Y-84794990D01*
X142270865Y-84924906D01*
X142133229Y-85083745D01*
X142028146Y-85265754D01*
X141959405Y-85464366D01*
X141929496Y-85672396D01*
X141929496Y-85672398D01*
X141934395Y-85775234D01*
X141939496Y-85882330D01*
X141989047Y-86086580D01*
X142076352Y-86277752D01*
X142158607Y-86393262D01*
X142198264Y-86448952D01*
X142350372Y-86593986D01*
X142402701Y-86627616D01*
X142527175Y-86707612D01*
X142557377Y-86719703D01*
X142722293Y-86785725D01*
X142850978Y-86810527D01*
X142928664Y-86825500D01*
X142928665Y-86825500D01*
X143086175Y-86825500D01*
X143086179Y-86825500D01*
X143122819Y-86822001D01*
X143182331Y-86830991D01*
X143230600Y-86866945D01*
X143256253Y-86921392D01*
X143253246Y-86981505D01*
X143222288Y-87033120D01*
X142017228Y-88238181D01*
X141977000Y-88265061D01*
X141929547Y-88274500D01*
X116922744Y-88274500D01*
X116902237Y-88272235D01*
X116832127Y-88274439D01*
X116828232Y-88274500D01*
X116800650Y-88274500D01*
X116796665Y-88275003D01*
X116785033Y-88275918D01*
X116741369Y-88277290D01*
X116722129Y-88282880D01*
X116703081Y-88286825D01*
X116683209Y-88289335D01*
X116642599Y-88305413D01*
X116631554Y-88309194D01*
X116589610Y-88321381D01*
X116572365Y-88331579D01*
X116554904Y-88340133D01*
X116536267Y-88347512D01*
X116500931Y-88373185D01*
X116491174Y-88379595D01*
X116453580Y-88401829D01*
X116439413Y-88415996D01*
X116424624Y-88428626D01*
X116408413Y-88440404D01*
X116380572Y-88474058D01*
X116372711Y-88482697D01*
X115504726Y-89350681D01*
X115464498Y-89377561D01*
X115417046Y-89387000D01*
X115264630Y-89387000D01*
X115205015Y-89393409D01*
X115070167Y-89443704D01*
X115015611Y-89484545D01*
X114963166Y-89507335D01*
X114906071Y-89504168D01*
X114856468Y-89475718D01*
X114844463Y-89457582D01*
X114841980Y-89459442D01*
X114831296Y-89445171D01*
X114831296Y-89445169D01*
X114745046Y-89329954D01*
X114629831Y-89243704D01*
X114494983Y-89193409D01*
X114435373Y-89187000D01*
X114435369Y-89187000D01*
X112739630Y-89187000D01*
X112680015Y-89193409D01*
X112545169Y-89243704D01*
X112429954Y-89329954D01*
X112343704Y-89445168D01*
X112293409Y-89580016D01*
X112287000Y-89639630D01*
X112287000Y-91335369D01*
X105125829Y-91335369D01*
X105089293Y-85672398D01*
X110814496Y-85672398D01*
X110819395Y-85775234D01*
X110824496Y-85882330D01*
X110874047Y-86086580D01*
X110961352Y-86277752D01*
X111043607Y-86393262D01*
X111083264Y-86448952D01*
X111235372Y-86593986D01*
X111287701Y-86627616D01*
X111412175Y-86707612D01*
X111442377Y-86719703D01*
X111607293Y-86785725D01*
X111735978Y-86810527D01*
X111813664Y-86825500D01*
X111813665Y-86825500D01*
X111971170Y-86825500D01*
X111971175Y-86825500D01*
X112127968Y-86810528D01*
X112329625Y-86751316D01*
X112516432Y-86655011D01*
X112681636Y-86525092D01*
X112819269Y-86366256D01*
X112924354Y-86184244D01*
X112993094Y-85985633D01*
X113019730Y-85800372D01*
X114744473Y-85800372D01*
X114774631Y-86100160D01*
X114844481Y-86393262D01*
X114952771Y-86674432D01*
X115097574Y-86938664D01*
X115245824Y-87139870D01*
X115276304Y-87181238D01*
X115485770Y-87397824D01*
X115722235Y-87584558D01*
X115981480Y-87738109D01*
X116258878Y-87855736D01*
X116258879Y-87855736D01*
X116258881Y-87855737D01*
X116322929Y-87873281D01*
X116549479Y-87935340D01*
X116848097Y-87975500D01*
X117073994Y-87975500D01*
X117073996Y-87975500D01*
X117299385Y-87960412D01*
X117422744Y-87935338D01*
X117594653Y-87900396D01*
X117879287Y-87801560D01*
X118148209Y-87665668D01*
X118396619Y-87495144D01*
X118620083Y-87293032D01*
X118814615Y-87062939D01*
X118976743Y-86808970D01*
X119103573Y-86535658D01*
X119192843Y-86247879D01*
X119242959Y-85950770D01*
X119252266Y-85672398D01*
X120974496Y-85672398D01*
X120979395Y-85775234D01*
X120984496Y-85882330D01*
X121034047Y-86086580D01*
X121121352Y-86277752D01*
X121203607Y-86393262D01*
X121243264Y-86448952D01*
X121395372Y-86593986D01*
X121447701Y-86627616D01*
X121572175Y-86707612D01*
X121602377Y-86719703D01*
X121767293Y-86785725D01*
X121895978Y-86810527D01*
X121973664Y-86825500D01*
X121973665Y-86825500D01*
X122131170Y-86825500D01*
X122131175Y-86825500D01*
X122287968Y-86810528D01*
X122489625Y-86751316D01*
X122676432Y-86655011D01*
X122841636Y-86525092D01*
X122979269Y-86366256D01*
X123084354Y-86184244D01*
X123153094Y-85985633D01*
X123183004Y-85777602D01*
X123173004Y-85567670D01*
X123123454Y-85363424D01*
X123117250Y-85349839D01*
X123036147Y-85172247D01*
X122914237Y-85001050D01*
X122914236Y-85001048D01*
X122762128Y-84856014D01*
X122706396Y-84820197D01*
X122585324Y-84742387D01*
X122429359Y-84679949D01*
X122390207Y-84664275D01*
X122390206Y-84664274D01*
X122390204Y-84664274D01*
X122183836Y-84624500D01*
X122183835Y-84624500D01*
X122026325Y-84624500D01*
X121928329Y-84633857D01*
X121869529Y-84639472D01*
X121667876Y-84698683D01*
X121481065Y-84794990D01*
X121315865Y-84924906D01*
X121178229Y-85083745D01*
X121073146Y-85265754D01*
X121004405Y-85464366D01*
X120974496Y-85672396D01*
X120974496Y-85672398D01*
X119252266Y-85672398D01*
X119253027Y-85649631D01*
X119222868Y-85349838D01*
X119153019Y-85056739D01*
X119112925Y-84952637D01*
X119044728Y-84775567D01*
X118899925Y-84511335D01*
X118854850Y-84450159D01*
X118721196Y-84268762D01*
X118511730Y-84052176D01*
X118485946Y-84031815D01*
X118275264Y-83865441D01*
X118076006Y-83747421D01*
X118016020Y-83711891D01*
X117826048Y-83631336D01*
X117738618Y-83594262D01*
X117448025Y-83514661D01*
X117448024Y-83514660D01*
X117448021Y-83514660D01*
X117149403Y-83474500D01*
X116923506Y-83474500D01*
X116923504Y-83474500D01*
X116698114Y-83489587D01*
X116402848Y-83549603D01*
X116118209Y-83648441D01*
X115849296Y-83784328D01*
X115600877Y-83954858D01*
X115377418Y-84156966D01*
X115182885Y-84387061D01*
X115020755Y-84641032D01*
X114893928Y-84914339D01*
X114804657Y-85202120D01*
X114790709Y-85284812D01*
X114754541Y-85499230D01*
X114745041Y-85783397D01*
X114744473Y-85800372D01*
X113019730Y-85800372D01*
X113023004Y-85777602D01*
X113013004Y-85567670D01*
X112963454Y-85363424D01*
X112957250Y-85349839D01*
X112876147Y-85172247D01*
X112754237Y-85001049D01*
X112702965Y-84952161D01*
X112669574Y-84897409D01*
X112668003Y-84833298D01*
X112698670Y-84776976D01*
X112753374Y-84743507D01*
X112817478Y-84741844D01*
X112937602Y-84770683D01*
X113188750Y-84790449D01*
X113439898Y-84770683D01*
X113684861Y-84711873D01*
X113917609Y-84615466D01*
X114132409Y-84483836D01*
X114323974Y-84320224D01*
X114487586Y-84128659D01*
X114619216Y-83913859D01*
X114715623Y-83681111D01*
X114774433Y-83436148D01*
X114794199Y-83185000D01*
X114774433Y-82933852D01*
X114715623Y-82688889D01*
X114619216Y-82456141D01*
X114487586Y-82241341D01*
X114323974Y-82049776D01*
X114132409Y-81886164D01*
X113917609Y-81754534D01*
X113801235Y-81706330D01*
X113684860Y-81658126D01*
X113439899Y-81599317D01*
X113188750Y-81579551D01*
X112937600Y-81599317D01*
X112692639Y-81658126D01*
X112459889Y-81754535D01*
X112245092Y-81886163D01*
X112053526Y-82049776D01*
X111889913Y-82241342D01*
X111758285Y-82456139D01*
X111661876Y-82688889D01*
X111603067Y-82933850D01*
X111590479Y-83093796D01*
X111583301Y-83185000D01*
X111588932Y-83256546D01*
X111603067Y-83436149D01*
X111661876Y-83681110D01*
X111676897Y-83717373D01*
X111758284Y-83913859D01*
X111889914Y-84128659D01*
X112053526Y-84320224D01*
X112165276Y-84415668D01*
X112201691Y-84468732D01*
X112206603Y-84532902D01*
X112178689Y-84590892D01*
X112125468Y-84627079D01*
X112061277Y-84631716D01*
X112023837Y-84624500D01*
X112023835Y-84624500D01*
X111866325Y-84624500D01*
X111768329Y-84633857D01*
X111709529Y-84639472D01*
X111507876Y-84698683D01*
X111321065Y-84794990D01*
X111155865Y-84924906D01*
X111018229Y-85083745D01*
X110913146Y-85265754D01*
X110844405Y-85464366D01*
X110814496Y-85672396D01*
X110814496Y-85672398D01*
X105089293Y-85672398D01*
X105056858Y-80645000D01*
X117933301Y-80645000D01*
X117934674Y-80662442D01*
X117953067Y-80896149D01*
X118011876Y-81141110D01*
X118012769Y-81143265D01*
X118108284Y-81373859D01*
X118239914Y-81588659D01*
X118403526Y-81780224D01*
X118595091Y-81943836D01*
X118809891Y-82075466D01*
X119042639Y-82171873D01*
X119287602Y-82230683D01*
X119538750Y-82250449D01*
X119789898Y-82230683D01*
X120034861Y-82171873D01*
X120267609Y-82075466D01*
X120482409Y-81943836D01*
X120673974Y-81780224D01*
X120837586Y-81588659D01*
X120969216Y-81373859D01*
X121065623Y-81141111D01*
X121124433Y-80896148D01*
X121144199Y-80645000D01*
X138888301Y-80645000D01*
X138889674Y-80662442D01*
X138908067Y-80896149D01*
X138966876Y-81141110D01*
X138967769Y-81143265D01*
X139063284Y-81373859D01*
X139194914Y-81588659D01*
X139358526Y-81780224D01*
X139550091Y-81943836D01*
X139764891Y-82075466D01*
X139997639Y-82171873D01*
X140242602Y-82230683D01*
X140493750Y-82250449D01*
X140744898Y-82230683D01*
X140989861Y-82171873D01*
X141222609Y-82075466D01*
X141437409Y-81943836D01*
X141628974Y-81780224D01*
X141792586Y-81588659D01*
X141924216Y-81373859D01*
X142020623Y-81141111D01*
X142079433Y-80896148D01*
X142099199Y-80645000D01*
X142079433Y-80393852D01*
X142020623Y-80148889D01*
X141924216Y-79916141D01*
X141792586Y-79701341D01*
X141628974Y-79509776D01*
X141437409Y-79346164D01*
X141222609Y-79214534D01*
X141098738Y-79163225D01*
X140989860Y-79118126D01*
X140744899Y-79059317D01*
X140493750Y-79039551D01*
X140242600Y-79059317D01*
X139997639Y-79118126D01*
X139764889Y-79214535D01*
X139550092Y-79346163D01*
X139358526Y-79509776D01*
X139194913Y-79701342D01*
X139181719Y-79722873D01*
X139063284Y-79916141D01*
X139049165Y-79950225D01*
X138966876Y-80148889D01*
X138908067Y-80393850D01*
X138888301Y-80644999D01*
X138888301Y-80645000D01*
X121144199Y-80645000D01*
X121124433Y-80393852D01*
X121065623Y-80148889D01*
X120969216Y-79916141D01*
X120837586Y-79701341D01*
X120673974Y-79509776D01*
X120482409Y-79346164D01*
X120267609Y-79214534D01*
X120143738Y-79163225D01*
X120034860Y-79118126D01*
X119789899Y-79059317D01*
X119538750Y-79039551D01*
X119287600Y-79059317D01*
X119042639Y-79118126D01*
X118809889Y-79214535D01*
X118595092Y-79346163D01*
X118403526Y-79509776D01*
X118239913Y-79701342D01*
X118226719Y-79722873D01*
X118108284Y-79916141D01*
X118094165Y-79950225D01*
X118011876Y-80148889D01*
X117953067Y-80393850D01*
X117933301Y-80644999D01*
X117933301Y-80645000D01*
X105056858Y-80645000D01*
X105010761Y-73500000D01*
X150775000Y-73500000D01*
X151750000Y-73500000D01*
X151750000Y-72662501D01*
X151475021Y-72662501D01*
X151372304Y-72672993D01*
X151205877Y-72728142D01*
X151056654Y-72820183D01*
X150932683Y-72944154D01*
X150840642Y-73093377D01*
X150785493Y-73259803D01*
X150775000Y-73362521D01*
X150775000Y-73500000D01*
X105010761Y-73500000D01*
X105005358Y-72662500D01*
X152250000Y-72662500D01*
X152250000Y-73500000D01*
X153224999Y-73500000D01*
X153224999Y-73362521D01*
X153214506Y-73259804D01*
X153159357Y-73093377D01*
X153067316Y-72944154D01*
X152943345Y-72820183D01*
X152794122Y-72728142D01*
X152627696Y-72672993D01*
X152524979Y-72662500D01*
X152250000Y-72662500D01*
X105005358Y-72662500D01*
X105000876Y-71967869D01*
X111639500Y-71967869D01*
X111643228Y-72002547D01*
X111645909Y-72027483D01*
X111696204Y-72162331D01*
X111782454Y-72277546D01*
X111897669Y-72363796D01*
X112032517Y-72414091D01*
X112092127Y-72420500D01*
X113787872Y-72420499D01*
X113847483Y-72414091D01*
X113982331Y-72363796D01*
X114097546Y-72277546D01*
X114183796Y-72162331D01*
X114183796Y-72162328D01*
X114194480Y-72148058D01*
X114196959Y-72149913D01*
X114208820Y-72131920D01*
X114258442Y-72103369D01*
X114315600Y-72100152D01*
X114368110Y-72122953D01*
X114422669Y-72163796D01*
X114557517Y-72214091D01*
X114617127Y-72220500D01*
X115912872Y-72220499D01*
X115972483Y-72214091D01*
X116107331Y-72163796D01*
X116222546Y-72077546D01*
X116308796Y-71962331D01*
X116359091Y-71827483D01*
X116365500Y-71767873D01*
X116365500Y-71767869D01*
X117314500Y-71767869D01*
X117320909Y-71827483D01*
X117371204Y-71962331D01*
X117457454Y-72077546D01*
X117572669Y-72163796D01*
X117707517Y-72214091D01*
X117767127Y-72220500D01*
X119062872Y-72220499D01*
X119122483Y-72214091D01*
X119257331Y-72163796D01*
X119372546Y-72077546D01*
X119458796Y-71962331D01*
X119462959Y-71951168D01*
X119489397Y-71908931D01*
X119530328Y-71880511D01*
X119579142Y-71870499D01*
X119613337Y-71870499D01*
X119670594Y-71884510D01*
X119714911Y-71923375D01*
X119739953Y-71959139D01*
X119900861Y-72120047D01*
X119947476Y-72152687D01*
X120087264Y-72250567D01*
X120087265Y-72250567D01*
X120087266Y-72250568D01*
X120293504Y-72346739D01*
X120513308Y-72405635D01*
X120740000Y-72425468D01*
X120966692Y-72405635D01*
X121186496Y-72346739D01*
X121392734Y-72250568D01*
X121579139Y-72120047D01*
X121731317Y-71967869D01*
X131959500Y-71967869D01*
X131963228Y-72002547D01*
X131965909Y-72027483D01*
X132016204Y-72162331D01*
X132102454Y-72277546D01*
X132217669Y-72363796D01*
X132352517Y-72414091D01*
X132412127Y-72420500D01*
X134107872Y-72420499D01*
X134167483Y-72414091D01*
X134302331Y-72363796D01*
X134417546Y-72277546D01*
X134503796Y-72162331D01*
X134503796Y-72162328D01*
X134514480Y-72148058D01*
X134516959Y-72149913D01*
X134528820Y-72131920D01*
X134578442Y-72103369D01*
X134635600Y-72100152D01*
X134688110Y-72122953D01*
X134742669Y-72163796D01*
X134877517Y-72214091D01*
X134937127Y-72220500D01*
X136232872Y-72220499D01*
X136292483Y-72214091D01*
X136427331Y-72163796D01*
X136542546Y-72077546D01*
X136628796Y-71962331D01*
X136679091Y-71827483D01*
X136685500Y-71767873D01*
X136685500Y-71767869D01*
X137634500Y-71767869D01*
X137640909Y-71827483D01*
X137691204Y-71962331D01*
X137777454Y-72077546D01*
X137892669Y-72163796D01*
X138027517Y-72214091D01*
X138087127Y-72220500D01*
X139382872Y-72220499D01*
X139442483Y-72214091D01*
X139577331Y-72163796D01*
X139692546Y-72077546D01*
X139778796Y-71962331D01*
X139782959Y-71951168D01*
X139809397Y-71908931D01*
X139850328Y-71880511D01*
X139899142Y-71870499D01*
X139933337Y-71870499D01*
X139990594Y-71884510D01*
X140034911Y-71923375D01*
X140059953Y-71959139D01*
X140220861Y-72120047D01*
X140267476Y-72152687D01*
X140407264Y-72250567D01*
X140407265Y-72250567D01*
X140407266Y-72250568D01*
X140613504Y-72346739D01*
X140833308Y-72405635D01*
X141060000Y-72425468D01*
X141286692Y-72405635D01*
X141506496Y-72346739D01*
X141712734Y-72250568D01*
X141899139Y-72120047D01*
X142060047Y-71959139D01*
X142190568Y-71772734D01*
X142286739Y-71566496D01*
X142345635Y-71346692D01*
X142365468Y-71120000D01*
X142345635Y-70893308D01*
X142286739Y-70673504D01*
X142190568Y-70467266D01*
X142174036Y-70443656D01*
X142060046Y-70280859D01*
X141899140Y-70119953D01*
X141712735Y-69989432D01*
X141506497Y-69893261D01*
X141286689Y-69834364D01*
X141060000Y-69814531D01*
X140833310Y-69834364D01*
X140613502Y-69893261D01*
X140407264Y-69989432D01*
X140220860Y-70119953D01*
X140059952Y-70280861D01*
X140034911Y-70316624D01*
X139990593Y-70355490D01*
X139933337Y-70369500D01*
X139899142Y-70369500D01*
X139850329Y-70359488D01*
X139809398Y-70331069D01*
X139782959Y-70288831D01*
X139780318Y-70281750D01*
X139778796Y-70277669D01*
X139692546Y-70162454D01*
X139577331Y-70076204D01*
X139442483Y-70025909D01*
X139382873Y-70019500D01*
X139382869Y-70019500D01*
X138087130Y-70019500D01*
X138027515Y-70025909D01*
X137892669Y-70076204D01*
X137777454Y-70162454D01*
X137691204Y-70277668D01*
X137640909Y-70412516D01*
X137634500Y-70472130D01*
X137634500Y-71767869D01*
X136685500Y-71767869D01*
X136685499Y-70472128D01*
X136679091Y-70412517D01*
X136628796Y-70277669D01*
X136542546Y-70162454D01*
X136427331Y-70076204D01*
X136292483Y-70025909D01*
X136232873Y-70019500D01*
X136232869Y-70019500D01*
X134937130Y-70019500D01*
X134877515Y-70025909D01*
X134742667Y-70076204D01*
X134688111Y-70117045D01*
X134635666Y-70139835D01*
X134578571Y-70136668D01*
X134528968Y-70108218D01*
X134516963Y-70090082D01*
X134514480Y-70091942D01*
X134503796Y-70077671D01*
X134503796Y-70077669D01*
X134417546Y-69962454D01*
X134302331Y-69876204D01*
X134167483Y-69825909D01*
X134107873Y-69819500D01*
X134107869Y-69819500D01*
X132412130Y-69819500D01*
X132352515Y-69825909D01*
X132217669Y-69876204D01*
X132102454Y-69962454D01*
X132016204Y-70077668D01*
X131966662Y-70210496D01*
X131965909Y-70212517D01*
X131959595Y-70271249D01*
X131959500Y-70272130D01*
X131959500Y-71967869D01*
X121731317Y-71967869D01*
X121740047Y-71959139D01*
X121870568Y-71772734D01*
X121966739Y-71566496D01*
X122025635Y-71346692D01*
X122045468Y-71120000D01*
X122025635Y-70893308D01*
X121966739Y-70673504D01*
X121870568Y-70467266D01*
X121854036Y-70443656D01*
X121740046Y-70280859D01*
X121579140Y-70119953D01*
X121392735Y-69989432D01*
X121186497Y-69893261D01*
X120966689Y-69834364D01*
X120740000Y-69814531D01*
X120513310Y-69834364D01*
X120293502Y-69893261D01*
X120087264Y-69989432D01*
X119900860Y-70119953D01*
X119739952Y-70280861D01*
X119714911Y-70316624D01*
X119670593Y-70355490D01*
X119613337Y-70369500D01*
X119579142Y-70369500D01*
X119530329Y-70359488D01*
X119489398Y-70331069D01*
X119462959Y-70288831D01*
X119460318Y-70281750D01*
X119458796Y-70277669D01*
X119372546Y-70162454D01*
X119257331Y-70076204D01*
X119122483Y-70025909D01*
X119062873Y-70019500D01*
X119062869Y-70019500D01*
X117767130Y-70019500D01*
X117707515Y-70025909D01*
X117572669Y-70076204D01*
X117457454Y-70162454D01*
X117371204Y-70277668D01*
X117320909Y-70412516D01*
X117314500Y-70472130D01*
X117314500Y-71767869D01*
X116365500Y-71767869D01*
X116365499Y-70472128D01*
X116359091Y-70412517D01*
X116308796Y-70277669D01*
X116222546Y-70162454D01*
X116107331Y-70076204D01*
X115972483Y-70025909D01*
X115912873Y-70019500D01*
X115912869Y-70019500D01*
X114617130Y-70019500D01*
X114557515Y-70025909D01*
X114422667Y-70076204D01*
X114368111Y-70117045D01*
X114315666Y-70139835D01*
X114258571Y-70136668D01*
X114208968Y-70108218D01*
X114196963Y-70090082D01*
X114194480Y-70091942D01*
X114183796Y-70077671D01*
X114183796Y-70077669D01*
X114097546Y-69962454D01*
X113982331Y-69876204D01*
X113847483Y-69825909D01*
X113787873Y-69819500D01*
X113787869Y-69819500D01*
X112092130Y-69819500D01*
X112032515Y-69825909D01*
X111897669Y-69876204D01*
X111782454Y-69962454D01*
X111696204Y-70077668D01*
X111646662Y-70210496D01*
X111645909Y-70212517D01*
X111639595Y-70271249D01*
X111639500Y-70272130D01*
X111639500Y-71967869D01*
X105000876Y-71967869D01*
X104966389Y-66622398D01*
X110814496Y-66622398D01*
X110824496Y-66832330D01*
X110861728Y-66985803D01*
X110874047Y-67036580D01*
X110961352Y-67227752D01*
X111043607Y-67343262D01*
X111083264Y-67398952D01*
X111235372Y-67543986D01*
X111292447Y-67580666D01*
X111412175Y-67657612D01*
X111442050Y-67669572D01*
X111607293Y-67735725D01*
X111735978Y-67760527D01*
X111813664Y-67775500D01*
X111813665Y-67775500D01*
X111971170Y-67775500D01*
X111971175Y-67775500D01*
X112127968Y-67760528D01*
X112329625Y-67701316D01*
X112516432Y-67605011D01*
X112681636Y-67475092D01*
X112819269Y-67316256D01*
X112924354Y-67134244D01*
X112993094Y-66935633D01*
X113019730Y-66750372D01*
X114744473Y-66750372D01*
X114774631Y-67050160D01*
X114844481Y-67343262D01*
X114952771Y-67624432D01*
X115097574Y-67888664D01*
X115189140Y-68012938D01*
X115276304Y-68131238D01*
X115485770Y-68347824D01*
X115722235Y-68534558D01*
X115981480Y-68688109D01*
X116258878Y-68805736D01*
X116258879Y-68805736D01*
X116258881Y-68805737D01*
X116322929Y-68823281D01*
X116549479Y-68885340D01*
X116848097Y-68925500D01*
X117073994Y-68925500D01*
X117073996Y-68925500D01*
X117299385Y-68910412D01*
X117422744Y-68885338D01*
X117594653Y-68850396D01*
X117879287Y-68751560D01*
X118148209Y-68615668D01*
X118396619Y-68445144D01*
X118620083Y-68243032D01*
X118814615Y-68012939D01*
X118976743Y-67758970D01*
X119103573Y-67485658D01*
X119192843Y-67197879D01*
X119242959Y-66900770D01*
X119252266Y-66622398D01*
X120974496Y-66622398D01*
X120984496Y-66832330D01*
X121021728Y-66985803D01*
X121034047Y-67036580D01*
X121121352Y-67227752D01*
X121203607Y-67343262D01*
X121243264Y-67398952D01*
X121395372Y-67543986D01*
X121452447Y-67580666D01*
X121572175Y-67657612D01*
X121602050Y-67669572D01*
X121767293Y-67735725D01*
X121895978Y-67760527D01*
X121973664Y-67775500D01*
X121973665Y-67775500D01*
X122131170Y-67775500D01*
X122131175Y-67775500D01*
X122287968Y-67760528D01*
X122489625Y-67701316D01*
X122676432Y-67605011D01*
X122841636Y-67475092D01*
X122979269Y-67316256D01*
X123084354Y-67134244D01*
X123153094Y-66935633D01*
X123183004Y-66727602D01*
X123177993Y-66622398D01*
X131769496Y-66622398D01*
X131779496Y-66832330D01*
X131816728Y-66985803D01*
X131829047Y-67036580D01*
X131916352Y-67227752D01*
X131998607Y-67343262D01*
X132038264Y-67398952D01*
X132190372Y-67543986D01*
X132247447Y-67580666D01*
X132367175Y-67657612D01*
X132397050Y-67669572D01*
X132562293Y-67735725D01*
X132690978Y-67760527D01*
X132768664Y-67775500D01*
X132768665Y-67775500D01*
X132926170Y-67775500D01*
X132926175Y-67775500D01*
X133082968Y-67760528D01*
X133284625Y-67701316D01*
X133471432Y-67605011D01*
X133636636Y-67475092D01*
X133774269Y-67316256D01*
X133879354Y-67134244D01*
X133948094Y-66935633D01*
X133974730Y-66750372D01*
X135699473Y-66750372D01*
X135729631Y-67050160D01*
X135799481Y-67343262D01*
X135907771Y-67624432D01*
X136052574Y-67888664D01*
X136144140Y-68012938D01*
X136231304Y-68131238D01*
X136440770Y-68347824D01*
X136677235Y-68534558D01*
X136936480Y-68688109D01*
X137213878Y-68805736D01*
X137213879Y-68805736D01*
X137213881Y-68805737D01*
X137277929Y-68823281D01*
X137504479Y-68885340D01*
X137803097Y-68925500D01*
X138028994Y-68925500D01*
X138028996Y-68925500D01*
X138254385Y-68910412D01*
X138377744Y-68885338D01*
X138549653Y-68850396D01*
X138834287Y-68751560D01*
X139103209Y-68615668D01*
X139351619Y-68445144D01*
X139575083Y-68243032D01*
X139769615Y-68012939D01*
X139931743Y-67758970D01*
X140058573Y-67485658D01*
X140147843Y-67197879D01*
X140197959Y-66900770D01*
X140207266Y-66622398D01*
X141929496Y-66622398D01*
X141939496Y-66832330D01*
X141976728Y-66985803D01*
X141989047Y-67036580D01*
X142076352Y-67227752D01*
X142158607Y-67343262D01*
X142198264Y-67398952D01*
X142350372Y-67543986D01*
X142407447Y-67580666D01*
X142527175Y-67657612D01*
X142557050Y-67669572D01*
X142722293Y-67735725D01*
X142850978Y-67760527D01*
X142928664Y-67775500D01*
X142928665Y-67775500D01*
X143086170Y-67775500D01*
X143086175Y-67775500D01*
X143242968Y-67760528D01*
X143444625Y-67701316D01*
X143631432Y-67605011D01*
X143796636Y-67475092D01*
X143934269Y-67316256D01*
X144039354Y-67134244D01*
X144108094Y-66935633D01*
X144138004Y-66727602D01*
X144128004Y-66517670D01*
X144078454Y-66313424D01*
X144078452Y-66313419D01*
X143991147Y-66122247D01*
X143904095Y-66000000D01*
X149800000Y-66000000D01*
X150750000Y-66000000D01*
X150750000Y-65150001D01*
X150500021Y-65150001D01*
X150397304Y-65160493D01*
X150230877Y-65215642D01*
X150081654Y-65307683D01*
X149957683Y-65431654D01*
X149865642Y-65580877D01*
X149810493Y-65747303D01*
X149800000Y-65850021D01*
X149800000Y-66000000D01*
X143904095Y-66000000D01*
X143895744Y-65988273D01*
X143869236Y-65951048D01*
X143717128Y-65806014D01*
X143681781Y-65783298D01*
X143540324Y-65692387D01*
X143367086Y-65623034D01*
X143345207Y-65614275D01*
X143345206Y-65614274D01*
X143345204Y-65614274D01*
X143138836Y-65574500D01*
X143138835Y-65574500D01*
X142981325Y-65574500D01*
X142883329Y-65583857D01*
X142824529Y-65589472D01*
X142622876Y-65648683D01*
X142436065Y-65744990D01*
X142270865Y-65874906D01*
X142133229Y-66033745D01*
X142028146Y-66215754D01*
X141959405Y-66414366D01*
X141931552Y-66608097D01*
X141929496Y-66622398D01*
X140207266Y-66622398D01*
X140208027Y-66599631D01*
X140177868Y-66299838D01*
X140108019Y-66006739D01*
X140076213Y-65924157D01*
X139999728Y-65725567D01*
X139854925Y-65461335D01*
X139776292Y-65354613D01*
X139676196Y-65218762D01*
X139609694Y-65150000D01*
X151250000Y-65150000D01*
X151250000Y-66000000D01*
X152199999Y-66000000D01*
X152199999Y-65850021D01*
X152189506Y-65747304D01*
X152134357Y-65580877D01*
X152042316Y-65431654D01*
X151918345Y-65307683D01*
X151769122Y-65215642D01*
X151602696Y-65160493D01*
X151499979Y-65150000D01*
X151250000Y-65150000D01*
X139609694Y-65150000D01*
X139466730Y-65002176D01*
X139376488Y-64930913D01*
X139230264Y-64815441D01*
X139077567Y-64724999D01*
X138971020Y-64661891D01*
X138789421Y-64584886D01*
X138693618Y-64544262D01*
X138691749Y-64543750D01*
X153693751Y-64543750D01*
X153693751Y-64818729D01*
X153704243Y-64921445D01*
X153759392Y-65087872D01*
X153851433Y-65237095D01*
X153975404Y-65361066D01*
X154124627Y-65453107D01*
X154291053Y-65508256D01*
X154393771Y-65518750D01*
X154531250Y-65518750D01*
X154531250Y-64543750D01*
X153693751Y-64543750D01*
X138691749Y-64543750D01*
X138403025Y-64464661D01*
X138403024Y-64464660D01*
X138403021Y-64464660D01*
X138104403Y-64424500D01*
X137878506Y-64424500D01*
X137878504Y-64424500D01*
X137653114Y-64439587D01*
X137357848Y-64499603D01*
X137073209Y-64598441D01*
X136804296Y-64734328D01*
X136555877Y-64904858D01*
X136332418Y-65106966D01*
X136137885Y-65337061D01*
X135975755Y-65591032D01*
X135848928Y-65864339D01*
X135848927Y-65864342D01*
X135837195Y-65902161D01*
X135759657Y-66152120D01*
X135712492Y-66431735D01*
X135709541Y-66449230D01*
X135703752Y-66622398D01*
X135699473Y-66750372D01*
X133974730Y-66750372D01*
X133978004Y-66727602D01*
X133968004Y-66517670D01*
X133918454Y-66313424D01*
X133918452Y-66313419D01*
X133831147Y-66122247D01*
X133709237Y-65951049D01*
X133657965Y-65902161D01*
X133624574Y-65847409D01*
X133623003Y-65783298D01*
X133653670Y-65726976D01*
X133708374Y-65693507D01*
X133772478Y-65691844D01*
X133892602Y-65720683D01*
X134143750Y-65740449D01*
X134394898Y-65720683D01*
X134639861Y-65661873D01*
X134872609Y-65565466D01*
X135087409Y-65433836D01*
X135278974Y-65270224D01*
X135442586Y-65078659D01*
X135574216Y-64863859D01*
X135670623Y-64631111D01*
X135729433Y-64386148D01*
X135749199Y-64135000D01*
X135742017Y-64043750D01*
X153693750Y-64043750D01*
X154531250Y-64043750D01*
X154531250Y-63068751D01*
X154393771Y-63068751D01*
X154291054Y-63079243D01*
X154124627Y-63134392D01*
X153975404Y-63226433D01*
X153851433Y-63350404D01*
X153759392Y-63499627D01*
X153704243Y-63666053D01*
X153693750Y-63768771D01*
X153693750Y-64043750D01*
X135742017Y-64043750D01*
X135729433Y-63883852D01*
X135670623Y-63638889D01*
X135574216Y-63406141D01*
X135442586Y-63191341D01*
X135278974Y-62999776D01*
X135087409Y-62836164D01*
X134872609Y-62704534D01*
X134719719Y-62641205D01*
X134639860Y-62608126D01*
X134394899Y-62549317D01*
X134143750Y-62529551D01*
X133892600Y-62549317D01*
X133647639Y-62608126D01*
X133414889Y-62704535D01*
X133200092Y-62836163D01*
X133008526Y-62999776D01*
X132844913Y-63191342D01*
X132713285Y-63406139D01*
X132616876Y-63638889D01*
X132558067Y-63883850D01*
X132538301Y-64135000D01*
X132558067Y-64386149D01*
X132616876Y-64631110D01*
X132659631Y-64734328D01*
X132713284Y-64863859D01*
X132844914Y-65078659D01*
X133008526Y-65270224D01*
X133120276Y-65365668D01*
X133156691Y-65418732D01*
X133161603Y-65482902D01*
X133133689Y-65540892D01*
X133080468Y-65577079D01*
X133016277Y-65581716D01*
X132978837Y-65574500D01*
X132978835Y-65574500D01*
X132821325Y-65574500D01*
X132723329Y-65583857D01*
X132664529Y-65589472D01*
X132462876Y-65648683D01*
X132276065Y-65744990D01*
X132110865Y-65874906D01*
X131973229Y-66033745D01*
X131868146Y-66215754D01*
X131799405Y-66414366D01*
X131771552Y-66608097D01*
X131769496Y-66622398D01*
X123177993Y-66622398D01*
X123173004Y-66517670D01*
X123123454Y-66313424D01*
X123123452Y-66313419D01*
X123036147Y-66122247D01*
X122940744Y-65988273D01*
X122914236Y-65951048D01*
X122762128Y-65806014D01*
X122726781Y-65783298D01*
X122585324Y-65692387D01*
X122412086Y-65623034D01*
X122390207Y-65614275D01*
X122390206Y-65614274D01*
X122390204Y-65614274D01*
X122183836Y-65574500D01*
X122183835Y-65574500D01*
X122026325Y-65574500D01*
X121928329Y-65583857D01*
X121869529Y-65589472D01*
X121667876Y-65648683D01*
X121481065Y-65744990D01*
X121315865Y-65874906D01*
X121178229Y-66033745D01*
X121073146Y-66215754D01*
X121004405Y-66414366D01*
X120976552Y-66608097D01*
X120974496Y-66622398D01*
X119252266Y-66622398D01*
X119253027Y-66599631D01*
X119222868Y-66299838D01*
X119153019Y-66006739D01*
X119121213Y-65924157D01*
X119044728Y-65725567D01*
X118899925Y-65461335D01*
X118821292Y-65354613D01*
X118721196Y-65218762D01*
X118511730Y-65002176D01*
X118421488Y-64930913D01*
X118275264Y-64815441D01*
X118122567Y-64724999D01*
X118016020Y-64661891D01*
X117834421Y-64584886D01*
X117738618Y-64544262D01*
X117448025Y-64464661D01*
X117448024Y-64464660D01*
X117448021Y-64464660D01*
X117149403Y-64424500D01*
X116923506Y-64424500D01*
X116923504Y-64424500D01*
X116698114Y-64439587D01*
X116402848Y-64499603D01*
X116118209Y-64598441D01*
X115849296Y-64734328D01*
X115600877Y-64904858D01*
X115377418Y-65106966D01*
X115182885Y-65337061D01*
X115020755Y-65591032D01*
X114893928Y-65864339D01*
X114893927Y-65864342D01*
X114882195Y-65902161D01*
X114804657Y-66152120D01*
X114757492Y-66431735D01*
X114754541Y-66449230D01*
X114748752Y-66622398D01*
X114744473Y-66750372D01*
X113019730Y-66750372D01*
X113023004Y-66727602D01*
X113013004Y-66517670D01*
X112963454Y-66313424D01*
X112963452Y-66313419D01*
X112876147Y-66122247D01*
X112754237Y-65951049D01*
X112702965Y-65902161D01*
X112669574Y-65847409D01*
X112668003Y-65783298D01*
X112698670Y-65726976D01*
X112753374Y-65693507D01*
X112817478Y-65691844D01*
X112937602Y-65720683D01*
X113188750Y-65740449D01*
X113439898Y-65720683D01*
X113684861Y-65661873D01*
X113917609Y-65565466D01*
X114132409Y-65433836D01*
X114323974Y-65270224D01*
X114487586Y-65078659D01*
X114619216Y-64863859D01*
X114715623Y-64631111D01*
X114774433Y-64386148D01*
X114794199Y-64135000D01*
X114774433Y-63883852D01*
X114715623Y-63638889D01*
X114619216Y-63406141D01*
X114487586Y-63191341D01*
X114323974Y-62999776D01*
X114132409Y-62836164D01*
X113917609Y-62704534D01*
X113764719Y-62641205D01*
X113684860Y-62608126D01*
X113439899Y-62549317D01*
X113188750Y-62529551D01*
X112937600Y-62549317D01*
X112692639Y-62608126D01*
X112459889Y-62704535D01*
X112245092Y-62836163D01*
X112053526Y-62999776D01*
X111889913Y-63191342D01*
X111758285Y-63406139D01*
X111661876Y-63638889D01*
X111603067Y-63883850D01*
X111583301Y-64135000D01*
X111603067Y-64386149D01*
X111661876Y-64631110D01*
X111704631Y-64734328D01*
X111758284Y-64863859D01*
X111889914Y-65078659D01*
X112053526Y-65270224D01*
X112165276Y-65365668D01*
X112201691Y-65418732D01*
X112206603Y-65482902D01*
X112178689Y-65540892D01*
X112125468Y-65577079D01*
X112061277Y-65581716D01*
X112023837Y-65574500D01*
X112023835Y-65574500D01*
X111866325Y-65574500D01*
X111768329Y-65583857D01*
X111709529Y-65589472D01*
X111507876Y-65648683D01*
X111321065Y-65744990D01*
X111155865Y-65874906D01*
X111018229Y-66033745D01*
X110913146Y-66215754D01*
X110844405Y-66414366D01*
X110816552Y-66608097D01*
X110814496Y-66622398D01*
X104966389Y-66622398D01*
X104933954Y-61594999D01*
X117933301Y-61594999D01*
X117953067Y-61846149D01*
X118011876Y-62091110D01*
X118060080Y-62207485D01*
X118108284Y-62323859D01*
X118239914Y-62538659D01*
X118403526Y-62730224D01*
X118595091Y-62893836D01*
X118809891Y-63025466D01*
X119042639Y-63121873D01*
X119287602Y-63180683D01*
X119538750Y-63200449D01*
X119789898Y-63180683D01*
X120034861Y-63121873D01*
X120267609Y-63025466D01*
X120482409Y-62893836D01*
X120673974Y-62730224D01*
X120837586Y-62538659D01*
X120969216Y-62323859D01*
X121065623Y-62091111D01*
X121124433Y-61846148D01*
X121144199Y-61595000D01*
X121144199Y-61594999D01*
X138888301Y-61594999D01*
X138908067Y-61846149D01*
X138966876Y-62091110D01*
X139015080Y-62207485D01*
X139063284Y-62323859D01*
X139194914Y-62538659D01*
X139358526Y-62730224D01*
X139550091Y-62893836D01*
X139764891Y-63025466D01*
X139997639Y-63121873D01*
X140242602Y-63180683D01*
X140493750Y-63200449D01*
X140744898Y-63180683D01*
X140989861Y-63121873D01*
X141222609Y-63025466D01*
X141437409Y-62893836D01*
X141628974Y-62730224D01*
X141792586Y-62538659D01*
X141924216Y-62323859D01*
X142020623Y-62091111D01*
X142079433Y-61846148D01*
X142099199Y-61595000D01*
X142079433Y-61343852D01*
X142020623Y-61098889D01*
X141924216Y-60866141D01*
X141792586Y-60651341D01*
X141628974Y-60459776D01*
X141437409Y-60296164D01*
X141222609Y-60164534D01*
X141106234Y-60116330D01*
X140989860Y-60068126D01*
X140744899Y-60009317D01*
X140493750Y-59989551D01*
X140242600Y-60009317D01*
X139997639Y-60068126D01*
X139764889Y-60164535D01*
X139550092Y-60296163D01*
X139358526Y-60459776D01*
X139194913Y-60651342D01*
X139063285Y-60866139D01*
X138966876Y-61098889D01*
X138908067Y-61343850D01*
X138888301Y-61594999D01*
X121144199Y-61594999D01*
X121124433Y-61343852D01*
X121065623Y-61098889D01*
X120969216Y-60866141D01*
X120837586Y-60651341D01*
X120673974Y-60459776D01*
X120482409Y-60296164D01*
X120267609Y-60164534D01*
X120151234Y-60116330D01*
X120034860Y-60068126D01*
X119789899Y-60009317D01*
X119538750Y-59989551D01*
X119287600Y-60009317D01*
X119042639Y-60068126D01*
X118809889Y-60164535D01*
X118595092Y-60296163D01*
X118403526Y-60459776D01*
X118239913Y-60651342D01*
X118108285Y-60866139D01*
X118011876Y-61098889D01*
X117953067Y-61343850D01*
X117933301Y-61594999D01*
X104933954Y-61594999D01*
X104922696Y-59850000D01*
X171500000Y-59850000D01*
X171500000Y-60147824D01*
X171506402Y-60207375D01*
X171556647Y-60342089D01*
X171642811Y-60457188D01*
X171757910Y-60543352D01*
X171892624Y-60593597D01*
X171952176Y-60600000D01*
X172600000Y-60600000D01*
X172600000Y-59850000D01*
X173100000Y-59850000D01*
X173100000Y-60600000D01*
X173747824Y-60600000D01*
X173807375Y-60593597D01*
X173942089Y-60543352D01*
X174057188Y-60457188D01*
X174143352Y-60342089D01*
X174193597Y-60207375D01*
X174200000Y-60147824D01*
X174200000Y-59850000D01*
X177800000Y-59850000D01*
X177800000Y-60147824D01*
X177806402Y-60207375D01*
X177856647Y-60342089D01*
X177942811Y-60457188D01*
X178057910Y-60543352D01*
X178192624Y-60593597D01*
X178252176Y-60600000D01*
X178900000Y-60600000D01*
X178900000Y-59850000D01*
X179400000Y-59850000D01*
X179400000Y-60600000D01*
X180047824Y-60600000D01*
X180107375Y-60593597D01*
X180242089Y-60543352D01*
X180357188Y-60457188D01*
X180443352Y-60342089D01*
X180493597Y-60207375D01*
X180500000Y-60147824D01*
X180500000Y-59850000D01*
X179400000Y-59850000D01*
X178900000Y-59850000D01*
X177800000Y-59850000D01*
X174200000Y-59850000D01*
X173100000Y-59850000D01*
X172600000Y-59850000D01*
X171500000Y-59850000D01*
X104922696Y-59850000D01*
X104919470Y-59350000D01*
X171500000Y-59350000D01*
X172600000Y-59350000D01*
X172600000Y-58600000D01*
X173100000Y-58600000D01*
X173100000Y-59350000D01*
X174200000Y-59350000D01*
X177800000Y-59350000D01*
X178900000Y-59350000D01*
X178900000Y-58600000D01*
X179400000Y-58600000D01*
X179400000Y-59350000D01*
X180500000Y-59350000D01*
X180500000Y-59052176D01*
X180493597Y-58992624D01*
X180443352Y-58857910D01*
X180357188Y-58742811D01*
X180242089Y-58656647D01*
X180107375Y-58606402D01*
X180047824Y-58600000D01*
X179400000Y-58600000D01*
X178900000Y-58600000D01*
X178252176Y-58600000D01*
X178192624Y-58606402D01*
X178057910Y-58656647D01*
X177942811Y-58742811D01*
X177856647Y-58857910D01*
X177806402Y-58992624D01*
X177800000Y-59052176D01*
X177800000Y-59350000D01*
X174200000Y-59350000D01*
X174200000Y-59052176D01*
X174193597Y-58992624D01*
X174143352Y-58857910D01*
X174057188Y-58742811D01*
X173942089Y-58656647D01*
X173807375Y-58606402D01*
X173747824Y-58600000D01*
X173100000Y-58600000D01*
X172600000Y-58600000D01*
X171952176Y-58600000D01*
X171892624Y-58606402D01*
X171757910Y-58656647D01*
X171642811Y-58742811D01*
X171556647Y-58857910D01*
X171506402Y-58992624D01*
X171500000Y-59052176D01*
X171500000Y-59350000D01*
X104919470Y-59350000D01*
X104902814Y-56768319D01*
X104902810Y-56766694D01*
X104919358Y-56704613D01*
X104964754Y-56659145D01*
X105026810Y-56642500D01*
X189359550Y-56642500D01*
X189421535Y-56659104D01*
G37*
%TD.AperFunction*%
%TD*%
M02*
