%TF.GenerationSoftware,KiCad,Pcbnew,7.0.1*%
%TF.CreationDate,2023-04-28T17:45:18+02:00*%
%TF.ProjectId,4_switch_pcb,345f7377-6974-4636-985f-7063622e6b69,rev?*%
%TF.SameCoordinates,Original*%
%TF.FileFunction,Drillmap*%
%TF.FilePolarity,Positive*%
%FSLAX45Y45*%
G04 Gerber Fmt 4.5, Leading zero omitted, Abs format (unit mm)*
G04 Created by KiCad (PCBNEW 7.0.1) date 2023-04-28 17:45:18*
%MOMM*%
%LPD*%
G01*
G04 APERTURE LIST*
%ADD10C,0.100000*%
%ADD11C,0.200000*%
%ADD12C,0.040000*%
%ADD13C,0.050000*%
%ADD14C,0.070000*%
%ADD15C,0.150000*%
G04 APERTURE END LIST*
D10*
X10500000Y-9601200D02*
X10500000Y-9601200D01*
X10500000Y-9601200D02*
X10490200Y-5664200D01*
X10490200Y-5664200D02*
X18948400Y-5664200D01*
X18950000Y-9601200D02*
X10500000Y-9601200D01*
X18948400Y-5664200D02*
X18950000Y-9601200D01*
D11*
D12*
X14966000Y-8370950D02*
X15006000Y-8410950D01*
X15006000Y-8370950D02*
X14966000Y-8410950D01*
X15407000Y-7565000D02*
X15447000Y-7605000D01*
X15447000Y-7565000D02*
X15407000Y-7605000D01*
X16159800Y-7650800D02*
X16199800Y-7690800D01*
X16199800Y-7650800D02*
X16159800Y-7690800D01*
X16210600Y-8412800D02*
X16250600Y-8452800D01*
X16250600Y-8412800D02*
X16210600Y-8452800D01*
X16413800Y-7168200D02*
X16453800Y-7208200D01*
X16453800Y-7168200D02*
X16413800Y-7208200D01*
X16438770Y-8413230D02*
X16478770Y-8453230D01*
X16478770Y-8413230D02*
X16438770Y-8453230D01*
X16564950Y-7516800D02*
X16604950Y-7556800D01*
X16604950Y-7516800D02*
X16564950Y-7556800D01*
X16896400Y-7512450D02*
X16936400Y-7552450D01*
X16936400Y-7512450D02*
X16896400Y-7552450D01*
X17060000Y-7264000D02*
X17100000Y-7304000D01*
X17100000Y-7264000D02*
X17060000Y-7304000D01*
X17063000Y-7678000D02*
X17103000Y-7718000D01*
X17103000Y-7678000D02*
X17063000Y-7718000D01*
X17429800Y-8463600D02*
X17469800Y-8503600D01*
X17469800Y-8463600D02*
X17429800Y-8503600D01*
X17810800Y-8641400D02*
X17850800Y-8681400D01*
X17850800Y-8641400D02*
X17810800Y-8681400D01*
X18268000Y-8641400D02*
X18308000Y-8681400D01*
X18308000Y-8641400D02*
X18268000Y-8681400D01*
D13*
X16009200Y-6351000D02*
G75*
G03*
X16009200Y-6351000I-25000J0D01*
G01*
X16130200Y-6350000D02*
G75*
G03*
X16130200Y-6350000I-25000J0D01*
G01*
X16250200Y-6350000D02*
G75*
G03*
X16250200Y-6350000I-25000J0D01*
G01*
D14*
X11294000Y-7077000D02*
X11294000Y-7147000D01*
X11259000Y-7112000D02*
X11329000Y-7112000D01*
X11358750Y-9013750D02*
X11358750Y-9083750D01*
X11323750Y-9048750D02*
X11393750Y-9048750D01*
X12074000Y-7077000D02*
X12074000Y-7147000D01*
X12039000Y-7112000D02*
X12109000Y-7112000D01*
X12138750Y-9013750D02*
X12138750Y-9083750D01*
X12103750Y-9048750D02*
X12173750Y-9048750D01*
X13326000Y-7077000D02*
X13326000Y-7147000D01*
X13291000Y-7112000D02*
X13361000Y-7112000D01*
X13501875Y-9013750D02*
X13501875Y-9083750D01*
X13466875Y-9048750D02*
X13536875Y-9048750D01*
X14106000Y-7077000D02*
X14106000Y-7147000D01*
X14071000Y-7112000D02*
X14141000Y-7112000D01*
X14281875Y-9013750D02*
X14281875Y-9083750D01*
X14246875Y-9048750D02*
X14316875Y-9048750D01*
X18528000Y-7300000D02*
X18528000Y-7370000D01*
X18493000Y-7335000D02*
X18563000Y-7335000D01*
D11*
X18653000Y-7300000D02*
X18403000Y-7300000D01*
X18403000Y-7300000D02*
G75*
G03*
X18403000Y-7370000I0J-35000D01*
G01*
X18403000Y-7370000D02*
X18653000Y-7370000D01*
X18653000Y-7370000D02*
G75*
G03*
X18653000Y-7300000I0J35000D01*
G01*
D14*
X18528000Y-8030000D02*
X18528000Y-8100000D01*
X18493000Y-8065000D02*
X18563000Y-8065000D01*
D11*
X18653000Y-8030000D02*
X18403000Y-8030000D01*
X18403000Y-8030000D02*
G75*
G03*
X18403000Y-8100000I0J-35000D01*
G01*
X18403000Y-8100000D02*
X18653000Y-8100000D01*
X18653000Y-8100000D02*
G75*
G03*
X18653000Y-8030000I0J35000D01*
G01*
D15*
X11371908Y-6466533D02*
X11371908Y-6360466D01*
X11265841Y-6360466D01*
X11265841Y-6466533D01*
X11371908Y-6466533D01*
X11371908Y-8371533D02*
X11371908Y-8265466D01*
X11265841Y-8265466D01*
X11265841Y-8371533D01*
X11371908Y-8371533D01*
X12006908Y-6212533D02*
X12006908Y-6106466D01*
X11900841Y-6106466D01*
X11900841Y-6212533D01*
X12006908Y-6212533D01*
X12006908Y-8117533D02*
X12006908Y-8011466D01*
X11900841Y-8011466D01*
X11900841Y-8117533D01*
X12006908Y-8117533D01*
X13467408Y-6466533D02*
X13467408Y-6360466D01*
X13361341Y-6360466D01*
X13361341Y-6466533D01*
X13467408Y-6466533D01*
X13467408Y-8371533D02*
X13467408Y-8265466D01*
X13361341Y-8265466D01*
X13361341Y-8371533D01*
X13467408Y-8371533D01*
X14102408Y-6212533D02*
X14102408Y-6106466D01*
X13996341Y-6106466D01*
X13996341Y-6212533D01*
X14102408Y-6212533D01*
X14102408Y-8117533D02*
X14102408Y-8011466D01*
X13996341Y-8011466D01*
X13996341Y-8117533D01*
X14102408Y-8117533D01*
D11*
X10732819Y-9918724D02*
X10732819Y-9718724D01*
X10732819Y-9718724D02*
X10780438Y-9718724D01*
X10780438Y-9718724D02*
X10809010Y-9728248D01*
X10809010Y-9728248D02*
X10828057Y-9747295D01*
X10828057Y-9747295D02*
X10837581Y-9766343D01*
X10837581Y-9766343D02*
X10847105Y-9804438D01*
X10847105Y-9804438D02*
X10847105Y-9833010D01*
X10847105Y-9833010D02*
X10837581Y-9871105D01*
X10837581Y-9871105D02*
X10828057Y-9890152D01*
X10828057Y-9890152D02*
X10809010Y-9909200D01*
X10809010Y-9909200D02*
X10780438Y-9918724D01*
X10780438Y-9918724D02*
X10732819Y-9918724D01*
X10932819Y-9918724D02*
X10932819Y-9785390D01*
X10932819Y-9823486D02*
X10942343Y-9804438D01*
X10942343Y-9804438D02*
X10951867Y-9794914D01*
X10951867Y-9794914D02*
X10970914Y-9785390D01*
X10970914Y-9785390D02*
X10989962Y-9785390D01*
X11056629Y-9918724D02*
X11056629Y-9785390D01*
X11056629Y-9718724D02*
X11047105Y-9728248D01*
X11047105Y-9728248D02*
X11056629Y-9737771D01*
X11056629Y-9737771D02*
X11066152Y-9728248D01*
X11066152Y-9728248D02*
X11056629Y-9718724D01*
X11056629Y-9718724D02*
X11056629Y-9737771D01*
X11180438Y-9918724D02*
X11161390Y-9909200D01*
X11161390Y-9909200D02*
X11151867Y-9890152D01*
X11151867Y-9890152D02*
X11151867Y-9718724D01*
X11285200Y-9918724D02*
X11266152Y-9909200D01*
X11266152Y-9909200D02*
X11256628Y-9890152D01*
X11256628Y-9890152D02*
X11256628Y-9718724D01*
X11513771Y-9918724D02*
X11513771Y-9718724D01*
X11513771Y-9718724D02*
X11580438Y-9861581D01*
X11580438Y-9861581D02*
X11647105Y-9718724D01*
X11647105Y-9718724D02*
X11647105Y-9918724D01*
X11828057Y-9918724D02*
X11828057Y-9813962D01*
X11828057Y-9813962D02*
X11818533Y-9794914D01*
X11818533Y-9794914D02*
X11799486Y-9785390D01*
X11799486Y-9785390D02*
X11761390Y-9785390D01*
X11761390Y-9785390D02*
X11742343Y-9794914D01*
X11828057Y-9909200D02*
X11809009Y-9918724D01*
X11809009Y-9918724D02*
X11761390Y-9918724D01*
X11761390Y-9918724D02*
X11742343Y-9909200D01*
X11742343Y-9909200D02*
X11732819Y-9890152D01*
X11732819Y-9890152D02*
X11732819Y-9871105D01*
X11732819Y-9871105D02*
X11742343Y-9852057D01*
X11742343Y-9852057D02*
X11761390Y-9842533D01*
X11761390Y-9842533D02*
X11809009Y-9842533D01*
X11809009Y-9842533D02*
X11828057Y-9833010D01*
X11923295Y-9785390D02*
X11923295Y-9985390D01*
X11923295Y-9794914D02*
X11942343Y-9785390D01*
X11942343Y-9785390D02*
X11980438Y-9785390D01*
X11980438Y-9785390D02*
X11999486Y-9794914D01*
X11999486Y-9794914D02*
X12009009Y-9804438D01*
X12009009Y-9804438D02*
X12018533Y-9823486D01*
X12018533Y-9823486D02*
X12018533Y-9880629D01*
X12018533Y-9880629D02*
X12009009Y-9899676D01*
X12009009Y-9899676D02*
X11999486Y-9909200D01*
X11999486Y-9909200D02*
X11980438Y-9918724D01*
X11980438Y-9918724D02*
X11942343Y-9918724D01*
X11942343Y-9918724D02*
X11923295Y-9909200D01*
X12104248Y-9899676D02*
X12113771Y-9909200D01*
X12113771Y-9909200D02*
X12104248Y-9918724D01*
X12104248Y-9918724D02*
X12094724Y-9909200D01*
X12094724Y-9909200D02*
X12104248Y-9899676D01*
X12104248Y-9899676D02*
X12104248Y-9918724D01*
X12104248Y-9794914D02*
X12113771Y-9804438D01*
X12113771Y-9804438D02*
X12104248Y-9813962D01*
X12104248Y-9813962D02*
X12094724Y-9804438D01*
X12094724Y-9804438D02*
X12104248Y-9794914D01*
X12104248Y-9794914D02*
X12104248Y-9813962D01*
D12*
X10445200Y-10226200D02*
X10485200Y-10266200D01*
X10485200Y-10226200D02*
X10445200Y-10266200D01*
D11*
X10770914Y-10138724D02*
X10789962Y-10138724D01*
X10789962Y-10138724D02*
X10809010Y-10148248D01*
X10809010Y-10148248D02*
X10818533Y-10157771D01*
X10818533Y-10157771D02*
X10828057Y-10176819D01*
X10828057Y-10176819D02*
X10837581Y-10214914D01*
X10837581Y-10214914D02*
X10837581Y-10262533D01*
X10837581Y-10262533D02*
X10828057Y-10300629D01*
X10828057Y-10300629D02*
X10818533Y-10319676D01*
X10818533Y-10319676D02*
X10809010Y-10329200D01*
X10809010Y-10329200D02*
X10789962Y-10338724D01*
X10789962Y-10338724D02*
X10770914Y-10338724D01*
X10770914Y-10338724D02*
X10751867Y-10329200D01*
X10751867Y-10329200D02*
X10742343Y-10319676D01*
X10742343Y-10319676D02*
X10732819Y-10300629D01*
X10732819Y-10300629D02*
X10723295Y-10262533D01*
X10723295Y-10262533D02*
X10723295Y-10214914D01*
X10723295Y-10214914D02*
X10732819Y-10176819D01*
X10732819Y-10176819D02*
X10742343Y-10157771D01*
X10742343Y-10157771D02*
X10751867Y-10148248D01*
X10751867Y-10148248D02*
X10770914Y-10138724D01*
X10923295Y-10319676D02*
X10932819Y-10329200D01*
X10932819Y-10329200D02*
X10923295Y-10338724D01*
X10923295Y-10338724D02*
X10913771Y-10329200D01*
X10913771Y-10329200D02*
X10923295Y-10319676D01*
X10923295Y-10319676D02*
X10923295Y-10338724D01*
X11104248Y-10205390D02*
X11104248Y-10338724D01*
X11056629Y-10129200D02*
X11009010Y-10272057D01*
X11009010Y-10272057D02*
X11132819Y-10272057D01*
X11247105Y-10138724D02*
X11266152Y-10138724D01*
X11266152Y-10138724D02*
X11285200Y-10148248D01*
X11285200Y-10148248D02*
X11294724Y-10157771D01*
X11294724Y-10157771D02*
X11304248Y-10176819D01*
X11304248Y-10176819D02*
X11313771Y-10214914D01*
X11313771Y-10214914D02*
X11313771Y-10262533D01*
X11313771Y-10262533D02*
X11304248Y-10300629D01*
X11304248Y-10300629D02*
X11294724Y-10319676D01*
X11294724Y-10319676D02*
X11285200Y-10329200D01*
X11285200Y-10329200D02*
X11266152Y-10338724D01*
X11266152Y-10338724D02*
X11247105Y-10338724D01*
X11247105Y-10338724D02*
X11228057Y-10329200D01*
X11228057Y-10329200D02*
X11218533Y-10319676D01*
X11218533Y-10319676D02*
X11209009Y-10300629D01*
X11209009Y-10300629D02*
X11199486Y-10262533D01*
X11199486Y-10262533D02*
X11199486Y-10214914D01*
X11199486Y-10214914D02*
X11209009Y-10176819D01*
X11209009Y-10176819D02*
X11218533Y-10157771D01*
X11218533Y-10157771D02*
X11228057Y-10148248D01*
X11228057Y-10148248D02*
X11247105Y-10138724D01*
X11437581Y-10138724D02*
X11456629Y-10138724D01*
X11456629Y-10138724D02*
X11475676Y-10148248D01*
X11475676Y-10148248D02*
X11485200Y-10157771D01*
X11485200Y-10157771D02*
X11494724Y-10176819D01*
X11494724Y-10176819D02*
X11504248Y-10214914D01*
X11504248Y-10214914D02*
X11504248Y-10262533D01*
X11504248Y-10262533D02*
X11494724Y-10300629D01*
X11494724Y-10300629D02*
X11485200Y-10319676D01*
X11485200Y-10319676D02*
X11475676Y-10329200D01*
X11475676Y-10329200D02*
X11456629Y-10338724D01*
X11456629Y-10338724D02*
X11437581Y-10338724D01*
X11437581Y-10338724D02*
X11418533Y-10329200D01*
X11418533Y-10329200D02*
X11409009Y-10319676D01*
X11409009Y-10319676D02*
X11399486Y-10300629D01*
X11399486Y-10300629D02*
X11389962Y-10262533D01*
X11389962Y-10262533D02*
X11389962Y-10214914D01*
X11389962Y-10214914D02*
X11399486Y-10176819D01*
X11399486Y-10176819D02*
X11409009Y-10157771D01*
X11409009Y-10157771D02*
X11418533Y-10148248D01*
X11418533Y-10148248D02*
X11437581Y-10138724D01*
X11589962Y-10338724D02*
X11589962Y-10205390D01*
X11589962Y-10224438D02*
X11599486Y-10214914D01*
X11599486Y-10214914D02*
X11618533Y-10205390D01*
X11618533Y-10205390D02*
X11647105Y-10205390D01*
X11647105Y-10205390D02*
X11666152Y-10214914D01*
X11666152Y-10214914D02*
X11675676Y-10233962D01*
X11675676Y-10233962D02*
X11675676Y-10338724D01*
X11675676Y-10233962D02*
X11685200Y-10214914D01*
X11685200Y-10214914D02*
X11704248Y-10205390D01*
X11704248Y-10205390D02*
X11732819Y-10205390D01*
X11732819Y-10205390D02*
X11751867Y-10214914D01*
X11751867Y-10214914D02*
X11761390Y-10233962D01*
X11761390Y-10233962D02*
X11761390Y-10338724D01*
X11856629Y-10338724D02*
X11856629Y-10205390D01*
X11856629Y-10224438D02*
X11866152Y-10214914D01*
X11866152Y-10214914D02*
X11885200Y-10205390D01*
X11885200Y-10205390D02*
X11913771Y-10205390D01*
X11913771Y-10205390D02*
X11932819Y-10214914D01*
X11932819Y-10214914D02*
X11942343Y-10233962D01*
X11942343Y-10233962D02*
X11942343Y-10338724D01*
X11942343Y-10233962D02*
X11951867Y-10214914D01*
X11951867Y-10214914D02*
X11970914Y-10205390D01*
X11970914Y-10205390D02*
X11999486Y-10205390D01*
X11999486Y-10205390D02*
X12018533Y-10214914D01*
X12018533Y-10214914D02*
X12028057Y-10233962D01*
X12028057Y-10233962D02*
X12028057Y-10338724D01*
X12418533Y-10129200D02*
X12247105Y-10386343D01*
X12675676Y-10138724D02*
X12694724Y-10138724D01*
X12694724Y-10138724D02*
X12713772Y-10148248D01*
X12713772Y-10148248D02*
X12723295Y-10157771D01*
X12723295Y-10157771D02*
X12732819Y-10176819D01*
X12732819Y-10176819D02*
X12742343Y-10214914D01*
X12742343Y-10214914D02*
X12742343Y-10262533D01*
X12742343Y-10262533D02*
X12732819Y-10300629D01*
X12732819Y-10300629D02*
X12723295Y-10319676D01*
X12723295Y-10319676D02*
X12713772Y-10329200D01*
X12713772Y-10329200D02*
X12694724Y-10338724D01*
X12694724Y-10338724D02*
X12675676Y-10338724D01*
X12675676Y-10338724D02*
X12656629Y-10329200D01*
X12656629Y-10329200D02*
X12647105Y-10319676D01*
X12647105Y-10319676D02*
X12637581Y-10300629D01*
X12637581Y-10300629D02*
X12628057Y-10262533D01*
X12628057Y-10262533D02*
X12628057Y-10214914D01*
X12628057Y-10214914D02*
X12637581Y-10176819D01*
X12637581Y-10176819D02*
X12647105Y-10157771D01*
X12647105Y-10157771D02*
X12656629Y-10148248D01*
X12656629Y-10148248D02*
X12675676Y-10138724D01*
X12828057Y-10319676D02*
X12837581Y-10329200D01*
X12837581Y-10329200D02*
X12828057Y-10338724D01*
X12828057Y-10338724D02*
X12818533Y-10329200D01*
X12818533Y-10329200D02*
X12828057Y-10319676D01*
X12828057Y-10319676D02*
X12828057Y-10338724D01*
X12961391Y-10138724D02*
X12980438Y-10138724D01*
X12980438Y-10138724D02*
X12999486Y-10148248D01*
X12999486Y-10148248D02*
X13009010Y-10157771D01*
X13009010Y-10157771D02*
X13018533Y-10176819D01*
X13018533Y-10176819D02*
X13028057Y-10214914D01*
X13028057Y-10214914D02*
X13028057Y-10262533D01*
X13028057Y-10262533D02*
X13018533Y-10300629D01*
X13018533Y-10300629D02*
X13009010Y-10319676D01*
X13009010Y-10319676D02*
X12999486Y-10329200D01*
X12999486Y-10329200D02*
X12980438Y-10338724D01*
X12980438Y-10338724D02*
X12961391Y-10338724D01*
X12961391Y-10338724D02*
X12942343Y-10329200D01*
X12942343Y-10329200D02*
X12932819Y-10319676D01*
X12932819Y-10319676D02*
X12923295Y-10300629D01*
X12923295Y-10300629D02*
X12913772Y-10262533D01*
X12913772Y-10262533D02*
X12913772Y-10214914D01*
X12913772Y-10214914D02*
X12923295Y-10176819D01*
X12923295Y-10176819D02*
X12932819Y-10157771D01*
X12932819Y-10157771D02*
X12942343Y-10148248D01*
X12942343Y-10148248D02*
X12961391Y-10138724D01*
X13218533Y-10338724D02*
X13104248Y-10338724D01*
X13161391Y-10338724D02*
X13161391Y-10138724D01*
X13161391Y-10138724D02*
X13142343Y-10167295D01*
X13142343Y-10167295D02*
X13123295Y-10186343D01*
X13123295Y-10186343D02*
X13104248Y-10195867D01*
X13399486Y-10138724D02*
X13304248Y-10138724D01*
X13304248Y-10138724D02*
X13294724Y-10233962D01*
X13294724Y-10233962D02*
X13304248Y-10224438D01*
X13304248Y-10224438D02*
X13323295Y-10214914D01*
X13323295Y-10214914D02*
X13370914Y-10214914D01*
X13370914Y-10214914D02*
X13389962Y-10224438D01*
X13389962Y-10224438D02*
X13399486Y-10233962D01*
X13399486Y-10233962D02*
X13409010Y-10253010D01*
X13409010Y-10253010D02*
X13409010Y-10300629D01*
X13409010Y-10300629D02*
X13399486Y-10319676D01*
X13399486Y-10319676D02*
X13389962Y-10329200D01*
X13389962Y-10329200D02*
X13370914Y-10338724D01*
X13370914Y-10338724D02*
X13323295Y-10338724D01*
X13323295Y-10338724D02*
X13304248Y-10329200D01*
X13304248Y-10329200D02*
X13294724Y-10319676D01*
X13475676Y-10138724D02*
X13609010Y-10138724D01*
X13609010Y-10138724D02*
X13523295Y-10338724D01*
X13675676Y-10138724D02*
X13675676Y-10176819D01*
X13751867Y-10138724D02*
X13751867Y-10176819D01*
X14047105Y-10414914D02*
X14037581Y-10405390D01*
X14037581Y-10405390D02*
X14018534Y-10376819D01*
X14018534Y-10376819D02*
X14009010Y-10357771D01*
X14009010Y-10357771D02*
X13999486Y-10329200D01*
X13999486Y-10329200D02*
X13989962Y-10281581D01*
X13989962Y-10281581D02*
X13989962Y-10243486D01*
X13989962Y-10243486D02*
X13999486Y-10195867D01*
X13999486Y-10195867D02*
X14009010Y-10167295D01*
X14009010Y-10167295D02*
X14018534Y-10148248D01*
X14018534Y-10148248D02*
X14037581Y-10119676D01*
X14037581Y-10119676D02*
X14047105Y-10110152D01*
X14228057Y-10338724D02*
X14113772Y-10338724D01*
X14170914Y-10338724D02*
X14170914Y-10138724D01*
X14170914Y-10138724D02*
X14151867Y-10167295D01*
X14151867Y-10167295D02*
X14132819Y-10186343D01*
X14132819Y-10186343D02*
X14113772Y-10195867D01*
X14294724Y-10138724D02*
X14418534Y-10138724D01*
X14418534Y-10138724D02*
X14351867Y-10214914D01*
X14351867Y-10214914D02*
X14380438Y-10214914D01*
X14380438Y-10214914D02*
X14399486Y-10224438D01*
X14399486Y-10224438D02*
X14409010Y-10233962D01*
X14409010Y-10233962D02*
X14418534Y-10253010D01*
X14418534Y-10253010D02*
X14418534Y-10300629D01*
X14418534Y-10300629D02*
X14409010Y-10319676D01*
X14409010Y-10319676D02*
X14399486Y-10329200D01*
X14399486Y-10329200D02*
X14380438Y-10338724D01*
X14380438Y-10338724D02*
X14323295Y-10338724D01*
X14323295Y-10338724D02*
X14304248Y-10329200D01*
X14304248Y-10329200D02*
X14294724Y-10319676D01*
X14656629Y-10338724D02*
X14656629Y-10138724D01*
X14742343Y-10338724D02*
X14742343Y-10233962D01*
X14742343Y-10233962D02*
X14732819Y-10214914D01*
X14732819Y-10214914D02*
X14713772Y-10205390D01*
X14713772Y-10205390D02*
X14685200Y-10205390D01*
X14685200Y-10205390D02*
X14666153Y-10214914D01*
X14666153Y-10214914D02*
X14656629Y-10224438D01*
X14866153Y-10338724D02*
X14847105Y-10329200D01*
X14847105Y-10329200D02*
X14837581Y-10319676D01*
X14837581Y-10319676D02*
X14828057Y-10300629D01*
X14828057Y-10300629D02*
X14828057Y-10243486D01*
X14828057Y-10243486D02*
X14837581Y-10224438D01*
X14837581Y-10224438D02*
X14847105Y-10214914D01*
X14847105Y-10214914D02*
X14866153Y-10205390D01*
X14866153Y-10205390D02*
X14894724Y-10205390D01*
X14894724Y-10205390D02*
X14913772Y-10214914D01*
X14913772Y-10214914D02*
X14923296Y-10224438D01*
X14923296Y-10224438D02*
X14932819Y-10243486D01*
X14932819Y-10243486D02*
X14932819Y-10300629D01*
X14932819Y-10300629D02*
X14923296Y-10319676D01*
X14923296Y-10319676D02*
X14913772Y-10329200D01*
X14913772Y-10329200D02*
X14894724Y-10338724D01*
X14894724Y-10338724D02*
X14866153Y-10338724D01*
X15047105Y-10338724D02*
X15028057Y-10329200D01*
X15028057Y-10329200D02*
X15018534Y-10310152D01*
X15018534Y-10310152D02*
X15018534Y-10138724D01*
X15199486Y-10329200D02*
X15180438Y-10338724D01*
X15180438Y-10338724D02*
X15142343Y-10338724D01*
X15142343Y-10338724D02*
X15123296Y-10329200D01*
X15123296Y-10329200D02*
X15113772Y-10310152D01*
X15113772Y-10310152D02*
X15113772Y-10233962D01*
X15113772Y-10233962D02*
X15123296Y-10214914D01*
X15123296Y-10214914D02*
X15142343Y-10205390D01*
X15142343Y-10205390D02*
X15180438Y-10205390D01*
X15180438Y-10205390D02*
X15199486Y-10214914D01*
X15199486Y-10214914D02*
X15209010Y-10233962D01*
X15209010Y-10233962D02*
X15209010Y-10253010D01*
X15209010Y-10253010D02*
X15113772Y-10272057D01*
X15285200Y-10329200D02*
X15304248Y-10338724D01*
X15304248Y-10338724D02*
X15342343Y-10338724D01*
X15342343Y-10338724D02*
X15361391Y-10329200D01*
X15361391Y-10329200D02*
X15370915Y-10310152D01*
X15370915Y-10310152D02*
X15370915Y-10300629D01*
X15370915Y-10300629D02*
X15361391Y-10281581D01*
X15361391Y-10281581D02*
X15342343Y-10272057D01*
X15342343Y-10272057D02*
X15313772Y-10272057D01*
X15313772Y-10272057D02*
X15294724Y-10262533D01*
X15294724Y-10262533D02*
X15285200Y-10243486D01*
X15285200Y-10243486D02*
X15285200Y-10233962D01*
X15285200Y-10233962D02*
X15294724Y-10214914D01*
X15294724Y-10214914D02*
X15313772Y-10205390D01*
X15313772Y-10205390D02*
X15342343Y-10205390D01*
X15342343Y-10205390D02*
X15361391Y-10214914D01*
X15437581Y-10414914D02*
X15447105Y-10405390D01*
X15447105Y-10405390D02*
X15466153Y-10376819D01*
X15466153Y-10376819D02*
X15475677Y-10357771D01*
X15475677Y-10357771D02*
X15485200Y-10329200D01*
X15485200Y-10329200D02*
X15494724Y-10281581D01*
X15494724Y-10281581D02*
X15494724Y-10243486D01*
X15494724Y-10243486D02*
X15485200Y-10195867D01*
X15485200Y-10195867D02*
X15475677Y-10167295D01*
X15475677Y-10167295D02*
X15466153Y-10148248D01*
X15466153Y-10148248D02*
X15447105Y-10119676D01*
X15447105Y-10119676D02*
X15437581Y-10110152D01*
D13*
X10485200Y-10510200D02*
G75*
G03*
X10485200Y-10510200I-25000J0D01*
G01*
D11*
X10770914Y-10402724D02*
X10789962Y-10402724D01*
X10789962Y-10402724D02*
X10809010Y-10412248D01*
X10809010Y-10412248D02*
X10818533Y-10421771D01*
X10818533Y-10421771D02*
X10828057Y-10440819D01*
X10828057Y-10440819D02*
X10837581Y-10478914D01*
X10837581Y-10478914D02*
X10837581Y-10526533D01*
X10837581Y-10526533D02*
X10828057Y-10564629D01*
X10828057Y-10564629D02*
X10818533Y-10583676D01*
X10818533Y-10583676D02*
X10809010Y-10593200D01*
X10809010Y-10593200D02*
X10789962Y-10602724D01*
X10789962Y-10602724D02*
X10770914Y-10602724D01*
X10770914Y-10602724D02*
X10751867Y-10593200D01*
X10751867Y-10593200D02*
X10742343Y-10583676D01*
X10742343Y-10583676D02*
X10732819Y-10564629D01*
X10732819Y-10564629D02*
X10723295Y-10526533D01*
X10723295Y-10526533D02*
X10723295Y-10478914D01*
X10723295Y-10478914D02*
X10732819Y-10440819D01*
X10732819Y-10440819D02*
X10742343Y-10421771D01*
X10742343Y-10421771D02*
X10751867Y-10412248D01*
X10751867Y-10412248D02*
X10770914Y-10402724D01*
X10923295Y-10583676D02*
X10932819Y-10593200D01*
X10932819Y-10593200D02*
X10923295Y-10602724D01*
X10923295Y-10602724D02*
X10913771Y-10593200D01*
X10913771Y-10593200D02*
X10923295Y-10583676D01*
X10923295Y-10583676D02*
X10923295Y-10602724D01*
X11113771Y-10402724D02*
X11018533Y-10402724D01*
X11018533Y-10402724D02*
X11009010Y-10497962D01*
X11009010Y-10497962D02*
X11018533Y-10488438D01*
X11018533Y-10488438D02*
X11037581Y-10478914D01*
X11037581Y-10478914D02*
X11085200Y-10478914D01*
X11085200Y-10478914D02*
X11104248Y-10488438D01*
X11104248Y-10488438D02*
X11113771Y-10497962D01*
X11113771Y-10497962D02*
X11123295Y-10517010D01*
X11123295Y-10517010D02*
X11123295Y-10564629D01*
X11123295Y-10564629D02*
X11113771Y-10583676D01*
X11113771Y-10583676D02*
X11104248Y-10593200D01*
X11104248Y-10593200D02*
X11085200Y-10602724D01*
X11085200Y-10602724D02*
X11037581Y-10602724D01*
X11037581Y-10602724D02*
X11018533Y-10593200D01*
X11018533Y-10593200D02*
X11009010Y-10583676D01*
X11247105Y-10402724D02*
X11266152Y-10402724D01*
X11266152Y-10402724D02*
X11285200Y-10412248D01*
X11285200Y-10412248D02*
X11294724Y-10421771D01*
X11294724Y-10421771D02*
X11304248Y-10440819D01*
X11304248Y-10440819D02*
X11313771Y-10478914D01*
X11313771Y-10478914D02*
X11313771Y-10526533D01*
X11313771Y-10526533D02*
X11304248Y-10564629D01*
X11304248Y-10564629D02*
X11294724Y-10583676D01*
X11294724Y-10583676D02*
X11285200Y-10593200D01*
X11285200Y-10593200D02*
X11266152Y-10602724D01*
X11266152Y-10602724D02*
X11247105Y-10602724D01*
X11247105Y-10602724D02*
X11228057Y-10593200D01*
X11228057Y-10593200D02*
X11218533Y-10583676D01*
X11218533Y-10583676D02*
X11209009Y-10564629D01*
X11209009Y-10564629D02*
X11199486Y-10526533D01*
X11199486Y-10526533D02*
X11199486Y-10478914D01*
X11199486Y-10478914D02*
X11209009Y-10440819D01*
X11209009Y-10440819D02*
X11218533Y-10421771D01*
X11218533Y-10421771D02*
X11228057Y-10412248D01*
X11228057Y-10412248D02*
X11247105Y-10402724D01*
X11437581Y-10402724D02*
X11456629Y-10402724D01*
X11456629Y-10402724D02*
X11475676Y-10412248D01*
X11475676Y-10412248D02*
X11485200Y-10421771D01*
X11485200Y-10421771D02*
X11494724Y-10440819D01*
X11494724Y-10440819D02*
X11504248Y-10478914D01*
X11504248Y-10478914D02*
X11504248Y-10526533D01*
X11504248Y-10526533D02*
X11494724Y-10564629D01*
X11494724Y-10564629D02*
X11485200Y-10583676D01*
X11485200Y-10583676D02*
X11475676Y-10593200D01*
X11475676Y-10593200D02*
X11456629Y-10602724D01*
X11456629Y-10602724D02*
X11437581Y-10602724D01*
X11437581Y-10602724D02*
X11418533Y-10593200D01*
X11418533Y-10593200D02*
X11409009Y-10583676D01*
X11409009Y-10583676D02*
X11399486Y-10564629D01*
X11399486Y-10564629D02*
X11389962Y-10526533D01*
X11389962Y-10526533D02*
X11389962Y-10478914D01*
X11389962Y-10478914D02*
X11399486Y-10440819D01*
X11399486Y-10440819D02*
X11409009Y-10421771D01*
X11409009Y-10421771D02*
X11418533Y-10412248D01*
X11418533Y-10412248D02*
X11437581Y-10402724D01*
X11589962Y-10602724D02*
X11589962Y-10469390D01*
X11589962Y-10488438D02*
X11599486Y-10478914D01*
X11599486Y-10478914D02*
X11618533Y-10469390D01*
X11618533Y-10469390D02*
X11647105Y-10469390D01*
X11647105Y-10469390D02*
X11666152Y-10478914D01*
X11666152Y-10478914D02*
X11675676Y-10497962D01*
X11675676Y-10497962D02*
X11675676Y-10602724D01*
X11675676Y-10497962D02*
X11685200Y-10478914D01*
X11685200Y-10478914D02*
X11704248Y-10469390D01*
X11704248Y-10469390D02*
X11732819Y-10469390D01*
X11732819Y-10469390D02*
X11751867Y-10478914D01*
X11751867Y-10478914D02*
X11761390Y-10497962D01*
X11761390Y-10497962D02*
X11761390Y-10602724D01*
X11856629Y-10602724D02*
X11856629Y-10469390D01*
X11856629Y-10488438D02*
X11866152Y-10478914D01*
X11866152Y-10478914D02*
X11885200Y-10469390D01*
X11885200Y-10469390D02*
X11913771Y-10469390D01*
X11913771Y-10469390D02*
X11932819Y-10478914D01*
X11932819Y-10478914D02*
X11942343Y-10497962D01*
X11942343Y-10497962D02*
X11942343Y-10602724D01*
X11942343Y-10497962D02*
X11951867Y-10478914D01*
X11951867Y-10478914D02*
X11970914Y-10469390D01*
X11970914Y-10469390D02*
X11999486Y-10469390D01*
X11999486Y-10469390D02*
X12018533Y-10478914D01*
X12018533Y-10478914D02*
X12028057Y-10497962D01*
X12028057Y-10497962D02*
X12028057Y-10602724D01*
X12418533Y-10393200D02*
X12247105Y-10650343D01*
X12675676Y-10402724D02*
X12694724Y-10402724D01*
X12694724Y-10402724D02*
X12713772Y-10412248D01*
X12713772Y-10412248D02*
X12723295Y-10421771D01*
X12723295Y-10421771D02*
X12732819Y-10440819D01*
X12732819Y-10440819D02*
X12742343Y-10478914D01*
X12742343Y-10478914D02*
X12742343Y-10526533D01*
X12742343Y-10526533D02*
X12732819Y-10564629D01*
X12732819Y-10564629D02*
X12723295Y-10583676D01*
X12723295Y-10583676D02*
X12713772Y-10593200D01*
X12713772Y-10593200D02*
X12694724Y-10602724D01*
X12694724Y-10602724D02*
X12675676Y-10602724D01*
X12675676Y-10602724D02*
X12656629Y-10593200D01*
X12656629Y-10593200D02*
X12647105Y-10583676D01*
X12647105Y-10583676D02*
X12637581Y-10564629D01*
X12637581Y-10564629D02*
X12628057Y-10526533D01*
X12628057Y-10526533D02*
X12628057Y-10478914D01*
X12628057Y-10478914D02*
X12637581Y-10440819D01*
X12637581Y-10440819D02*
X12647105Y-10421771D01*
X12647105Y-10421771D02*
X12656629Y-10412248D01*
X12656629Y-10412248D02*
X12675676Y-10402724D01*
X12828057Y-10583676D02*
X12837581Y-10593200D01*
X12837581Y-10593200D02*
X12828057Y-10602724D01*
X12828057Y-10602724D02*
X12818533Y-10593200D01*
X12818533Y-10593200D02*
X12828057Y-10583676D01*
X12828057Y-10583676D02*
X12828057Y-10602724D01*
X12961391Y-10402724D02*
X12980438Y-10402724D01*
X12980438Y-10402724D02*
X12999486Y-10412248D01*
X12999486Y-10412248D02*
X13009010Y-10421771D01*
X13009010Y-10421771D02*
X13018533Y-10440819D01*
X13018533Y-10440819D02*
X13028057Y-10478914D01*
X13028057Y-10478914D02*
X13028057Y-10526533D01*
X13028057Y-10526533D02*
X13018533Y-10564629D01*
X13018533Y-10564629D02*
X13009010Y-10583676D01*
X13009010Y-10583676D02*
X12999486Y-10593200D01*
X12999486Y-10593200D02*
X12980438Y-10602724D01*
X12980438Y-10602724D02*
X12961391Y-10602724D01*
X12961391Y-10602724D02*
X12942343Y-10593200D01*
X12942343Y-10593200D02*
X12932819Y-10583676D01*
X12932819Y-10583676D02*
X12923295Y-10564629D01*
X12923295Y-10564629D02*
X12913772Y-10526533D01*
X12913772Y-10526533D02*
X12913772Y-10478914D01*
X12913772Y-10478914D02*
X12923295Y-10440819D01*
X12923295Y-10440819D02*
X12932819Y-10421771D01*
X12932819Y-10421771D02*
X12942343Y-10412248D01*
X12942343Y-10412248D02*
X12961391Y-10402724D01*
X13218533Y-10602724D02*
X13104248Y-10602724D01*
X13161391Y-10602724D02*
X13161391Y-10402724D01*
X13161391Y-10402724D02*
X13142343Y-10431295D01*
X13142343Y-10431295D02*
X13123295Y-10450343D01*
X13123295Y-10450343D02*
X13104248Y-10459867D01*
X13313772Y-10602724D02*
X13351867Y-10602724D01*
X13351867Y-10602724D02*
X13370914Y-10593200D01*
X13370914Y-10593200D02*
X13380438Y-10583676D01*
X13380438Y-10583676D02*
X13399486Y-10555105D01*
X13399486Y-10555105D02*
X13409010Y-10517010D01*
X13409010Y-10517010D02*
X13409010Y-10440819D01*
X13409010Y-10440819D02*
X13399486Y-10421771D01*
X13399486Y-10421771D02*
X13389962Y-10412248D01*
X13389962Y-10412248D02*
X13370914Y-10402724D01*
X13370914Y-10402724D02*
X13332819Y-10402724D01*
X13332819Y-10402724D02*
X13313772Y-10412248D01*
X13313772Y-10412248D02*
X13304248Y-10421771D01*
X13304248Y-10421771D02*
X13294724Y-10440819D01*
X13294724Y-10440819D02*
X13294724Y-10488438D01*
X13294724Y-10488438D02*
X13304248Y-10507486D01*
X13304248Y-10507486D02*
X13313772Y-10517010D01*
X13313772Y-10517010D02*
X13332819Y-10526533D01*
X13332819Y-10526533D02*
X13370914Y-10526533D01*
X13370914Y-10526533D02*
X13389962Y-10517010D01*
X13389962Y-10517010D02*
X13399486Y-10507486D01*
X13399486Y-10507486D02*
X13409010Y-10488438D01*
X13475676Y-10402724D02*
X13609010Y-10402724D01*
X13609010Y-10402724D02*
X13523295Y-10602724D01*
X13675676Y-10402724D02*
X13675676Y-10440819D01*
X13751867Y-10402724D02*
X13751867Y-10440819D01*
X14047105Y-10678914D02*
X14037581Y-10669390D01*
X14037581Y-10669390D02*
X14018534Y-10640819D01*
X14018534Y-10640819D02*
X14009010Y-10621771D01*
X14009010Y-10621771D02*
X13999486Y-10593200D01*
X13999486Y-10593200D02*
X13989962Y-10545581D01*
X13989962Y-10545581D02*
X13989962Y-10507486D01*
X13989962Y-10507486D02*
X13999486Y-10459867D01*
X13999486Y-10459867D02*
X14009010Y-10431295D01*
X14009010Y-10431295D02*
X14018534Y-10412248D01*
X14018534Y-10412248D02*
X14037581Y-10383676D01*
X14037581Y-10383676D02*
X14047105Y-10374152D01*
X14104248Y-10402724D02*
X14228057Y-10402724D01*
X14228057Y-10402724D02*
X14161391Y-10478914D01*
X14161391Y-10478914D02*
X14189962Y-10478914D01*
X14189962Y-10478914D02*
X14209010Y-10488438D01*
X14209010Y-10488438D02*
X14218534Y-10497962D01*
X14218534Y-10497962D02*
X14228057Y-10517010D01*
X14228057Y-10517010D02*
X14228057Y-10564629D01*
X14228057Y-10564629D02*
X14218534Y-10583676D01*
X14218534Y-10583676D02*
X14209010Y-10593200D01*
X14209010Y-10593200D02*
X14189962Y-10602724D01*
X14189962Y-10602724D02*
X14132819Y-10602724D01*
X14132819Y-10602724D02*
X14113772Y-10593200D01*
X14113772Y-10593200D02*
X14104248Y-10583676D01*
X14466153Y-10602724D02*
X14466153Y-10402724D01*
X14551867Y-10602724D02*
X14551867Y-10497962D01*
X14551867Y-10497962D02*
X14542343Y-10478914D01*
X14542343Y-10478914D02*
X14523296Y-10469390D01*
X14523296Y-10469390D02*
X14494724Y-10469390D01*
X14494724Y-10469390D02*
X14475676Y-10478914D01*
X14475676Y-10478914D02*
X14466153Y-10488438D01*
X14675676Y-10602724D02*
X14656629Y-10593200D01*
X14656629Y-10593200D02*
X14647105Y-10583676D01*
X14647105Y-10583676D02*
X14637581Y-10564629D01*
X14637581Y-10564629D02*
X14637581Y-10507486D01*
X14637581Y-10507486D02*
X14647105Y-10488438D01*
X14647105Y-10488438D02*
X14656629Y-10478914D01*
X14656629Y-10478914D02*
X14675676Y-10469390D01*
X14675676Y-10469390D02*
X14704248Y-10469390D01*
X14704248Y-10469390D02*
X14723296Y-10478914D01*
X14723296Y-10478914D02*
X14732819Y-10488438D01*
X14732819Y-10488438D02*
X14742343Y-10507486D01*
X14742343Y-10507486D02*
X14742343Y-10564629D01*
X14742343Y-10564629D02*
X14732819Y-10583676D01*
X14732819Y-10583676D02*
X14723296Y-10593200D01*
X14723296Y-10593200D02*
X14704248Y-10602724D01*
X14704248Y-10602724D02*
X14675676Y-10602724D01*
X14856629Y-10602724D02*
X14837581Y-10593200D01*
X14837581Y-10593200D02*
X14828057Y-10574152D01*
X14828057Y-10574152D02*
X14828057Y-10402724D01*
X15009010Y-10593200D02*
X14989962Y-10602724D01*
X14989962Y-10602724D02*
X14951867Y-10602724D01*
X14951867Y-10602724D02*
X14932819Y-10593200D01*
X14932819Y-10593200D02*
X14923296Y-10574152D01*
X14923296Y-10574152D02*
X14923296Y-10497962D01*
X14923296Y-10497962D02*
X14932819Y-10478914D01*
X14932819Y-10478914D02*
X14951867Y-10469390D01*
X14951867Y-10469390D02*
X14989962Y-10469390D01*
X14989962Y-10469390D02*
X15009010Y-10478914D01*
X15009010Y-10478914D02*
X15018534Y-10497962D01*
X15018534Y-10497962D02*
X15018534Y-10517010D01*
X15018534Y-10517010D02*
X14923296Y-10536057D01*
X15094724Y-10593200D02*
X15113772Y-10602724D01*
X15113772Y-10602724D02*
X15151867Y-10602724D01*
X15151867Y-10602724D02*
X15170915Y-10593200D01*
X15170915Y-10593200D02*
X15180438Y-10574152D01*
X15180438Y-10574152D02*
X15180438Y-10564629D01*
X15180438Y-10564629D02*
X15170915Y-10545581D01*
X15170915Y-10545581D02*
X15151867Y-10536057D01*
X15151867Y-10536057D02*
X15123296Y-10536057D01*
X15123296Y-10536057D02*
X15104248Y-10526533D01*
X15104248Y-10526533D02*
X15094724Y-10507486D01*
X15094724Y-10507486D02*
X15094724Y-10497962D01*
X15094724Y-10497962D02*
X15104248Y-10478914D01*
X15104248Y-10478914D02*
X15123296Y-10469390D01*
X15123296Y-10469390D02*
X15151867Y-10469390D01*
X15151867Y-10469390D02*
X15170915Y-10478914D01*
X15247105Y-10678914D02*
X15256629Y-10669390D01*
X15256629Y-10669390D02*
X15275677Y-10640819D01*
X15275677Y-10640819D02*
X15285200Y-10621771D01*
X15285200Y-10621771D02*
X15294724Y-10593200D01*
X15294724Y-10593200D02*
X15304248Y-10545581D01*
X15304248Y-10545581D02*
X15304248Y-10507486D01*
X15304248Y-10507486D02*
X15294724Y-10459867D01*
X15294724Y-10459867D02*
X15285200Y-10431295D01*
X15285200Y-10431295D02*
X15275677Y-10412248D01*
X15275677Y-10412248D02*
X15256629Y-10383676D01*
X15256629Y-10383676D02*
X15247105Y-10374152D01*
D14*
X10450200Y-10739200D02*
X10450200Y-10809200D01*
X10415200Y-10774200D02*
X10485200Y-10774200D01*
D11*
X10770914Y-10666724D02*
X10789962Y-10666724D01*
X10789962Y-10666724D02*
X10809010Y-10676248D01*
X10809010Y-10676248D02*
X10818533Y-10685771D01*
X10818533Y-10685771D02*
X10828057Y-10704819D01*
X10828057Y-10704819D02*
X10837581Y-10742914D01*
X10837581Y-10742914D02*
X10837581Y-10790533D01*
X10837581Y-10790533D02*
X10828057Y-10828629D01*
X10828057Y-10828629D02*
X10818533Y-10847676D01*
X10818533Y-10847676D02*
X10809010Y-10857200D01*
X10809010Y-10857200D02*
X10789962Y-10866724D01*
X10789962Y-10866724D02*
X10770914Y-10866724D01*
X10770914Y-10866724D02*
X10751867Y-10857200D01*
X10751867Y-10857200D02*
X10742343Y-10847676D01*
X10742343Y-10847676D02*
X10732819Y-10828629D01*
X10732819Y-10828629D02*
X10723295Y-10790533D01*
X10723295Y-10790533D02*
X10723295Y-10742914D01*
X10723295Y-10742914D02*
X10732819Y-10704819D01*
X10732819Y-10704819D02*
X10742343Y-10685771D01*
X10742343Y-10685771D02*
X10751867Y-10676248D01*
X10751867Y-10676248D02*
X10770914Y-10666724D01*
X10923295Y-10847676D02*
X10932819Y-10857200D01*
X10932819Y-10857200D02*
X10923295Y-10866724D01*
X10923295Y-10866724D02*
X10913771Y-10857200D01*
X10913771Y-10857200D02*
X10923295Y-10847676D01*
X10923295Y-10847676D02*
X10923295Y-10866724D01*
X10999486Y-10666724D02*
X11132819Y-10666724D01*
X11132819Y-10666724D02*
X11047105Y-10866724D01*
X11247105Y-10666724D02*
X11266152Y-10666724D01*
X11266152Y-10666724D02*
X11285200Y-10676248D01*
X11285200Y-10676248D02*
X11294724Y-10685771D01*
X11294724Y-10685771D02*
X11304248Y-10704819D01*
X11304248Y-10704819D02*
X11313771Y-10742914D01*
X11313771Y-10742914D02*
X11313771Y-10790533D01*
X11313771Y-10790533D02*
X11304248Y-10828629D01*
X11304248Y-10828629D02*
X11294724Y-10847676D01*
X11294724Y-10847676D02*
X11285200Y-10857200D01*
X11285200Y-10857200D02*
X11266152Y-10866724D01*
X11266152Y-10866724D02*
X11247105Y-10866724D01*
X11247105Y-10866724D02*
X11228057Y-10857200D01*
X11228057Y-10857200D02*
X11218533Y-10847676D01*
X11218533Y-10847676D02*
X11209009Y-10828629D01*
X11209009Y-10828629D02*
X11199486Y-10790533D01*
X11199486Y-10790533D02*
X11199486Y-10742914D01*
X11199486Y-10742914D02*
X11209009Y-10704819D01*
X11209009Y-10704819D02*
X11218533Y-10685771D01*
X11218533Y-10685771D02*
X11228057Y-10676248D01*
X11228057Y-10676248D02*
X11247105Y-10666724D01*
X11437581Y-10666724D02*
X11456629Y-10666724D01*
X11456629Y-10666724D02*
X11475676Y-10676248D01*
X11475676Y-10676248D02*
X11485200Y-10685771D01*
X11485200Y-10685771D02*
X11494724Y-10704819D01*
X11494724Y-10704819D02*
X11504248Y-10742914D01*
X11504248Y-10742914D02*
X11504248Y-10790533D01*
X11504248Y-10790533D02*
X11494724Y-10828629D01*
X11494724Y-10828629D02*
X11485200Y-10847676D01*
X11485200Y-10847676D02*
X11475676Y-10857200D01*
X11475676Y-10857200D02*
X11456629Y-10866724D01*
X11456629Y-10866724D02*
X11437581Y-10866724D01*
X11437581Y-10866724D02*
X11418533Y-10857200D01*
X11418533Y-10857200D02*
X11409009Y-10847676D01*
X11409009Y-10847676D02*
X11399486Y-10828629D01*
X11399486Y-10828629D02*
X11389962Y-10790533D01*
X11389962Y-10790533D02*
X11389962Y-10742914D01*
X11389962Y-10742914D02*
X11399486Y-10704819D01*
X11399486Y-10704819D02*
X11409009Y-10685771D01*
X11409009Y-10685771D02*
X11418533Y-10676248D01*
X11418533Y-10676248D02*
X11437581Y-10666724D01*
X11589962Y-10866724D02*
X11589962Y-10733390D01*
X11589962Y-10752438D02*
X11599486Y-10742914D01*
X11599486Y-10742914D02*
X11618533Y-10733390D01*
X11618533Y-10733390D02*
X11647105Y-10733390D01*
X11647105Y-10733390D02*
X11666152Y-10742914D01*
X11666152Y-10742914D02*
X11675676Y-10761962D01*
X11675676Y-10761962D02*
X11675676Y-10866724D01*
X11675676Y-10761962D02*
X11685200Y-10742914D01*
X11685200Y-10742914D02*
X11704248Y-10733390D01*
X11704248Y-10733390D02*
X11732819Y-10733390D01*
X11732819Y-10733390D02*
X11751867Y-10742914D01*
X11751867Y-10742914D02*
X11761390Y-10761962D01*
X11761390Y-10761962D02*
X11761390Y-10866724D01*
X11856629Y-10866724D02*
X11856629Y-10733390D01*
X11856629Y-10752438D02*
X11866152Y-10742914D01*
X11866152Y-10742914D02*
X11885200Y-10733390D01*
X11885200Y-10733390D02*
X11913771Y-10733390D01*
X11913771Y-10733390D02*
X11932819Y-10742914D01*
X11932819Y-10742914D02*
X11942343Y-10761962D01*
X11942343Y-10761962D02*
X11942343Y-10866724D01*
X11942343Y-10761962D02*
X11951867Y-10742914D01*
X11951867Y-10742914D02*
X11970914Y-10733390D01*
X11970914Y-10733390D02*
X11999486Y-10733390D01*
X11999486Y-10733390D02*
X12018533Y-10742914D01*
X12018533Y-10742914D02*
X12028057Y-10761962D01*
X12028057Y-10761962D02*
X12028057Y-10866724D01*
X12418533Y-10657200D02*
X12247105Y-10914343D01*
X12675676Y-10666724D02*
X12694724Y-10666724D01*
X12694724Y-10666724D02*
X12713772Y-10676248D01*
X12713772Y-10676248D02*
X12723295Y-10685771D01*
X12723295Y-10685771D02*
X12732819Y-10704819D01*
X12732819Y-10704819D02*
X12742343Y-10742914D01*
X12742343Y-10742914D02*
X12742343Y-10790533D01*
X12742343Y-10790533D02*
X12732819Y-10828629D01*
X12732819Y-10828629D02*
X12723295Y-10847676D01*
X12723295Y-10847676D02*
X12713772Y-10857200D01*
X12713772Y-10857200D02*
X12694724Y-10866724D01*
X12694724Y-10866724D02*
X12675676Y-10866724D01*
X12675676Y-10866724D02*
X12656629Y-10857200D01*
X12656629Y-10857200D02*
X12647105Y-10847676D01*
X12647105Y-10847676D02*
X12637581Y-10828629D01*
X12637581Y-10828629D02*
X12628057Y-10790533D01*
X12628057Y-10790533D02*
X12628057Y-10742914D01*
X12628057Y-10742914D02*
X12637581Y-10704819D01*
X12637581Y-10704819D02*
X12647105Y-10685771D01*
X12647105Y-10685771D02*
X12656629Y-10676248D01*
X12656629Y-10676248D02*
X12675676Y-10666724D01*
X12828057Y-10847676D02*
X12837581Y-10857200D01*
X12837581Y-10857200D02*
X12828057Y-10866724D01*
X12828057Y-10866724D02*
X12818533Y-10857200D01*
X12818533Y-10857200D02*
X12828057Y-10847676D01*
X12828057Y-10847676D02*
X12828057Y-10866724D01*
X12961391Y-10666724D02*
X12980438Y-10666724D01*
X12980438Y-10666724D02*
X12999486Y-10676248D01*
X12999486Y-10676248D02*
X13009010Y-10685771D01*
X13009010Y-10685771D02*
X13018533Y-10704819D01*
X13018533Y-10704819D02*
X13028057Y-10742914D01*
X13028057Y-10742914D02*
X13028057Y-10790533D01*
X13028057Y-10790533D02*
X13018533Y-10828629D01*
X13018533Y-10828629D02*
X13009010Y-10847676D01*
X13009010Y-10847676D02*
X12999486Y-10857200D01*
X12999486Y-10857200D02*
X12980438Y-10866724D01*
X12980438Y-10866724D02*
X12961391Y-10866724D01*
X12961391Y-10866724D02*
X12942343Y-10857200D01*
X12942343Y-10857200D02*
X12932819Y-10847676D01*
X12932819Y-10847676D02*
X12923295Y-10828629D01*
X12923295Y-10828629D02*
X12913772Y-10790533D01*
X12913772Y-10790533D02*
X12913772Y-10742914D01*
X12913772Y-10742914D02*
X12923295Y-10704819D01*
X12923295Y-10704819D02*
X12932819Y-10685771D01*
X12932819Y-10685771D02*
X12942343Y-10676248D01*
X12942343Y-10676248D02*
X12961391Y-10666724D01*
X13104248Y-10685771D02*
X13113772Y-10676248D01*
X13113772Y-10676248D02*
X13132819Y-10666724D01*
X13132819Y-10666724D02*
X13180438Y-10666724D01*
X13180438Y-10666724D02*
X13199486Y-10676248D01*
X13199486Y-10676248D02*
X13209010Y-10685771D01*
X13209010Y-10685771D02*
X13218533Y-10704819D01*
X13218533Y-10704819D02*
X13218533Y-10723867D01*
X13218533Y-10723867D02*
X13209010Y-10752438D01*
X13209010Y-10752438D02*
X13094724Y-10866724D01*
X13094724Y-10866724D02*
X13218533Y-10866724D01*
X13285200Y-10666724D02*
X13418533Y-10666724D01*
X13418533Y-10666724D02*
X13332819Y-10866724D01*
X13580438Y-10666724D02*
X13542343Y-10666724D01*
X13542343Y-10666724D02*
X13523295Y-10676248D01*
X13523295Y-10676248D02*
X13513772Y-10685771D01*
X13513772Y-10685771D02*
X13494724Y-10714343D01*
X13494724Y-10714343D02*
X13485200Y-10752438D01*
X13485200Y-10752438D02*
X13485200Y-10828629D01*
X13485200Y-10828629D02*
X13494724Y-10847676D01*
X13494724Y-10847676D02*
X13504248Y-10857200D01*
X13504248Y-10857200D02*
X13523295Y-10866724D01*
X13523295Y-10866724D02*
X13561391Y-10866724D01*
X13561391Y-10866724D02*
X13580438Y-10857200D01*
X13580438Y-10857200D02*
X13589962Y-10847676D01*
X13589962Y-10847676D02*
X13599486Y-10828629D01*
X13599486Y-10828629D02*
X13599486Y-10781010D01*
X13599486Y-10781010D02*
X13589962Y-10761962D01*
X13589962Y-10761962D02*
X13580438Y-10752438D01*
X13580438Y-10752438D02*
X13561391Y-10742914D01*
X13561391Y-10742914D02*
X13523295Y-10742914D01*
X13523295Y-10742914D02*
X13504248Y-10752438D01*
X13504248Y-10752438D02*
X13494724Y-10761962D01*
X13494724Y-10761962D02*
X13485200Y-10781010D01*
X13675676Y-10666724D02*
X13675676Y-10704819D01*
X13751867Y-10666724D02*
X13751867Y-10704819D01*
X14047105Y-10942914D02*
X14037581Y-10933390D01*
X14037581Y-10933390D02*
X14018534Y-10904819D01*
X14018534Y-10904819D02*
X14009010Y-10885771D01*
X14009010Y-10885771D02*
X13999486Y-10857200D01*
X13999486Y-10857200D02*
X13989962Y-10809581D01*
X13989962Y-10809581D02*
X13989962Y-10771486D01*
X13989962Y-10771486D02*
X13999486Y-10723867D01*
X13999486Y-10723867D02*
X14009010Y-10695295D01*
X14009010Y-10695295D02*
X14018534Y-10676248D01*
X14018534Y-10676248D02*
X14037581Y-10647676D01*
X14037581Y-10647676D02*
X14047105Y-10638152D01*
X14151867Y-10752438D02*
X14132819Y-10742914D01*
X14132819Y-10742914D02*
X14123295Y-10733390D01*
X14123295Y-10733390D02*
X14113772Y-10714343D01*
X14113772Y-10714343D02*
X14113772Y-10704819D01*
X14113772Y-10704819D02*
X14123295Y-10685771D01*
X14123295Y-10685771D02*
X14132819Y-10676248D01*
X14132819Y-10676248D02*
X14151867Y-10666724D01*
X14151867Y-10666724D02*
X14189962Y-10666724D01*
X14189962Y-10666724D02*
X14209010Y-10676248D01*
X14209010Y-10676248D02*
X14218534Y-10685771D01*
X14218534Y-10685771D02*
X14228057Y-10704819D01*
X14228057Y-10704819D02*
X14228057Y-10714343D01*
X14228057Y-10714343D02*
X14218534Y-10733390D01*
X14218534Y-10733390D02*
X14209010Y-10742914D01*
X14209010Y-10742914D02*
X14189962Y-10752438D01*
X14189962Y-10752438D02*
X14151867Y-10752438D01*
X14151867Y-10752438D02*
X14132819Y-10761962D01*
X14132819Y-10761962D02*
X14123295Y-10771486D01*
X14123295Y-10771486D02*
X14113772Y-10790533D01*
X14113772Y-10790533D02*
X14113772Y-10828629D01*
X14113772Y-10828629D02*
X14123295Y-10847676D01*
X14123295Y-10847676D02*
X14132819Y-10857200D01*
X14132819Y-10857200D02*
X14151867Y-10866724D01*
X14151867Y-10866724D02*
X14189962Y-10866724D01*
X14189962Y-10866724D02*
X14209010Y-10857200D01*
X14209010Y-10857200D02*
X14218534Y-10847676D01*
X14218534Y-10847676D02*
X14228057Y-10828629D01*
X14228057Y-10828629D02*
X14228057Y-10790533D01*
X14228057Y-10790533D02*
X14218534Y-10771486D01*
X14218534Y-10771486D02*
X14209010Y-10761962D01*
X14209010Y-10761962D02*
X14189962Y-10752438D01*
X14466153Y-10866724D02*
X14466153Y-10666724D01*
X14551867Y-10866724D02*
X14551867Y-10761962D01*
X14551867Y-10761962D02*
X14542343Y-10742914D01*
X14542343Y-10742914D02*
X14523296Y-10733390D01*
X14523296Y-10733390D02*
X14494724Y-10733390D01*
X14494724Y-10733390D02*
X14475676Y-10742914D01*
X14475676Y-10742914D02*
X14466153Y-10752438D01*
X14675676Y-10866724D02*
X14656629Y-10857200D01*
X14656629Y-10857200D02*
X14647105Y-10847676D01*
X14647105Y-10847676D02*
X14637581Y-10828629D01*
X14637581Y-10828629D02*
X14637581Y-10771486D01*
X14637581Y-10771486D02*
X14647105Y-10752438D01*
X14647105Y-10752438D02*
X14656629Y-10742914D01*
X14656629Y-10742914D02*
X14675676Y-10733390D01*
X14675676Y-10733390D02*
X14704248Y-10733390D01*
X14704248Y-10733390D02*
X14723296Y-10742914D01*
X14723296Y-10742914D02*
X14732819Y-10752438D01*
X14732819Y-10752438D02*
X14742343Y-10771486D01*
X14742343Y-10771486D02*
X14742343Y-10828629D01*
X14742343Y-10828629D02*
X14732819Y-10847676D01*
X14732819Y-10847676D02*
X14723296Y-10857200D01*
X14723296Y-10857200D02*
X14704248Y-10866724D01*
X14704248Y-10866724D02*
X14675676Y-10866724D01*
X14856629Y-10866724D02*
X14837581Y-10857200D01*
X14837581Y-10857200D02*
X14828057Y-10838152D01*
X14828057Y-10838152D02*
X14828057Y-10666724D01*
X15009010Y-10857200D02*
X14989962Y-10866724D01*
X14989962Y-10866724D02*
X14951867Y-10866724D01*
X14951867Y-10866724D02*
X14932819Y-10857200D01*
X14932819Y-10857200D02*
X14923296Y-10838152D01*
X14923296Y-10838152D02*
X14923296Y-10761962D01*
X14923296Y-10761962D02*
X14932819Y-10742914D01*
X14932819Y-10742914D02*
X14951867Y-10733390D01*
X14951867Y-10733390D02*
X14989962Y-10733390D01*
X14989962Y-10733390D02*
X15009010Y-10742914D01*
X15009010Y-10742914D02*
X15018534Y-10761962D01*
X15018534Y-10761962D02*
X15018534Y-10781010D01*
X15018534Y-10781010D02*
X14923296Y-10800057D01*
X15094724Y-10857200D02*
X15113772Y-10866724D01*
X15113772Y-10866724D02*
X15151867Y-10866724D01*
X15151867Y-10866724D02*
X15170915Y-10857200D01*
X15170915Y-10857200D02*
X15180438Y-10838152D01*
X15180438Y-10838152D02*
X15180438Y-10828629D01*
X15180438Y-10828629D02*
X15170915Y-10809581D01*
X15170915Y-10809581D02*
X15151867Y-10800057D01*
X15151867Y-10800057D02*
X15123296Y-10800057D01*
X15123296Y-10800057D02*
X15104248Y-10790533D01*
X15104248Y-10790533D02*
X15094724Y-10771486D01*
X15094724Y-10771486D02*
X15094724Y-10761962D01*
X15094724Y-10761962D02*
X15104248Y-10742914D01*
X15104248Y-10742914D02*
X15123296Y-10733390D01*
X15123296Y-10733390D02*
X15151867Y-10733390D01*
X15151867Y-10733390D02*
X15170915Y-10742914D01*
X15418534Y-10790533D02*
X15570915Y-10790533D01*
X15494724Y-10866724D02*
X15494724Y-10714343D01*
X15809010Y-10685771D02*
X15818534Y-10676248D01*
X15818534Y-10676248D02*
X15837581Y-10666724D01*
X15837581Y-10666724D02*
X15885200Y-10666724D01*
X15885200Y-10666724D02*
X15904248Y-10676248D01*
X15904248Y-10676248D02*
X15913772Y-10685771D01*
X15913772Y-10685771D02*
X15923296Y-10704819D01*
X15923296Y-10704819D02*
X15923296Y-10723867D01*
X15923296Y-10723867D02*
X15913772Y-10752438D01*
X15913772Y-10752438D02*
X15799486Y-10866724D01*
X15799486Y-10866724D02*
X15923296Y-10866724D01*
X16151867Y-10857200D02*
X16170915Y-10866724D01*
X16170915Y-10866724D02*
X16209010Y-10866724D01*
X16209010Y-10866724D02*
X16228058Y-10857200D01*
X16228058Y-10857200D02*
X16237581Y-10838152D01*
X16237581Y-10838152D02*
X16237581Y-10828629D01*
X16237581Y-10828629D02*
X16228058Y-10809581D01*
X16228058Y-10809581D02*
X16209010Y-10800057D01*
X16209010Y-10800057D02*
X16180439Y-10800057D01*
X16180439Y-10800057D02*
X16161391Y-10790533D01*
X16161391Y-10790533D02*
X16151867Y-10771486D01*
X16151867Y-10771486D02*
X16151867Y-10761962D01*
X16151867Y-10761962D02*
X16161391Y-10742914D01*
X16161391Y-10742914D02*
X16180439Y-10733390D01*
X16180439Y-10733390D02*
X16209010Y-10733390D01*
X16209010Y-10733390D02*
X16228058Y-10742914D01*
X16351867Y-10866724D02*
X16332820Y-10857200D01*
X16332820Y-10857200D02*
X16323296Y-10838152D01*
X16323296Y-10838152D02*
X16323296Y-10666724D01*
X16456629Y-10866724D02*
X16437581Y-10857200D01*
X16437581Y-10857200D02*
X16428058Y-10847676D01*
X16428058Y-10847676D02*
X16418534Y-10828629D01*
X16418534Y-10828629D02*
X16418534Y-10771486D01*
X16418534Y-10771486D02*
X16428058Y-10752438D01*
X16428058Y-10752438D02*
X16437581Y-10742914D01*
X16437581Y-10742914D02*
X16456629Y-10733390D01*
X16456629Y-10733390D02*
X16485201Y-10733390D01*
X16485201Y-10733390D02*
X16504248Y-10742914D01*
X16504248Y-10742914D02*
X16513772Y-10752438D01*
X16513772Y-10752438D02*
X16523296Y-10771486D01*
X16523296Y-10771486D02*
X16523296Y-10828629D01*
X16523296Y-10828629D02*
X16513772Y-10847676D01*
X16513772Y-10847676D02*
X16504248Y-10857200D01*
X16504248Y-10857200D02*
X16485201Y-10866724D01*
X16485201Y-10866724D02*
X16456629Y-10866724D01*
X16580439Y-10733390D02*
X16656629Y-10733390D01*
X16609010Y-10666724D02*
X16609010Y-10838152D01*
X16609010Y-10838152D02*
X16618534Y-10857200D01*
X16618534Y-10857200D02*
X16637581Y-10866724D01*
X16637581Y-10866724D02*
X16656629Y-10866724D01*
X16713772Y-10857200D02*
X16732820Y-10866724D01*
X16732820Y-10866724D02*
X16770915Y-10866724D01*
X16770915Y-10866724D02*
X16789963Y-10857200D01*
X16789963Y-10857200D02*
X16799486Y-10838152D01*
X16799486Y-10838152D02*
X16799486Y-10828629D01*
X16799486Y-10828629D02*
X16789963Y-10809581D01*
X16789963Y-10809581D02*
X16770915Y-10800057D01*
X16770915Y-10800057D02*
X16742343Y-10800057D01*
X16742343Y-10800057D02*
X16723296Y-10790533D01*
X16723296Y-10790533D02*
X16713772Y-10771486D01*
X16713772Y-10771486D02*
X16713772Y-10761962D01*
X16713772Y-10761962D02*
X16723296Y-10742914D01*
X16723296Y-10742914D02*
X16742343Y-10733390D01*
X16742343Y-10733390D02*
X16770915Y-10733390D01*
X16770915Y-10733390D02*
X16789963Y-10742914D01*
X16866153Y-10942914D02*
X16875677Y-10933390D01*
X16875677Y-10933390D02*
X16894724Y-10904819D01*
X16894724Y-10904819D02*
X16904248Y-10885771D01*
X16904248Y-10885771D02*
X16913772Y-10857200D01*
X16913772Y-10857200D02*
X16923296Y-10809581D01*
X16923296Y-10809581D02*
X16923296Y-10771486D01*
X16923296Y-10771486D02*
X16913772Y-10723867D01*
X16913772Y-10723867D02*
X16904248Y-10695295D01*
X16904248Y-10695295D02*
X16894724Y-10676248D01*
X16894724Y-10676248D02*
X16875677Y-10647676D01*
X16875677Y-10647676D02*
X16866153Y-10638152D01*
D15*
X10463234Y-11091234D02*
X10463234Y-10985167D01*
X10357167Y-10985167D01*
X10357167Y-11091234D01*
X10463234Y-11091234D01*
D11*
X10837581Y-11130724D02*
X10723295Y-11130724D01*
X10780438Y-11130724D02*
X10780438Y-10930724D01*
X10780438Y-10930724D02*
X10761390Y-10959295D01*
X10761390Y-10959295D02*
X10742343Y-10978343D01*
X10742343Y-10978343D02*
X10723295Y-10987867D01*
X10923295Y-11111676D02*
X10932819Y-11121200D01*
X10932819Y-11121200D02*
X10923295Y-11130724D01*
X10923295Y-11130724D02*
X10913771Y-11121200D01*
X10913771Y-11121200D02*
X10923295Y-11111676D01*
X10923295Y-11111676D02*
X10923295Y-11130724D01*
X11113771Y-10930724D02*
X11018533Y-10930724D01*
X11018533Y-10930724D02*
X11009010Y-11025962D01*
X11009010Y-11025962D02*
X11018533Y-11016438D01*
X11018533Y-11016438D02*
X11037581Y-11006914D01*
X11037581Y-11006914D02*
X11085200Y-11006914D01*
X11085200Y-11006914D02*
X11104248Y-11016438D01*
X11104248Y-11016438D02*
X11113771Y-11025962D01*
X11113771Y-11025962D02*
X11123295Y-11045010D01*
X11123295Y-11045010D02*
X11123295Y-11092629D01*
X11123295Y-11092629D02*
X11113771Y-11111676D01*
X11113771Y-11111676D02*
X11104248Y-11121200D01*
X11104248Y-11121200D02*
X11085200Y-11130724D01*
X11085200Y-11130724D02*
X11037581Y-11130724D01*
X11037581Y-11130724D02*
X11018533Y-11121200D01*
X11018533Y-11121200D02*
X11009010Y-11111676D01*
X11247105Y-10930724D02*
X11266152Y-10930724D01*
X11266152Y-10930724D02*
X11285200Y-10940248D01*
X11285200Y-10940248D02*
X11294724Y-10949771D01*
X11294724Y-10949771D02*
X11304248Y-10968819D01*
X11304248Y-10968819D02*
X11313771Y-11006914D01*
X11313771Y-11006914D02*
X11313771Y-11054533D01*
X11313771Y-11054533D02*
X11304248Y-11092629D01*
X11304248Y-11092629D02*
X11294724Y-11111676D01*
X11294724Y-11111676D02*
X11285200Y-11121200D01*
X11285200Y-11121200D02*
X11266152Y-11130724D01*
X11266152Y-11130724D02*
X11247105Y-11130724D01*
X11247105Y-11130724D02*
X11228057Y-11121200D01*
X11228057Y-11121200D02*
X11218533Y-11111676D01*
X11218533Y-11111676D02*
X11209009Y-11092629D01*
X11209009Y-11092629D02*
X11199486Y-11054533D01*
X11199486Y-11054533D02*
X11199486Y-11006914D01*
X11199486Y-11006914D02*
X11209009Y-10968819D01*
X11209009Y-10968819D02*
X11218533Y-10949771D01*
X11218533Y-10949771D02*
X11228057Y-10940248D01*
X11228057Y-10940248D02*
X11247105Y-10930724D01*
X11437581Y-10930724D02*
X11456629Y-10930724D01*
X11456629Y-10930724D02*
X11475676Y-10940248D01*
X11475676Y-10940248D02*
X11485200Y-10949771D01*
X11485200Y-10949771D02*
X11494724Y-10968819D01*
X11494724Y-10968819D02*
X11504248Y-11006914D01*
X11504248Y-11006914D02*
X11504248Y-11054533D01*
X11504248Y-11054533D02*
X11494724Y-11092629D01*
X11494724Y-11092629D02*
X11485200Y-11111676D01*
X11485200Y-11111676D02*
X11475676Y-11121200D01*
X11475676Y-11121200D02*
X11456629Y-11130724D01*
X11456629Y-11130724D02*
X11437581Y-11130724D01*
X11437581Y-11130724D02*
X11418533Y-11121200D01*
X11418533Y-11121200D02*
X11409009Y-11111676D01*
X11409009Y-11111676D02*
X11399486Y-11092629D01*
X11399486Y-11092629D02*
X11389962Y-11054533D01*
X11389962Y-11054533D02*
X11389962Y-11006914D01*
X11389962Y-11006914D02*
X11399486Y-10968819D01*
X11399486Y-10968819D02*
X11409009Y-10949771D01*
X11409009Y-10949771D02*
X11418533Y-10940248D01*
X11418533Y-10940248D02*
X11437581Y-10930724D01*
X11589962Y-11130724D02*
X11589962Y-10997390D01*
X11589962Y-11016438D02*
X11599486Y-11006914D01*
X11599486Y-11006914D02*
X11618533Y-10997390D01*
X11618533Y-10997390D02*
X11647105Y-10997390D01*
X11647105Y-10997390D02*
X11666152Y-11006914D01*
X11666152Y-11006914D02*
X11675676Y-11025962D01*
X11675676Y-11025962D02*
X11675676Y-11130724D01*
X11675676Y-11025962D02*
X11685200Y-11006914D01*
X11685200Y-11006914D02*
X11704248Y-10997390D01*
X11704248Y-10997390D02*
X11732819Y-10997390D01*
X11732819Y-10997390D02*
X11751867Y-11006914D01*
X11751867Y-11006914D02*
X11761390Y-11025962D01*
X11761390Y-11025962D02*
X11761390Y-11130724D01*
X11856629Y-11130724D02*
X11856629Y-10997390D01*
X11856629Y-11016438D02*
X11866152Y-11006914D01*
X11866152Y-11006914D02*
X11885200Y-10997390D01*
X11885200Y-10997390D02*
X11913771Y-10997390D01*
X11913771Y-10997390D02*
X11932819Y-11006914D01*
X11932819Y-11006914D02*
X11942343Y-11025962D01*
X11942343Y-11025962D02*
X11942343Y-11130724D01*
X11942343Y-11025962D02*
X11951867Y-11006914D01*
X11951867Y-11006914D02*
X11970914Y-10997390D01*
X11970914Y-10997390D02*
X11999486Y-10997390D01*
X11999486Y-10997390D02*
X12018533Y-11006914D01*
X12018533Y-11006914D02*
X12028057Y-11025962D01*
X12028057Y-11025962D02*
X12028057Y-11130724D01*
X12418533Y-10921200D02*
X12247105Y-11178343D01*
X12675676Y-10930724D02*
X12694724Y-10930724D01*
X12694724Y-10930724D02*
X12713772Y-10940248D01*
X12713772Y-10940248D02*
X12723295Y-10949771D01*
X12723295Y-10949771D02*
X12732819Y-10968819D01*
X12732819Y-10968819D02*
X12742343Y-11006914D01*
X12742343Y-11006914D02*
X12742343Y-11054533D01*
X12742343Y-11054533D02*
X12732819Y-11092629D01*
X12732819Y-11092629D02*
X12723295Y-11111676D01*
X12723295Y-11111676D02*
X12713772Y-11121200D01*
X12713772Y-11121200D02*
X12694724Y-11130724D01*
X12694724Y-11130724D02*
X12675676Y-11130724D01*
X12675676Y-11130724D02*
X12656629Y-11121200D01*
X12656629Y-11121200D02*
X12647105Y-11111676D01*
X12647105Y-11111676D02*
X12637581Y-11092629D01*
X12637581Y-11092629D02*
X12628057Y-11054533D01*
X12628057Y-11054533D02*
X12628057Y-11006914D01*
X12628057Y-11006914D02*
X12637581Y-10968819D01*
X12637581Y-10968819D02*
X12647105Y-10949771D01*
X12647105Y-10949771D02*
X12656629Y-10940248D01*
X12656629Y-10940248D02*
X12675676Y-10930724D01*
X12828057Y-11111676D02*
X12837581Y-11121200D01*
X12837581Y-11121200D02*
X12828057Y-11130724D01*
X12828057Y-11130724D02*
X12818533Y-11121200D01*
X12818533Y-11121200D02*
X12828057Y-11111676D01*
X12828057Y-11111676D02*
X12828057Y-11130724D01*
X12961391Y-10930724D02*
X12980438Y-10930724D01*
X12980438Y-10930724D02*
X12999486Y-10940248D01*
X12999486Y-10940248D02*
X13009010Y-10949771D01*
X13009010Y-10949771D02*
X13018533Y-10968819D01*
X13018533Y-10968819D02*
X13028057Y-11006914D01*
X13028057Y-11006914D02*
X13028057Y-11054533D01*
X13028057Y-11054533D02*
X13018533Y-11092629D01*
X13018533Y-11092629D02*
X13009010Y-11111676D01*
X13009010Y-11111676D02*
X12999486Y-11121200D01*
X12999486Y-11121200D02*
X12980438Y-11130724D01*
X12980438Y-11130724D02*
X12961391Y-11130724D01*
X12961391Y-11130724D02*
X12942343Y-11121200D01*
X12942343Y-11121200D02*
X12932819Y-11111676D01*
X12932819Y-11111676D02*
X12923295Y-11092629D01*
X12923295Y-11092629D02*
X12913772Y-11054533D01*
X12913772Y-11054533D02*
X12913772Y-11006914D01*
X12913772Y-11006914D02*
X12923295Y-10968819D01*
X12923295Y-10968819D02*
X12932819Y-10949771D01*
X12932819Y-10949771D02*
X12942343Y-10940248D01*
X12942343Y-10940248D02*
X12961391Y-10930724D01*
X13209010Y-10930724D02*
X13113772Y-10930724D01*
X13113772Y-10930724D02*
X13104248Y-11025962D01*
X13104248Y-11025962D02*
X13113772Y-11016438D01*
X13113772Y-11016438D02*
X13132819Y-11006914D01*
X13132819Y-11006914D02*
X13180438Y-11006914D01*
X13180438Y-11006914D02*
X13199486Y-11016438D01*
X13199486Y-11016438D02*
X13209010Y-11025962D01*
X13209010Y-11025962D02*
X13218533Y-11045010D01*
X13218533Y-11045010D02*
X13218533Y-11092629D01*
X13218533Y-11092629D02*
X13209010Y-11111676D01*
X13209010Y-11111676D02*
X13199486Y-11121200D01*
X13199486Y-11121200D02*
X13180438Y-11130724D01*
X13180438Y-11130724D02*
X13132819Y-11130724D01*
X13132819Y-11130724D02*
X13113772Y-11121200D01*
X13113772Y-11121200D02*
X13104248Y-11111676D01*
X13313772Y-11130724D02*
X13351867Y-11130724D01*
X13351867Y-11130724D02*
X13370914Y-11121200D01*
X13370914Y-11121200D02*
X13380438Y-11111676D01*
X13380438Y-11111676D02*
X13399486Y-11083105D01*
X13399486Y-11083105D02*
X13409010Y-11045010D01*
X13409010Y-11045010D02*
X13409010Y-10968819D01*
X13409010Y-10968819D02*
X13399486Y-10949771D01*
X13399486Y-10949771D02*
X13389962Y-10940248D01*
X13389962Y-10940248D02*
X13370914Y-10930724D01*
X13370914Y-10930724D02*
X13332819Y-10930724D01*
X13332819Y-10930724D02*
X13313772Y-10940248D01*
X13313772Y-10940248D02*
X13304248Y-10949771D01*
X13304248Y-10949771D02*
X13294724Y-10968819D01*
X13294724Y-10968819D02*
X13294724Y-11016438D01*
X13294724Y-11016438D02*
X13304248Y-11035486D01*
X13304248Y-11035486D02*
X13313772Y-11045010D01*
X13313772Y-11045010D02*
X13332819Y-11054533D01*
X13332819Y-11054533D02*
X13370914Y-11054533D01*
X13370914Y-11054533D02*
X13389962Y-11045010D01*
X13389962Y-11045010D02*
X13399486Y-11035486D01*
X13399486Y-11035486D02*
X13409010Y-11016438D01*
X13599486Y-11130724D02*
X13485200Y-11130724D01*
X13542343Y-11130724D02*
X13542343Y-10930724D01*
X13542343Y-10930724D02*
X13523295Y-10959295D01*
X13523295Y-10959295D02*
X13504248Y-10978343D01*
X13504248Y-10978343D02*
X13485200Y-10987867D01*
X13675676Y-10930724D02*
X13675676Y-10968819D01*
X13751867Y-10930724D02*
X13751867Y-10968819D01*
X14047105Y-11206914D02*
X14037581Y-11197390D01*
X14037581Y-11197390D02*
X14018534Y-11168819D01*
X14018534Y-11168819D02*
X14009010Y-11149771D01*
X14009010Y-11149771D02*
X13999486Y-11121200D01*
X13999486Y-11121200D02*
X13989962Y-11073581D01*
X13989962Y-11073581D02*
X13989962Y-11035486D01*
X13989962Y-11035486D02*
X13999486Y-10987867D01*
X13999486Y-10987867D02*
X14009010Y-10959295D01*
X14009010Y-10959295D02*
X14018534Y-10940248D01*
X14018534Y-10940248D02*
X14037581Y-10911676D01*
X14037581Y-10911676D02*
X14047105Y-10902152D01*
X14151867Y-11016438D02*
X14132819Y-11006914D01*
X14132819Y-11006914D02*
X14123295Y-10997390D01*
X14123295Y-10997390D02*
X14113772Y-10978343D01*
X14113772Y-10978343D02*
X14113772Y-10968819D01*
X14113772Y-10968819D02*
X14123295Y-10949771D01*
X14123295Y-10949771D02*
X14132819Y-10940248D01*
X14132819Y-10940248D02*
X14151867Y-10930724D01*
X14151867Y-10930724D02*
X14189962Y-10930724D01*
X14189962Y-10930724D02*
X14209010Y-10940248D01*
X14209010Y-10940248D02*
X14218534Y-10949771D01*
X14218534Y-10949771D02*
X14228057Y-10968819D01*
X14228057Y-10968819D02*
X14228057Y-10978343D01*
X14228057Y-10978343D02*
X14218534Y-10997390D01*
X14218534Y-10997390D02*
X14209010Y-11006914D01*
X14209010Y-11006914D02*
X14189962Y-11016438D01*
X14189962Y-11016438D02*
X14151867Y-11016438D01*
X14151867Y-11016438D02*
X14132819Y-11025962D01*
X14132819Y-11025962D02*
X14123295Y-11035486D01*
X14123295Y-11035486D02*
X14113772Y-11054533D01*
X14113772Y-11054533D02*
X14113772Y-11092629D01*
X14113772Y-11092629D02*
X14123295Y-11111676D01*
X14123295Y-11111676D02*
X14132819Y-11121200D01*
X14132819Y-11121200D02*
X14151867Y-11130724D01*
X14151867Y-11130724D02*
X14189962Y-11130724D01*
X14189962Y-11130724D02*
X14209010Y-11121200D01*
X14209010Y-11121200D02*
X14218534Y-11111676D01*
X14218534Y-11111676D02*
X14228057Y-11092629D01*
X14228057Y-11092629D02*
X14228057Y-11054533D01*
X14228057Y-11054533D02*
X14218534Y-11035486D01*
X14218534Y-11035486D02*
X14209010Y-11025962D01*
X14209010Y-11025962D02*
X14189962Y-11016438D01*
X14466153Y-11130724D02*
X14466153Y-10930724D01*
X14551867Y-11130724D02*
X14551867Y-11025962D01*
X14551867Y-11025962D02*
X14542343Y-11006914D01*
X14542343Y-11006914D02*
X14523296Y-10997390D01*
X14523296Y-10997390D02*
X14494724Y-10997390D01*
X14494724Y-10997390D02*
X14475676Y-11006914D01*
X14475676Y-11006914D02*
X14466153Y-11016438D01*
X14675676Y-11130724D02*
X14656629Y-11121200D01*
X14656629Y-11121200D02*
X14647105Y-11111676D01*
X14647105Y-11111676D02*
X14637581Y-11092629D01*
X14637581Y-11092629D02*
X14637581Y-11035486D01*
X14637581Y-11035486D02*
X14647105Y-11016438D01*
X14647105Y-11016438D02*
X14656629Y-11006914D01*
X14656629Y-11006914D02*
X14675676Y-10997390D01*
X14675676Y-10997390D02*
X14704248Y-10997390D01*
X14704248Y-10997390D02*
X14723296Y-11006914D01*
X14723296Y-11006914D02*
X14732819Y-11016438D01*
X14732819Y-11016438D02*
X14742343Y-11035486D01*
X14742343Y-11035486D02*
X14742343Y-11092629D01*
X14742343Y-11092629D02*
X14732819Y-11111676D01*
X14732819Y-11111676D02*
X14723296Y-11121200D01*
X14723296Y-11121200D02*
X14704248Y-11130724D01*
X14704248Y-11130724D02*
X14675676Y-11130724D01*
X14856629Y-11130724D02*
X14837581Y-11121200D01*
X14837581Y-11121200D02*
X14828057Y-11102152D01*
X14828057Y-11102152D02*
X14828057Y-10930724D01*
X15009010Y-11121200D02*
X14989962Y-11130724D01*
X14989962Y-11130724D02*
X14951867Y-11130724D01*
X14951867Y-11130724D02*
X14932819Y-11121200D01*
X14932819Y-11121200D02*
X14923296Y-11102152D01*
X14923296Y-11102152D02*
X14923296Y-11025962D01*
X14923296Y-11025962D02*
X14932819Y-11006914D01*
X14932819Y-11006914D02*
X14951867Y-10997390D01*
X14951867Y-10997390D02*
X14989962Y-10997390D01*
X14989962Y-10997390D02*
X15009010Y-11006914D01*
X15009010Y-11006914D02*
X15018534Y-11025962D01*
X15018534Y-11025962D02*
X15018534Y-11045010D01*
X15018534Y-11045010D02*
X14923296Y-11064057D01*
X15094724Y-11121200D02*
X15113772Y-11130724D01*
X15113772Y-11130724D02*
X15151867Y-11130724D01*
X15151867Y-11130724D02*
X15170915Y-11121200D01*
X15170915Y-11121200D02*
X15180438Y-11102152D01*
X15180438Y-11102152D02*
X15180438Y-11092629D01*
X15180438Y-11092629D02*
X15170915Y-11073581D01*
X15170915Y-11073581D02*
X15151867Y-11064057D01*
X15151867Y-11064057D02*
X15123296Y-11064057D01*
X15123296Y-11064057D02*
X15104248Y-11054533D01*
X15104248Y-11054533D02*
X15094724Y-11035486D01*
X15094724Y-11035486D02*
X15094724Y-11025962D01*
X15094724Y-11025962D02*
X15104248Y-11006914D01*
X15104248Y-11006914D02*
X15123296Y-10997390D01*
X15123296Y-10997390D02*
X15151867Y-10997390D01*
X15151867Y-10997390D02*
X15170915Y-11006914D01*
X15247105Y-11206914D02*
X15256629Y-11197390D01*
X15256629Y-11197390D02*
X15275677Y-11168819D01*
X15275677Y-11168819D02*
X15285200Y-11149771D01*
X15285200Y-11149771D02*
X15294724Y-11121200D01*
X15294724Y-11121200D02*
X15304248Y-11073581D01*
X15304248Y-11073581D02*
X15304248Y-11035486D01*
X15304248Y-11035486D02*
X15294724Y-10987867D01*
X15294724Y-10987867D02*
X15285200Y-10959295D01*
X15285200Y-10959295D02*
X15275677Y-10940248D01*
X15275677Y-10940248D02*
X15256629Y-10911676D01*
X15256629Y-10911676D02*
X15247105Y-10902152D01*
M02*
