%TF.GenerationSoftware,KiCad,Pcbnew,7.0.1*%
%TF.CreationDate,2023-04-28T17:45:18+02:00*%
%TF.ProjectId,4_switch_pcb,345f7377-6974-4636-985f-7063622e6b69,rev?*%
%TF.SameCoordinates,Original*%
%TF.FileFunction,Drillmap*%
%TF.FilePolarity,Positive*%
%FSLAX45Y45*%
G04 Gerber Fmt 4.5, Leading zero omitted, Abs format (unit mm)*
G04 Created by KiCad (PCBNEW 7.0.1) date 2023-04-28 17:45:18*
%MOMM*%
%LPD*%
G01*
G04 APERTURE LIST*
%ADD10C,0.100000*%
%ADD11C,0.200000*%
%ADD12C,0.170000*%
%ADD13C,0.400000*%
G04 APERTURE END LIST*
D10*
X10500000Y-9601200D02*
X10500000Y-9601200D01*
X10500000Y-9601200D02*
X10490200Y-5664200D01*
X10490200Y-5664200D02*
X18948400Y-5664200D01*
X18950000Y-9601200D02*
X10500000Y-9601200D01*
X18948400Y-5664200D02*
X18950000Y-9601200D01*
D11*
D12*
X11106875Y-6582500D02*
X11276875Y-6752500D01*
X11276875Y-6582500D02*
X11106875Y-6752500D01*
X11106875Y-8487500D02*
X11276875Y-8657500D01*
X11276875Y-8487500D02*
X11106875Y-8657500D01*
X12122875Y-6582500D02*
X12292875Y-6752500D01*
X12292875Y-6582500D02*
X12122875Y-6752500D01*
X12122875Y-8487500D02*
X12292875Y-8657500D01*
X12292875Y-8487500D02*
X12122875Y-8657500D01*
X13202375Y-6582500D02*
X13372375Y-6752500D01*
X13372375Y-6582500D02*
X13202375Y-6752500D01*
X13202375Y-8487500D02*
X13372375Y-8657500D01*
X13372375Y-8487500D02*
X13202375Y-8657500D01*
X14218375Y-6582500D02*
X14388375Y-6752500D01*
X14388375Y-6582500D02*
X14218375Y-6752500D01*
X14218375Y-8487500D02*
X14388375Y-8657500D01*
X14388375Y-8487500D02*
X14218375Y-8657500D01*
D13*
X11899875Y-6667500D02*
G75*
G03*
X11899875Y-6667500I-200000J0D01*
G01*
X11899875Y-8572500D02*
G75*
G03*
X11899875Y-8572500I-200000J0D01*
G01*
X13995375Y-6667500D02*
G75*
G03*
X13995375Y-6667500I-200000J0D01*
G01*
X13995375Y-8572500D02*
G75*
G03*
X13995375Y-8572500I-200000J0D01*
G01*
D11*
X10732819Y-9918724D02*
X10732819Y-9718724D01*
X10732819Y-9718724D02*
X10780438Y-9718724D01*
X10780438Y-9718724D02*
X10809010Y-9728248D01*
X10809010Y-9728248D02*
X10828057Y-9747295D01*
X10828057Y-9747295D02*
X10837581Y-9766343D01*
X10837581Y-9766343D02*
X10847105Y-9804438D01*
X10847105Y-9804438D02*
X10847105Y-9833010D01*
X10847105Y-9833010D02*
X10837581Y-9871105D01*
X10837581Y-9871105D02*
X10828057Y-9890152D01*
X10828057Y-9890152D02*
X10809010Y-9909200D01*
X10809010Y-9909200D02*
X10780438Y-9918724D01*
X10780438Y-9918724D02*
X10732819Y-9918724D01*
X10932819Y-9918724D02*
X10932819Y-9785390D01*
X10932819Y-9823486D02*
X10942343Y-9804438D01*
X10942343Y-9804438D02*
X10951867Y-9794914D01*
X10951867Y-9794914D02*
X10970914Y-9785390D01*
X10970914Y-9785390D02*
X10989962Y-9785390D01*
X11056629Y-9918724D02*
X11056629Y-9785390D01*
X11056629Y-9718724D02*
X11047105Y-9728248D01*
X11047105Y-9728248D02*
X11056629Y-9737771D01*
X11056629Y-9737771D02*
X11066152Y-9728248D01*
X11066152Y-9728248D02*
X11056629Y-9718724D01*
X11056629Y-9718724D02*
X11056629Y-9737771D01*
X11180438Y-9918724D02*
X11161390Y-9909200D01*
X11161390Y-9909200D02*
X11151867Y-9890152D01*
X11151867Y-9890152D02*
X11151867Y-9718724D01*
X11285200Y-9918724D02*
X11266152Y-9909200D01*
X11266152Y-9909200D02*
X11256628Y-9890152D01*
X11256628Y-9890152D02*
X11256628Y-9718724D01*
X11513771Y-9918724D02*
X11513771Y-9718724D01*
X11513771Y-9718724D02*
X11580438Y-9861581D01*
X11580438Y-9861581D02*
X11647105Y-9718724D01*
X11647105Y-9718724D02*
X11647105Y-9918724D01*
X11828057Y-9918724D02*
X11828057Y-9813962D01*
X11828057Y-9813962D02*
X11818533Y-9794914D01*
X11818533Y-9794914D02*
X11799486Y-9785390D01*
X11799486Y-9785390D02*
X11761390Y-9785390D01*
X11761390Y-9785390D02*
X11742343Y-9794914D01*
X11828057Y-9909200D02*
X11809009Y-9918724D01*
X11809009Y-9918724D02*
X11761390Y-9918724D01*
X11761390Y-9918724D02*
X11742343Y-9909200D01*
X11742343Y-9909200D02*
X11732819Y-9890152D01*
X11732819Y-9890152D02*
X11732819Y-9871105D01*
X11732819Y-9871105D02*
X11742343Y-9852057D01*
X11742343Y-9852057D02*
X11761390Y-9842533D01*
X11761390Y-9842533D02*
X11809009Y-9842533D01*
X11809009Y-9842533D02*
X11828057Y-9833010D01*
X11923295Y-9785390D02*
X11923295Y-9985390D01*
X11923295Y-9794914D02*
X11942343Y-9785390D01*
X11942343Y-9785390D02*
X11980438Y-9785390D01*
X11980438Y-9785390D02*
X11999486Y-9794914D01*
X11999486Y-9794914D02*
X12009009Y-9804438D01*
X12009009Y-9804438D02*
X12018533Y-9823486D01*
X12018533Y-9823486D02*
X12018533Y-9880629D01*
X12018533Y-9880629D02*
X12009009Y-9899676D01*
X12009009Y-9899676D02*
X11999486Y-9909200D01*
X11999486Y-9909200D02*
X11980438Y-9918724D01*
X11980438Y-9918724D02*
X11942343Y-9918724D01*
X11942343Y-9918724D02*
X11923295Y-9909200D01*
X12104248Y-9899676D02*
X12113771Y-9909200D01*
X12113771Y-9909200D02*
X12104248Y-9918724D01*
X12104248Y-9918724D02*
X12094724Y-9909200D01*
X12094724Y-9909200D02*
X12104248Y-9899676D01*
X12104248Y-9899676D02*
X12104248Y-9918724D01*
X12104248Y-9794914D02*
X12113771Y-9804438D01*
X12113771Y-9804438D02*
X12104248Y-9813962D01*
X12104248Y-9813962D02*
X12094724Y-9804438D01*
X12094724Y-9804438D02*
X12104248Y-9794914D01*
X12104248Y-9794914D02*
X12104248Y-9813962D01*
D12*
X10315200Y-10161200D02*
X10485200Y-10331200D01*
X10485200Y-10161200D02*
X10315200Y-10331200D01*
D11*
X10837581Y-10338724D02*
X10723295Y-10338724D01*
X10780438Y-10338724D02*
X10780438Y-10138724D01*
X10780438Y-10138724D02*
X10761390Y-10167295D01*
X10761390Y-10167295D02*
X10742343Y-10186343D01*
X10742343Y-10186343D02*
X10723295Y-10195867D01*
X10923295Y-10319676D02*
X10932819Y-10329200D01*
X10932819Y-10329200D02*
X10923295Y-10338724D01*
X10923295Y-10338724D02*
X10913771Y-10329200D01*
X10913771Y-10329200D02*
X10923295Y-10319676D01*
X10923295Y-10319676D02*
X10923295Y-10338724D01*
X10999486Y-10138724D02*
X11132819Y-10138724D01*
X11132819Y-10138724D02*
X11047105Y-10338724D01*
X11247105Y-10138724D02*
X11266152Y-10138724D01*
X11266152Y-10138724D02*
X11285200Y-10148248D01*
X11285200Y-10148248D02*
X11294724Y-10157771D01*
X11294724Y-10157771D02*
X11304248Y-10176819D01*
X11304248Y-10176819D02*
X11313771Y-10214914D01*
X11313771Y-10214914D02*
X11313771Y-10262533D01*
X11313771Y-10262533D02*
X11304248Y-10300629D01*
X11304248Y-10300629D02*
X11294724Y-10319676D01*
X11294724Y-10319676D02*
X11285200Y-10329200D01*
X11285200Y-10329200D02*
X11266152Y-10338724D01*
X11266152Y-10338724D02*
X11247105Y-10338724D01*
X11247105Y-10338724D02*
X11228057Y-10329200D01*
X11228057Y-10329200D02*
X11218533Y-10319676D01*
X11218533Y-10319676D02*
X11209009Y-10300629D01*
X11209009Y-10300629D02*
X11199486Y-10262533D01*
X11199486Y-10262533D02*
X11199486Y-10214914D01*
X11199486Y-10214914D02*
X11209009Y-10176819D01*
X11209009Y-10176819D02*
X11218533Y-10157771D01*
X11218533Y-10157771D02*
X11228057Y-10148248D01*
X11228057Y-10148248D02*
X11247105Y-10138724D01*
X11437581Y-10138724D02*
X11456629Y-10138724D01*
X11456629Y-10138724D02*
X11475676Y-10148248D01*
X11475676Y-10148248D02*
X11485200Y-10157771D01*
X11485200Y-10157771D02*
X11494724Y-10176819D01*
X11494724Y-10176819D02*
X11504248Y-10214914D01*
X11504248Y-10214914D02*
X11504248Y-10262533D01*
X11504248Y-10262533D02*
X11494724Y-10300629D01*
X11494724Y-10300629D02*
X11485200Y-10319676D01*
X11485200Y-10319676D02*
X11475676Y-10329200D01*
X11475676Y-10329200D02*
X11456629Y-10338724D01*
X11456629Y-10338724D02*
X11437581Y-10338724D01*
X11437581Y-10338724D02*
X11418533Y-10329200D01*
X11418533Y-10329200D02*
X11409009Y-10319676D01*
X11409009Y-10319676D02*
X11399486Y-10300629D01*
X11399486Y-10300629D02*
X11389962Y-10262533D01*
X11389962Y-10262533D02*
X11389962Y-10214914D01*
X11389962Y-10214914D02*
X11399486Y-10176819D01*
X11399486Y-10176819D02*
X11409009Y-10157771D01*
X11409009Y-10157771D02*
X11418533Y-10148248D01*
X11418533Y-10148248D02*
X11437581Y-10138724D01*
X11589962Y-10338724D02*
X11589962Y-10205390D01*
X11589962Y-10224438D02*
X11599486Y-10214914D01*
X11599486Y-10214914D02*
X11618533Y-10205390D01*
X11618533Y-10205390D02*
X11647105Y-10205390D01*
X11647105Y-10205390D02*
X11666152Y-10214914D01*
X11666152Y-10214914D02*
X11675676Y-10233962D01*
X11675676Y-10233962D02*
X11675676Y-10338724D01*
X11675676Y-10233962D02*
X11685200Y-10214914D01*
X11685200Y-10214914D02*
X11704248Y-10205390D01*
X11704248Y-10205390D02*
X11732819Y-10205390D01*
X11732819Y-10205390D02*
X11751867Y-10214914D01*
X11751867Y-10214914D02*
X11761390Y-10233962D01*
X11761390Y-10233962D02*
X11761390Y-10338724D01*
X11856629Y-10338724D02*
X11856629Y-10205390D01*
X11856629Y-10224438D02*
X11866152Y-10214914D01*
X11866152Y-10214914D02*
X11885200Y-10205390D01*
X11885200Y-10205390D02*
X11913771Y-10205390D01*
X11913771Y-10205390D02*
X11932819Y-10214914D01*
X11932819Y-10214914D02*
X11942343Y-10233962D01*
X11942343Y-10233962D02*
X11942343Y-10338724D01*
X11942343Y-10233962D02*
X11951867Y-10214914D01*
X11951867Y-10214914D02*
X11970914Y-10205390D01*
X11970914Y-10205390D02*
X11999486Y-10205390D01*
X11999486Y-10205390D02*
X12018533Y-10214914D01*
X12018533Y-10214914D02*
X12028057Y-10233962D01*
X12028057Y-10233962D02*
X12028057Y-10338724D01*
X12418533Y-10129200D02*
X12247105Y-10386343D01*
X12675676Y-10138724D02*
X12694724Y-10138724D01*
X12694724Y-10138724D02*
X12713772Y-10148248D01*
X12713772Y-10148248D02*
X12723295Y-10157771D01*
X12723295Y-10157771D02*
X12732819Y-10176819D01*
X12732819Y-10176819D02*
X12742343Y-10214914D01*
X12742343Y-10214914D02*
X12742343Y-10262533D01*
X12742343Y-10262533D02*
X12732819Y-10300629D01*
X12732819Y-10300629D02*
X12723295Y-10319676D01*
X12723295Y-10319676D02*
X12713772Y-10329200D01*
X12713772Y-10329200D02*
X12694724Y-10338724D01*
X12694724Y-10338724D02*
X12675676Y-10338724D01*
X12675676Y-10338724D02*
X12656629Y-10329200D01*
X12656629Y-10329200D02*
X12647105Y-10319676D01*
X12647105Y-10319676D02*
X12637581Y-10300629D01*
X12637581Y-10300629D02*
X12628057Y-10262533D01*
X12628057Y-10262533D02*
X12628057Y-10214914D01*
X12628057Y-10214914D02*
X12637581Y-10176819D01*
X12637581Y-10176819D02*
X12647105Y-10157771D01*
X12647105Y-10157771D02*
X12656629Y-10148248D01*
X12656629Y-10148248D02*
X12675676Y-10138724D01*
X12828057Y-10319676D02*
X12837581Y-10329200D01*
X12837581Y-10329200D02*
X12828057Y-10338724D01*
X12828057Y-10338724D02*
X12818533Y-10329200D01*
X12818533Y-10329200D02*
X12828057Y-10319676D01*
X12828057Y-10319676D02*
X12828057Y-10338724D01*
X12961391Y-10138724D02*
X12980438Y-10138724D01*
X12980438Y-10138724D02*
X12999486Y-10148248D01*
X12999486Y-10148248D02*
X13009010Y-10157771D01*
X13009010Y-10157771D02*
X13018533Y-10176819D01*
X13018533Y-10176819D02*
X13028057Y-10214914D01*
X13028057Y-10214914D02*
X13028057Y-10262533D01*
X13028057Y-10262533D02*
X13018533Y-10300629D01*
X13018533Y-10300629D02*
X13009010Y-10319676D01*
X13009010Y-10319676D02*
X12999486Y-10329200D01*
X12999486Y-10329200D02*
X12980438Y-10338724D01*
X12980438Y-10338724D02*
X12961391Y-10338724D01*
X12961391Y-10338724D02*
X12942343Y-10329200D01*
X12942343Y-10329200D02*
X12932819Y-10319676D01*
X12932819Y-10319676D02*
X12923295Y-10300629D01*
X12923295Y-10300629D02*
X12913772Y-10262533D01*
X12913772Y-10262533D02*
X12913772Y-10214914D01*
X12913772Y-10214914D02*
X12923295Y-10176819D01*
X12923295Y-10176819D02*
X12932819Y-10157771D01*
X12932819Y-10157771D02*
X12942343Y-10148248D01*
X12942343Y-10148248D02*
X12961391Y-10138724D01*
X13199486Y-10138724D02*
X13161391Y-10138724D01*
X13161391Y-10138724D02*
X13142343Y-10148248D01*
X13142343Y-10148248D02*
X13132819Y-10157771D01*
X13132819Y-10157771D02*
X13113772Y-10186343D01*
X13113772Y-10186343D02*
X13104248Y-10224438D01*
X13104248Y-10224438D02*
X13104248Y-10300629D01*
X13104248Y-10300629D02*
X13113772Y-10319676D01*
X13113772Y-10319676D02*
X13123295Y-10329200D01*
X13123295Y-10329200D02*
X13142343Y-10338724D01*
X13142343Y-10338724D02*
X13180438Y-10338724D01*
X13180438Y-10338724D02*
X13199486Y-10329200D01*
X13199486Y-10329200D02*
X13209010Y-10319676D01*
X13209010Y-10319676D02*
X13218533Y-10300629D01*
X13218533Y-10300629D02*
X13218533Y-10253010D01*
X13218533Y-10253010D02*
X13209010Y-10233962D01*
X13209010Y-10233962D02*
X13199486Y-10224438D01*
X13199486Y-10224438D02*
X13180438Y-10214914D01*
X13180438Y-10214914D02*
X13142343Y-10214914D01*
X13142343Y-10214914D02*
X13123295Y-10224438D01*
X13123295Y-10224438D02*
X13113772Y-10233962D01*
X13113772Y-10233962D02*
X13104248Y-10253010D01*
X13389962Y-10138724D02*
X13351867Y-10138724D01*
X13351867Y-10138724D02*
X13332819Y-10148248D01*
X13332819Y-10148248D02*
X13323295Y-10157771D01*
X13323295Y-10157771D02*
X13304248Y-10186343D01*
X13304248Y-10186343D02*
X13294724Y-10224438D01*
X13294724Y-10224438D02*
X13294724Y-10300629D01*
X13294724Y-10300629D02*
X13304248Y-10319676D01*
X13304248Y-10319676D02*
X13313772Y-10329200D01*
X13313772Y-10329200D02*
X13332819Y-10338724D01*
X13332819Y-10338724D02*
X13370914Y-10338724D01*
X13370914Y-10338724D02*
X13389962Y-10329200D01*
X13389962Y-10329200D02*
X13399486Y-10319676D01*
X13399486Y-10319676D02*
X13409010Y-10300629D01*
X13409010Y-10300629D02*
X13409010Y-10253010D01*
X13409010Y-10253010D02*
X13399486Y-10233962D01*
X13399486Y-10233962D02*
X13389962Y-10224438D01*
X13389962Y-10224438D02*
X13370914Y-10214914D01*
X13370914Y-10214914D02*
X13332819Y-10214914D01*
X13332819Y-10214914D02*
X13313772Y-10224438D01*
X13313772Y-10224438D02*
X13304248Y-10233962D01*
X13304248Y-10233962D02*
X13294724Y-10253010D01*
X13504248Y-10338724D02*
X13542343Y-10338724D01*
X13542343Y-10338724D02*
X13561391Y-10329200D01*
X13561391Y-10329200D02*
X13570914Y-10319676D01*
X13570914Y-10319676D02*
X13589962Y-10291105D01*
X13589962Y-10291105D02*
X13599486Y-10253010D01*
X13599486Y-10253010D02*
X13599486Y-10176819D01*
X13599486Y-10176819D02*
X13589962Y-10157771D01*
X13589962Y-10157771D02*
X13580438Y-10148248D01*
X13580438Y-10148248D02*
X13561391Y-10138724D01*
X13561391Y-10138724D02*
X13523295Y-10138724D01*
X13523295Y-10138724D02*
X13504248Y-10148248D01*
X13504248Y-10148248D02*
X13494724Y-10157771D01*
X13494724Y-10157771D02*
X13485200Y-10176819D01*
X13485200Y-10176819D02*
X13485200Y-10224438D01*
X13485200Y-10224438D02*
X13494724Y-10243486D01*
X13494724Y-10243486D02*
X13504248Y-10253010D01*
X13504248Y-10253010D02*
X13523295Y-10262533D01*
X13523295Y-10262533D02*
X13561391Y-10262533D01*
X13561391Y-10262533D02*
X13580438Y-10253010D01*
X13580438Y-10253010D02*
X13589962Y-10243486D01*
X13589962Y-10243486D02*
X13599486Y-10224438D01*
X13675676Y-10138724D02*
X13675676Y-10176819D01*
X13751867Y-10138724D02*
X13751867Y-10176819D01*
X14047105Y-10414914D02*
X14037581Y-10405390D01*
X14037581Y-10405390D02*
X14018534Y-10376819D01*
X14018534Y-10376819D02*
X14009010Y-10357771D01*
X14009010Y-10357771D02*
X13999486Y-10329200D01*
X13999486Y-10329200D02*
X13989962Y-10281581D01*
X13989962Y-10281581D02*
X13989962Y-10243486D01*
X13989962Y-10243486D02*
X13999486Y-10195867D01*
X13999486Y-10195867D02*
X14009010Y-10167295D01*
X14009010Y-10167295D02*
X14018534Y-10148248D01*
X14018534Y-10148248D02*
X14037581Y-10119676D01*
X14037581Y-10119676D02*
X14047105Y-10110152D01*
X14151867Y-10224438D02*
X14132819Y-10214914D01*
X14132819Y-10214914D02*
X14123295Y-10205390D01*
X14123295Y-10205390D02*
X14113772Y-10186343D01*
X14113772Y-10186343D02*
X14113772Y-10176819D01*
X14113772Y-10176819D02*
X14123295Y-10157771D01*
X14123295Y-10157771D02*
X14132819Y-10148248D01*
X14132819Y-10148248D02*
X14151867Y-10138724D01*
X14151867Y-10138724D02*
X14189962Y-10138724D01*
X14189962Y-10138724D02*
X14209010Y-10148248D01*
X14209010Y-10148248D02*
X14218534Y-10157771D01*
X14218534Y-10157771D02*
X14228057Y-10176819D01*
X14228057Y-10176819D02*
X14228057Y-10186343D01*
X14228057Y-10186343D02*
X14218534Y-10205390D01*
X14218534Y-10205390D02*
X14209010Y-10214914D01*
X14209010Y-10214914D02*
X14189962Y-10224438D01*
X14189962Y-10224438D02*
X14151867Y-10224438D01*
X14151867Y-10224438D02*
X14132819Y-10233962D01*
X14132819Y-10233962D02*
X14123295Y-10243486D01*
X14123295Y-10243486D02*
X14113772Y-10262533D01*
X14113772Y-10262533D02*
X14113772Y-10300629D01*
X14113772Y-10300629D02*
X14123295Y-10319676D01*
X14123295Y-10319676D02*
X14132819Y-10329200D01*
X14132819Y-10329200D02*
X14151867Y-10338724D01*
X14151867Y-10338724D02*
X14189962Y-10338724D01*
X14189962Y-10338724D02*
X14209010Y-10329200D01*
X14209010Y-10329200D02*
X14218534Y-10319676D01*
X14218534Y-10319676D02*
X14228057Y-10300629D01*
X14228057Y-10300629D02*
X14228057Y-10262533D01*
X14228057Y-10262533D02*
X14218534Y-10243486D01*
X14218534Y-10243486D02*
X14209010Y-10233962D01*
X14209010Y-10233962D02*
X14189962Y-10224438D01*
X14466153Y-10338724D02*
X14466153Y-10138724D01*
X14551867Y-10338724D02*
X14551867Y-10233962D01*
X14551867Y-10233962D02*
X14542343Y-10214914D01*
X14542343Y-10214914D02*
X14523296Y-10205390D01*
X14523296Y-10205390D02*
X14494724Y-10205390D01*
X14494724Y-10205390D02*
X14475676Y-10214914D01*
X14475676Y-10214914D02*
X14466153Y-10224438D01*
X14675676Y-10338724D02*
X14656629Y-10329200D01*
X14656629Y-10329200D02*
X14647105Y-10319676D01*
X14647105Y-10319676D02*
X14637581Y-10300629D01*
X14637581Y-10300629D02*
X14637581Y-10243486D01*
X14637581Y-10243486D02*
X14647105Y-10224438D01*
X14647105Y-10224438D02*
X14656629Y-10214914D01*
X14656629Y-10214914D02*
X14675676Y-10205390D01*
X14675676Y-10205390D02*
X14704248Y-10205390D01*
X14704248Y-10205390D02*
X14723296Y-10214914D01*
X14723296Y-10214914D02*
X14732819Y-10224438D01*
X14732819Y-10224438D02*
X14742343Y-10243486D01*
X14742343Y-10243486D02*
X14742343Y-10300629D01*
X14742343Y-10300629D02*
X14732819Y-10319676D01*
X14732819Y-10319676D02*
X14723296Y-10329200D01*
X14723296Y-10329200D02*
X14704248Y-10338724D01*
X14704248Y-10338724D02*
X14675676Y-10338724D01*
X14856629Y-10338724D02*
X14837581Y-10329200D01*
X14837581Y-10329200D02*
X14828057Y-10310152D01*
X14828057Y-10310152D02*
X14828057Y-10138724D01*
X15009010Y-10329200D02*
X14989962Y-10338724D01*
X14989962Y-10338724D02*
X14951867Y-10338724D01*
X14951867Y-10338724D02*
X14932819Y-10329200D01*
X14932819Y-10329200D02*
X14923296Y-10310152D01*
X14923296Y-10310152D02*
X14923296Y-10233962D01*
X14923296Y-10233962D02*
X14932819Y-10214914D01*
X14932819Y-10214914D02*
X14951867Y-10205390D01*
X14951867Y-10205390D02*
X14989962Y-10205390D01*
X14989962Y-10205390D02*
X15009010Y-10214914D01*
X15009010Y-10214914D02*
X15018534Y-10233962D01*
X15018534Y-10233962D02*
X15018534Y-10253010D01*
X15018534Y-10253010D02*
X14923296Y-10272057D01*
X15094724Y-10329200D02*
X15113772Y-10338724D01*
X15113772Y-10338724D02*
X15151867Y-10338724D01*
X15151867Y-10338724D02*
X15170915Y-10329200D01*
X15170915Y-10329200D02*
X15180438Y-10310152D01*
X15180438Y-10310152D02*
X15180438Y-10300629D01*
X15180438Y-10300629D02*
X15170915Y-10281581D01*
X15170915Y-10281581D02*
X15151867Y-10272057D01*
X15151867Y-10272057D02*
X15123296Y-10272057D01*
X15123296Y-10272057D02*
X15104248Y-10262533D01*
X15104248Y-10262533D02*
X15094724Y-10243486D01*
X15094724Y-10243486D02*
X15094724Y-10233962D01*
X15094724Y-10233962D02*
X15104248Y-10214914D01*
X15104248Y-10214914D02*
X15123296Y-10205390D01*
X15123296Y-10205390D02*
X15151867Y-10205390D01*
X15151867Y-10205390D02*
X15170915Y-10214914D01*
X15247105Y-10414914D02*
X15256629Y-10405390D01*
X15256629Y-10405390D02*
X15275677Y-10376819D01*
X15275677Y-10376819D02*
X15285200Y-10357771D01*
X15285200Y-10357771D02*
X15294724Y-10329200D01*
X15294724Y-10329200D02*
X15304248Y-10281581D01*
X15304248Y-10281581D02*
X15304248Y-10243486D01*
X15304248Y-10243486D02*
X15294724Y-10195867D01*
X15294724Y-10195867D02*
X15285200Y-10167295D01*
X15285200Y-10167295D02*
X15275677Y-10148248D01*
X15275677Y-10148248D02*
X15256629Y-10119676D01*
X15256629Y-10119676D02*
X15247105Y-10110152D01*
X15609010Y-10414914D02*
X15599486Y-10405390D01*
X15599486Y-10405390D02*
X15580438Y-10376819D01*
X15580438Y-10376819D02*
X15570915Y-10357771D01*
X15570915Y-10357771D02*
X15561391Y-10329200D01*
X15561391Y-10329200D02*
X15551867Y-10281581D01*
X15551867Y-10281581D02*
X15551867Y-10243486D01*
X15551867Y-10243486D02*
X15561391Y-10195867D01*
X15561391Y-10195867D02*
X15570915Y-10167295D01*
X15570915Y-10167295D02*
X15580438Y-10148248D01*
X15580438Y-10148248D02*
X15599486Y-10119676D01*
X15599486Y-10119676D02*
X15609010Y-10110152D01*
X15685200Y-10205390D02*
X15685200Y-10338724D01*
X15685200Y-10224438D02*
X15694724Y-10214914D01*
X15694724Y-10214914D02*
X15713772Y-10205390D01*
X15713772Y-10205390D02*
X15742343Y-10205390D01*
X15742343Y-10205390D02*
X15761391Y-10214914D01*
X15761391Y-10214914D02*
X15770915Y-10233962D01*
X15770915Y-10233962D02*
X15770915Y-10338724D01*
X15894724Y-10338724D02*
X15875677Y-10329200D01*
X15875677Y-10329200D02*
X15866153Y-10319676D01*
X15866153Y-10319676D02*
X15856629Y-10300629D01*
X15856629Y-10300629D02*
X15856629Y-10243486D01*
X15856629Y-10243486D02*
X15866153Y-10224438D01*
X15866153Y-10224438D02*
X15875677Y-10214914D01*
X15875677Y-10214914D02*
X15894724Y-10205390D01*
X15894724Y-10205390D02*
X15923296Y-10205390D01*
X15923296Y-10205390D02*
X15942343Y-10214914D01*
X15942343Y-10214914D02*
X15951867Y-10224438D01*
X15951867Y-10224438D02*
X15961391Y-10243486D01*
X15961391Y-10243486D02*
X15961391Y-10300629D01*
X15961391Y-10300629D02*
X15951867Y-10319676D01*
X15951867Y-10319676D02*
X15942343Y-10329200D01*
X15942343Y-10329200D02*
X15923296Y-10338724D01*
X15923296Y-10338724D02*
X15894724Y-10338724D01*
X16018534Y-10205390D02*
X16094724Y-10205390D01*
X16047105Y-10138724D02*
X16047105Y-10310152D01*
X16047105Y-10310152D02*
X16056629Y-10329200D01*
X16056629Y-10329200D02*
X16075677Y-10338724D01*
X16075677Y-10338724D02*
X16094724Y-10338724D01*
X16313772Y-10205390D02*
X16313772Y-10405390D01*
X16313772Y-10214914D02*
X16332819Y-10205390D01*
X16332819Y-10205390D02*
X16370915Y-10205390D01*
X16370915Y-10205390D02*
X16389962Y-10214914D01*
X16389962Y-10214914D02*
X16399486Y-10224438D01*
X16399486Y-10224438D02*
X16409010Y-10243486D01*
X16409010Y-10243486D02*
X16409010Y-10300629D01*
X16409010Y-10300629D02*
X16399486Y-10319676D01*
X16399486Y-10319676D02*
X16389962Y-10329200D01*
X16389962Y-10329200D02*
X16370915Y-10338724D01*
X16370915Y-10338724D02*
X16332819Y-10338724D01*
X16332819Y-10338724D02*
X16313772Y-10329200D01*
X16523296Y-10338724D02*
X16504248Y-10329200D01*
X16504248Y-10329200D02*
X16494724Y-10310152D01*
X16494724Y-10310152D02*
X16494724Y-10138724D01*
X16685200Y-10338724D02*
X16685200Y-10233962D01*
X16685200Y-10233962D02*
X16675677Y-10214914D01*
X16675677Y-10214914D02*
X16656629Y-10205390D01*
X16656629Y-10205390D02*
X16618534Y-10205390D01*
X16618534Y-10205390D02*
X16599486Y-10214914D01*
X16685200Y-10329200D02*
X16666153Y-10338724D01*
X16666153Y-10338724D02*
X16618534Y-10338724D01*
X16618534Y-10338724D02*
X16599486Y-10329200D01*
X16599486Y-10329200D02*
X16589962Y-10310152D01*
X16589962Y-10310152D02*
X16589962Y-10291105D01*
X16589962Y-10291105D02*
X16599486Y-10272057D01*
X16599486Y-10272057D02*
X16618534Y-10262533D01*
X16618534Y-10262533D02*
X16666153Y-10262533D01*
X16666153Y-10262533D02*
X16685200Y-10253010D01*
X16751867Y-10205390D02*
X16828058Y-10205390D01*
X16780439Y-10138724D02*
X16780439Y-10310152D01*
X16780439Y-10310152D02*
X16789962Y-10329200D01*
X16789962Y-10329200D02*
X16809010Y-10338724D01*
X16809010Y-10338724D02*
X16828058Y-10338724D01*
X16970915Y-10329200D02*
X16951867Y-10338724D01*
X16951867Y-10338724D02*
X16913772Y-10338724D01*
X16913772Y-10338724D02*
X16894724Y-10329200D01*
X16894724Y-10329200D02*
X16885201Y-10310152D01*
X16885201Y-10310152D02*
X16885201Y-10233962D01*
X16885201Y-10233962D02*
X16894724Y-10214914D01*
X16894724Y-10214914D02*
X16913772Y-10205390D01*
X16913772Y-10205390D02*
X16951867Y-10205390D01*
X16951867Y-10205390D02*
X16970915Y-10214914D01*
X16970915Y-10214914D02*
X16980439Y-10233962D01*
X16980439Y-10233962D02*
X16980439Y-10253010D01*
X16980439Y-10253010D02*
X16885201Y-10272057D01*
X17151867Y-10338724D02*
X17151867Y-10138724D01*
X17151867Y-10329200D02*
X17132820Y-10338724D01*
X17132820Y-10338724D02*
X17094724Y-10338724D01*
X17094724Y-10338724D02*
X17075677Y-10329200D01*
X17075677Y-10329200D02*
X17066153Y-10319676D01*
X17066153Y-10319676D02*
X17056629Y-10300629D01*
X17056629Y-10300629D02*
X17056629Y-10243486D01*
X17056629Y-10243486D02*
X17066153Y-10224438D01*
X17066153Y-10224438D02*
X17075677Y-10214914D01*
X17075677Y-10214914D02*
X17094724Y-10205390D01*
X17094724Y-10205390D02*
X17132820Y-10205390D01*
X17132820Y-10205390D02*
X17151867Y-10214914D01*
X17228058Y-10414914D02*
X17237582Y-10405390D01*
X17237582Y-10405390D02*
X17256629Y-10376819D01*
X17256629Y-10376819D02*
X17266153Y-10357771D01*
X17266153Y-10357771D02*
X17275677Y-10329200D01*
X17275677Y-10329200D02*
X17285201Y-10281581D01*
X17285201Y-10281581D02*
X17285201Y-10243486D01*
X17285201Y-10243486D02*
X17275677Y-10195867D01*
X17275677Y-10195867D02*
X17266153Y-10167295D01*
X17266153Y-10167295D02*
X17256629Y-10148248D01*
X17256629Y-10148248D02*
X17237582Y-10119676D01*
X17237582Y-10119676D02*
X17228058Y-10110152D01*
X10485200Y-10536200D02*
G75*
G03*
X10485200Y-10536200I-100000J0D01*
G01*
X10818533Y-10495390D02*
X10818533Y-10628724D01*
X10770914Y-10419200D02*
X10723295Y-10562057D01*
X10723295Y-10562057D02*
X10847105Y-10562057D01*
X10923295Y-10609676D02*
X10932819Y-10619200D01*
X10932819Y-10619200D02*
X10923295Y-10628724D01*
X10923295Y-10628724D02*
X10913771Y-10619200D01*
X10913771Y-10619200D02*
X10923295Y-10609676D01*
X10923295Y-10609676D02*
X10923295Y-10628724D01*
X11056629Y-10428724D02*
X11075676Y-10428724D01*
X11075676Y-10428724D02*
X11094724Y-10438248D01*
X11094724Y-10438248D02*
X11104248Y-10447771D01*
X11104248Y-10447771D02*
X11113771Y-10466819D01*
X11113771Y-10466819D02*
X11123295Y-10504914D01*
X11123295Y-10504914D02*
X11123295Y-10552533D01*
X11123295Y-10552533D02*
X11113771Y-10590629D01*
X11113771Y-10590629D02*
X11104248Y-10609676D01*
X11104248Y-10609676D02*
X11094724Y-10619200D01*
X11094724Y-10619200D02*
X11075676Y-10628724D01*
X11075676Y-10628724D02*
X11056629Y-10628724D01*
X11056629Y-10628724D02*
X11037581Y-10619200D01*
X11037581Y-10619200D02*
X11028057Y-10609676D01*
X11028057Y-10609676D02*
X11018533Y-10590629D01*
X11018533Y-10590629D02*
X11009010Y-10552533D01*
X11009010Y-10552533D02*
X11009010Y-10504914D01*
X11009010Y-10504914D02*
X11018533Y-10466819D01*
X11018533Y-10466819D02*
X11028057Y-10447771D01*
X11028057Y-10447771D02*
X11037581Y-10438248D01*
X11037581Y-10438248D02*
X11056629Y-10428724D01*
X11247105Y-10428724D02*
X11266152Y-10428724D01*
X11266152Y-10428724D02*
X11285200Y-10438248D01*
X11285200Y-10438248D02*
X11294724Y-10447771D01*
X11294724Y-10447771D02*
X11304248Y-10466819D01*
X11304248Y-10466819D02*
X11313771Y-10504914D01*
X11313771Y-10504914D02*
X11313771Y-10552533D01*
X11313771Y-10552533D02*
X11304248Y-10590629D01*
X11304248Y-10590629D02*
X11294724Y-10609676D01*
X11294724Y-10609676D02*
X11285200Y-10619200D01*
X11285200Y-10619200D02*
X11266152Y-10628724D01*
X11266152Y-10628724D02*
X11247105Y-10628724D01*
X11247105Y-10628724D02*
X11228057Y-10619200D01*
X11228057Y-10619200D02*
X11218533Y-10609676D01*
X11218533Y-10609676D02*
X11209009Y-10590629D01*
X11209009Y-10590629D02*
X11199486Y-10552533D01*
X11199486Y-10552533D02*
X11199486Y-10504914D01*
X11199486Y-10504914D02*
X11209009Y-10466819D01*
X11209009Y-10466819D02*
X11218533Y-10447771D01*
X11218533Y-10447771D02*
X11228057Y-10438248D01*
X11228057Y-10438248D02*
X11247105Y-10428724D01*
X11437581Y-10428724D02*
X11456629Y-10428724D01*
X11456629Y-10428724D02*
X11475676Y-10438248D01*
X11475676Y-10438248D02*
X11485200Y-10447771D01*
X11485200Y-10447771D02*
X11494724Y-10466819D01*
X11494724Y-10466819D02*
X11504248Y-10504914D01*
X11504248Y-10504914D02*
X11504248Y-10552533D01*
X11504248Y-10552533D02*
X11494724Y-10590629D01*
X11494724Y-10590629D02*
X11485200Y-10609676D01*
X11485200Y-10609676D02*
X11475676Y-10619200D01*
X11475676Y-10619200D02*
X11456629Y-10628724D01*
X11456629Y-10628724D02*
X11437581Y-10628724D01*
X11437581Y-10628724D02*
X11418533Y-10619200D01*
X11418533Y-10619200D02*
X11409009Y-10609676D01*
X11409009Y-10609676D02*
X11399486Y-10590629D01*
X11399486Y-10590629D02*
X11389962Y-10552533D01*
X11389962Y-10552533D02*
X11389962Y-10504914D01*
X11389962Y-10504914D02*
X11399486Y-10466819D01*
X11399486Y-10466819D02*
X11409009Y-10447771D01*
X11409009Y-10447771D02*
X11418533Y-10438248D01*
X11418533Y-10438248D02*
X11437581Y-10428724D01*
X11589962Y-10628724D02*
X11589962Y-10495390D01*
X11589962Y-10514438D02*
X11599486Y-10504914D01*
X11599486Y-10504914D02*
X11618533Y-10495390D01*
X11618533Y-10495390D02*
X11647105Y-10495390D01*
X11647105Y-10495390D02*
X11666152Y-10504914D01*
X11666152Y-10504914D02*
X11675676Y-10523962D01*
X11675676Y-10523962D02*
X11675676Y-10628724D01*
X11675676Y-10523962D02*
X11685200Y-10504914D01*
X11685200Y-10504914D02*
X11704248Y-10495390D01*
X11704248Y-10495390D02*
X11732819Y-10495390D01*
X11732819Y-10495390D02*
X11751867Y-10504914D01*
X11751867Y-10504914D02*
X11761390Y-10523962D01*
X11761390Y-10523962D02*
X11761390Y-10628724D01*
X11856629Y-10628724D02*
X11856629Y-10495390D01*
X11856629Y-10514438D02*
X11866152Y-10504914D01*
X11866152Y-10504914D02*
X11885200Y-10495390D01*
X11885200Y-10495390D02*
X11913771Y-10495390D01*
X11913771Y-10495390D02*
X11932819Y-10504914D01*
X11932819Y-10504914D02*
X11942343Y-10523962D01*
X11942343Y-10523962D02*
X11942343Y-10628724D01*
X11942343Y-10523962D02*
X11951867Y-10504914D01*
X11951867Y-10504914D02*
X11970914Y-10495390D01*
X11970914Y-10495390D02*
X11999486Y-10495390D01*
X11999486Y-10495390D02*
X12018533Y-10504914D01*
X12018533Y-10504914D02*
X12028057Y-10523962D01*
X12028057Y-10523962D02*
X12028057Y-10628724D01*
X12418533Y-10419200D02*
X12247105Y-10676343D01*
X12675676Y-10428724D02*
X12694724Y-10428724D01*
X12694724Y-10428724D02*
X12713772Y-10438248D01*
X12713772Y-10438248D02*
X12723295Y-10447771D01*
X12723295Y-10447771D02*
X12732819Y-10466819D01*
X12732819Y-10466819D02*
X12742343Y-10504914D01*
X12742343Y-10504914D02*
X12742343Y-10552533D01*
X12742343Y-10552533D02*
X12732819Y-10590629D01*
X12732819Y-10590629D02*
X12723295Y-10609676D01*
X12723295Y-10609676D02*
X12713772Y-10619200D01*
X12713772Y-10619200D02*
X12694724Y-10628724D01*
X12694724Y-10628724D02*
X12675676Y-10628724D01*
X12675676Y-10628724D02*
X12656629Y-10619200D01*
X12656629Y-10619200D02*
X12647105Y-10609676D01*
X12647105Y-10609676D02*
X12637581Y-10590629D01*
X12637581Y-10590629D02*
X12628057Y-10552533D01*
X12628057Y-10552533D02*
X12628057Y-10504914D01*
X12628057Y-10504914D02*
X12637581Y-10466819D01*
X12637581Y-10466819D02*
X12647105Y-10447771D01*
X12647105Y-10447771D02*
X12656629Y-10438248D01*
X12656629Y-10438248D02*
X12675676Y-10428724D01*
X12828057Y-10609676D02*
X12837581Y-10619200D01*
X12837581Y-10619200D02*
X12828057Y-10628724D01*
X12828057Y-10628724D02*
X12818533Y-10619200D01*
X12818533Y-10619200D02*
X12828057Y-10609676D01*
X12828057Y-10609676D02*
X12828057Y-10628724D01*
X13028057Y-10628724D02*
X12913772Y-10628724D01*
X12970914Y-10628724D02*
X12970914Y-10428724D01*
X12970914Y-10428724D02*
X12951867Y-10457295D01*
X12951867Y-10457295D02*
X12932819Y-10476343D01*
X12932819Y-10476343D02*
X12913772Y-10485867D01*
X13209010Y-10428724D02*
X13113772Y-10428724D01*
X13113772Y-10428724D02*
X13104248Y-10523962D01*
X13104248Y-10523962D02*
X13113772Y-10514438D01*
X13113772Y-10514438D02*
X13132819Y-10504914D01*
X13132819Y-10504914D02*
X13180438Y-10504914D01*
X13180438Y-10504914D02*
X13199486Y-10514438D01*
X13199486Y-10514438D02*
X13209010Y-10523962D01*
X13209010Y-10523962D02*
X13218533Y-10543010D01*
X13218533Y-10543010D02*
X13218533Y-10590629D01*
X13218533Y-10590629D02*
X13209010Y-10609676D01*
X13209010Y-10609676D02*
X13199486Y-10619200D01*
X13199486Y-10619200D02*
X13180438Y-10628724D01*
X13180438Y-10628724D02*
X13132819Y-10628724D01*
X13132819Y-10628724D02*
X13113772Y-10619200D01*
X13113772Y-10619200D02*
X13104248Y-10609676D01*
X13285200Y-10428724D02*
X13418533Y-10428724D01*
X13418533Y-10428724D02*
X13332819Y-10628724D01*
X13589962Y-10428724D02*
X13494724Y-10428724D01*
X13494724Y-10428724D02*
X13485200Y-10523962D01*
X13485200Y-10523962D02*
X13494724Y-10514438D01*
X13494724Y-10514438D02*
X13513772Y-10504914D01*
X13513772Y-10504914D02*
X13561391Y-10504914D01*
X13561391Y-10504914D02*
X13580438Y-10514438D01*
X13580438Y-10514438D02*
X13589962Y-10523962D01*
X13589962Y-10523962D02*
X13599486Y-10543010D01*
X13599486Y-10543010D02*
X13599486Y-10590629D01*
X13599486Y-10590629D02*
X13589962Y-10609676D01*
X13589962Y-10609676D02*
X13580438Y-10619200D01*
X13580438Y-10619200D02*
X13561391Y-10628724D01*
X13561391Y-10628724D02*
X13513772Y-10628724D01*
X13513772Y-10628724D02*
X13494724Y-10619200D01*
X13494724Y-10619200D02*
X13485200Y-10609676D01*
X13675676Y-10428724D02*
X13675676Y-10466819D01*
X13751867Y-10428724D02*
X13751867Y-10466819D01*
X14047105Y-10704914D02*
X14037581Y-10695390D01*
X14037581Y-10695390D02*
X14018534Y-10666819D01*
X14018534Y-10666819D02*
X14009010Y-10647771D01*
X14009010Y-10647771D02*
X13999486Y-10619200D01*
X13999486Y-10619200D02*
X13989962Y-10571581D01*
X13989962Y-10571581D02*
X13989962Y-10533486D01*
X13989962Y-10533486D02*
X13999486Y-10485867D01*
X13999486Y-10485867D02*
X14009010Y-10457295D01*
X14009010Y-10457295D02*
X14018534Y-10438248D01*
X14018534Y-10438248D02*
X14037581Y-10409676D01*
X14037581Y-10409676D02*
X14047105Y-10400152D01*
X14209010Y-10495390D02*
X14209010Y-10628724D01*
X14161391Y-10419200D02*
X14113772Y-10562057D01*
X14113772Y-10562057D02*
X14237581Y-10562057D01*
X14466153Y-10628724D02*
X14466153Y-10428724D01*
X14551867Y-10628724D02*
X14551867Y-10523962D01*
X14551867Y-10523962D02*
X14542343Y-10504914D01*
X14542343Y-10504914D02*
X14523296Y-10495390D01*
X14523296Y-10495390D02*
X14494724Y-10495390D01*
X14494724Y-10495390D02*
X14475676Y-10504914D01*
X14475676Y-10504914D02*
X14466153Y-10514438D01*
X14675676Y-10628724D02*
X14656629Y-10619200D01*
X14656629Y-10619200D02*
X14647105Y-10609676D01*
X14647105Y-10609676D02*
X14637581Y-10590629D01*
X14637581Y-10590629D02*
X14637581Y-10533486D01*
X14637581Y-10533486D02*
X14647105Y-10514438D01*
X14647105Y-10514438D02*
X14656629Y-10504914D01*
X14656629Y-10504914D02*
X14675676Y-10495390D01*
X14675676Y-10495390D02*
X14704248Y-10495390D01*
X14704248Y-10495390D02*
X14723296Y-10504914D01*
X14723296Y-10504914D02*
X14732819Y-10514438D01*
X14732819Y-10514438D02*
X14742343Y-10533486D01*
X14742343Y-10533486D02*
X14742343Y-10590629D01*
X14742343Y-10590629D02*
X14732819Y-10609676D01*
X14732819Y-10609676D02*
X14723296Y-10619200D01*
X14723296Y-10619200D02*
X14704248Y-10628724D01*
X14704248Y-10628724D02*
X14675676Y-10628724D01*
X14856629Y-10628724D02*
X14837581Y-10619200D01*
X14837581Y-10619200D02*
X14828057Y-10600152D01*
X14828057Y-10600152D02*
X14828057Y-10428724D01*
X15009010Y-10619200D02*
X14989962Y-10628724D01*
X14989962Y-10628724D02*
X14951867Y-10628724D01*
X14951867Y-10628724D02*
X14932819Y-10619200D01*
X14932819Y-10619200D02*
X14923296Y-10600152D01*
X14923296Y-10600152D02*
X14923296Y-10523962D01*
X14923296Y-10523962D02*
X14932819Y-10504914D01*
X14932819Y-10504914D02*
X14951867Y-10495390D01*
X14951867Y-10495390D02*
X14989962Y-10495390D01*
X14989962Y-10495390D02*
X15009010Y-10504914D01*
X15009010Y-10504914D02*
X15018534Y-10523962D01*
X15018534Y-10523962D02*
X15018534Y-10543010D01*
X15018534Y-10543010D02*
X14923296Y-10562057D01*
X15094724Y-10619200D02*
X15113772Y-10628724D01*
X15113772Y-10628724D02*
X15151867Y-10628724D01*
X15151867Y-10628724D02*
X15170915Y-10619200D01*
X15170915Y-10619200D02*
X15180438Y-10600152D01*
X15180438Y-10600152D02*
X15180438Y-10590629D01*
X15180438Y-10590629D02*
X15170915Y-10571581D01*
X15170915Y-10571581D02*
X15151867Y-10562057D01*
X15151867Y-10562057D02*
X15123296Y-10562057D01*
X15123296Y-10562057D02*
X15104248Y-10552533D01*
X15104248Y-10552533D02*
X15094724Y-10533486D01*
X15094724Y-10533486D02*
X15094724Y-10523962D01*
X15094724Y-10523962D02*
X15104248Y-10504914D01*
X15104248Y-10504914D02*
X15123296Y-10495390D01*
X15123296Y-10495390D02*
X15151867Y-10495390D01*
X15151867Y-10495390D02*
X15170915Y-10504914D01*
X15247105Y-10704914D02*
X15256629Y-10695390D01*
X15256629Y-10695390D02*
X15275677Y-10666819D01*
X15275677Y-10666819D02*
X15285200Y-10647771D01*
X15285200Y-10647771D02*
X15294724Y-10619200D01*
X15294724Y-10619200D02*
X15304248Y-10571581D01*
X15304248Y-10571581D02*
X15304248Y-10533486D01*
X15304248Y-10533486D02*
X15294724Y-10485867D01*
X15294724Y-10485867D02*
X15285200Y-10457295D01*
X15285200Y-10457295D02*
X15275677Y-10438248D01*
X15275677Y-10438248D02*
X15256629Y-10409676D01*
X15256629Y-10409676D02*
X15247105Y-10400152D01*
X15609010Y-10704914D02*
X15599486Y-10695390D01*
X15599486Y-10695390D02*
X15580438Y-10666819D01*
X15580438Y-10666819D02*
X15570915Y-10647771D01*
X15570915Y-10647771D02*
X15561391Y-10619200D01*
X15561391Y-10619200D02*
X15551867Y-10571581D01*
X15551867Y-10571581D02*
X15551867Y-10533486D01*
X15551867Y-10533486D02*
X15561391Y-10485867D01*
X15561391Y-10485867D02*
X15570915Y-10457295D01*
X15570915Y-10457295D02*
X15580438Y-10438248D01*
X15580438Y-10438248D02*
X15599486Y-10409676D01*
X15599486Y-10409676D02*
X15609010Y-10400152D01*
X15685200Y-10495390D02*
X15685200Y-10628724D01*
X15685200Y-10514438D02*
X15694724Y-10504914D01*
X15694724Y-10504914D02*
X15713772Y-10495390D01*
X15713772Y-10495390D02*
X15742343Y-10495390D01*
X15742343Y-10495390D02*
X15761391Y-10504914D01*
X15761391Y-10504914D02*
X15770915Y-10523962D01*
X15770915Y-10523962D02*
X15770915Y-10628724D01*
X15894724Y-10628724D02*
X15875677Y-10619200D01*
X15875677Y-10619200D02*
X15866153Y-10609676D01*
X15866153Y-10609676D02*
X15856629Y-10590629D01*
X15856629Y-10590629D02*
X15856629Y-10533486D01*
X15856629Y-10533486D02*
X15866153Y-10514438D01*
X15866153Y-10514438D02*
X15875677Y-10504914D01*
X15875677Y-10504914D02*
X15894724Y-10495390D01*
X15894724Y-10495390D02*
X15923296Y-10495390D01*
X15923296Y-10495390D02*
X15942343Y-10504914D01*
X15942343Y-10504914D02*
X15951867Y-10514438D01*
X15951867Y-10514438D02*
X15961391Y-10533486D01*
X15961391Y-10533486D02*
X15961391Y-10590629D01*
X15961391Y-10590629D02*
X15951867Y-10609676D01*
X15951867Y-10609676D02*
X15942343Y-10619200D01*
X15942343Y-10619200D02*
X15923296Y-10628724D01*
X15923296Y-10628724D02*
X15894724Y-10628724D01*
X16018534Y-10495390D02*
X16094724Y-10495390D01*
X16047105Y-10428724D02*
X16047105Y-10600152D01*
X16047105Y-10600152D02*
X16056629Y-10619200D01*
X16056629Y-10619200D02*
X16075677Y-10628724D01*
X16075677Y-10628724D02*
X16094724Y-10628724D01*
X16313772Y-10495390D02*
X16313772Y-10695390D01*
X16313772Y-10504914D02*
X16332819Y-10495390D01*
X16332819Y-10495390D02*
X16370915Y-10495390D01*
X16370915Y-10495390D02*
X16389962Y-10504914D01*
X16389962Y-10504914D02*
X16399486Y-10514438D01*
X16399486Y-10514438D02*
X16409010Y-10533486D01*
X16409010Y-10533486D02*
X16409010Y-10590629D01*
X16409010Y-10590629D02*
X16399486Y-10609676D01*
X16399486Y-10609676D02*
X16389962Y-10619200D01*
X16389962Y-10619200D02*
X16370915Y-10628724D01*
X16370915Y-10628724D02*
X16332819Y-10628724D01*
X16332819Y-10628724D02*
X16313772Y-10619200D01*
X16523296Y-10628724D02*
X16504248Y-10619200D01*
X16504248Y-10619200D02*
X16494724Y-10600152D01*
X16494724Y-10600152D02*
X16494724Y-10428724D01*
X16685200Y-10628724D02*
X16685200Y-10523962D01*
X16685200Y-10523962D02*
X16675677Y-10504914D01*
X16675677Y-10504914D02*
X16656629Y-10495390D01*
X16656629Y-10495390D02*
X16618534Y-10495390D01*
X16618534Y-10495390D02*
X16599486Y-10504914D01*
X16685200Y-10619200D02*
X16666153Y-10628724D01*
X16666153Y-10628724D02*
X16618534Y-10628724D01*
X16618534Y-10628724D02*
X16599486Y-10619200D01*
X16599486Y-10619200D02*
X16589962Y-10600152D01*
X16589962Y-10600152D02*
X16589962Y-10581105D01*
X16589962Y-10581105D02*
X16599486Y-10562057D01*
X16599486Y-10562057D02*
X16618534Y-10552533D01*
X16618534Y-10552533D02*
X16666153Y-10552533D01*
X16666153Y-10552533D02*
X16685200Y-10543010D01*
X16751867Y-10495390D02*
X16828058Y-10495390D01*
X16780439Y-10428724D02*
X16780439Y-10600152D01*
X16780439Y-10600152D02*
X16789962Y-10619200D01*
X16789962Y-10619200D02*
X16809010Y-10628724D01*
X16809010Y-10628724D02*
X16828058Y-10628724D01*
X16970915Y-10619200D02*
X16951867Y-10628724D01*
X16951867Y-10628724D02*
X16913772Y-10628724D01*
X16913772Y-10628724D02*
X16894724Y-10619200D01*
X16894724Y-10619200D02*
X16885201Y-10600152D01*
X16885201Y-10600152D02*
X16885201Y-10523962D01*
X16885201Y-10523962D02*
X16894724Y-10504914D01*
X16894724Y-10504914D02*
X16913772Y-10495390D01*
X16913772Y-10495390D02*
X16951867Y-10495390D01*
X16951867Y-10495390D02*
X16970915Y-10504914D01*
X16970915Y-10504914D02*
X16980439Y-10523962D01*
X16980439Y-10523962D02*
X16980439Y-10543010D01*
X16980439Y-10543010D02*
X16885201Y-10562057D01*
X17151867Y-10628724D02*
X17151867Y-10428724D01*
X17151867Y-10619200D02*
X17132820Y-10628724D01*
X17132820Y-10628724D02*
X17094724Y-10628724D01*
X17094724Y-10628724D02*
X17075677Y-10619200D01*
X17075677Y-10619200D02*
X17066153Y-10609676D01*
X17066153Y-10609676D02*
X17056629Y-10590629D01*
X17056629Y-10590629D02*
X17056629Y-10533486D01*
X17056629Y-10533486D02*
X17066153Y-10514438D01*
X17066153Y-10514438D02*
X17075677Y-10504914D01*
X17075677Y-10504914D02*
X17094724Y-10495390D01*
X17094724Y-10495390D02*
X17132820Y-10495390D01*
X17132820Y-10495390D02*
X17151867Y-10504914D01*
X17228058Y-10704914D02*
X17237582Y-10695390D01*
X17237582Y-10695390D02*
X17256629Y-10666819D01*
X17256629Y-10666819D02*
X17266153Y-10647771D01*
X17266153Y-10647771D02*
X17275677Y-10619200D01*
X17275677Y-10619200D02*
X17285201Y-10571581D01*
X17285201Y-10571581D02*
X17285201Y-10533486D01*
X17285201Y-10533486D02*
X17275677Y-10485867D01*
X17275677Y-10485867D02*
X17266153Y-10457295D01*
X17266153Y-10457295D02*
X17256629Y-10438248D01*
X17256629Y-10438248D02*
X17237582Y-10409676D01*
X17237582Y-10409676D02*
X17228058Y-10400152D01*
M02*
